<svg width="511" height="422" viewBox="0 0 511 422" fill="none" xmlns="http://www.w3.org/2000/svg">
<g clip-path="url(#clip0_241_825)">
<path d="M325.635 316.36V418.087H101.936C76.4488 418.087 55.7119 395.269 55.7119 367.224C55.7119 339.178 76.4488 316.36 101.936 316.36H325.635Z" fill="#F2F2F2"/>
<path d="M331.129 417.305C331.129 418.343 330.767 419.337 330.123 420.071C329.479 420.805 328.606 421.217 327.695 421.218H97.951C85.4732 421.218 73.5064 415.57 64.6833 405.518C55.8601 395.465 50.9033 381.831 50.9033 367.615C50.9033 353.399 55.8601 339.765 64.6833 329.713C73.5064 319.66 85.4732 314.013 97.951 314.013H327.695C328.606 314.013 329.479 314.425 330.123 315.159C330.767 315.893 331.129 316.888 331.129 317.925C331.129 318.963 330.767 319.958 330.123 320.692C329.479 321.426 328.606 321.838 327.695 321.838H97.951C87.2948 321.838 77.075 326.661 69.5399 335.246C62.0048 343.831 57.7716 355.474 57.7716 367.615C57.7716 379.756 62.0048 391.4 69.5399 399.985C77.075 408.569 87.2948 413.392 97.951 413.392H327.695C328.606 413.393 329.479 413.805 330.123 414.539C330.767 415.272 331.129 416.267 331.129 417.305Z" fill="#B5FBD6"/>
<path d="M325.635 339.836H85.2454C85.0633 339.836 84.8886 339.753 84.7598 339.607C84.631 339.46 84.5586 339.261 84.5586 339.053C84.5586 338.846 84.631 338.647 84.7598 338.5C84.8886 338.353 85.0633 338.271 85.2454 338.271H325.635C325.817 338.271 325.992 338.353 326.121 338.5C326.25 338.647 326.322 338.846 326.322 339.053C326.322 339.261 326.25 339.46 326.121 339.607C325.992 339.753 325.817 339.836 325.635 339.836Z" fill="#CCCCCC"/>
<path d="M325.635 358.616H85.2454C85.0633 358.616 84.8886 358.534 84.7598 358.387C84.631 358.24 84.5586 358.041 84.5586 357.834C84.5586 357.626 84.631 357.427 84.7598 357.28C84.8886 357.134 85.0633 357.051 85.2454 357.051H325.635C325.817 357.051 325.992 357.134 326.121 357.28C326.25 357.427 326.322 357.626 326.322 357.834C326.322 358.041 326.25 358.24 326.121 358.387C325.992 358.534 325.817 358.616 325.635 358.616Z" fill="#CCCCCC"/>
<path d="M325.635 377.397H85.2454C85.0633 377.397 84.8886 377.314 84.7598 377.167C84.631 377.021 84.5586 376.822 84.5586 376.614C84.5586 376.407 84.631 376.207 84.7598 376.061C84.8886 375.914 85.0633 375.832 85.2454 375.832H325.635C325.817 375.832 325.992 375.914 326.121 376.061C326.25 376.207 326.322 376.407 326.322 376.614C326.322 376.822 326.25 377.021 326.121 377.167C325.992 377.314 325.817 377.397 325.635 377.397Z" fill="#CCCCCC"/>
<path d="M325.635 396.177H85.2454C85.0633 396.177 84.8886 396.095 84.7598 395.948C84.631 395.801 84.5586 395.602 84.5586 395.394C84.5586 395.187 84.631 394.988 84.7598 394.841C84.8886 394.694 85.0633 394.612 85.2454 394.612H325.635C325.817 394.612 325.992 394.694 326.121 394.841C326.25 394.988 326.322 395.187 326.322 395.394C326.322 395.602 326.25 395.801 326.121 395.948C325.992 396.095 325.817 396.177 325.635 396.177Z" fill="#CCCCCC"/>
<path d="M498.521 335.509L442.5 414.722L268.31 254.815C248.464 236.595 244.882 204.004 260.327 182.166C275.771 160.327 304.485 157.383 324.331 175.602L498.521 335.509Z" fill="#F2F2F2"/>
<path d="M447.21 418.04C446.638 418.848 445.809 419.364 444.903 419.475C443.998 419.586 443.091 419.283 442.381 418.632L263.484 254.404C253.768 245.484 247.56 232.532 246.225 218.398C244.891 204.263 248.539 190.103 256.368 179.033C264.197 167.964 275.565 160.89 287.971 159.37C300.377 157.849 312.805 162.006 322.522 170.926L501.419 335.154C501.77 335.476 502.062 335.874 502.279 336.325C502.495 336.776 502.632 337.272 502.68 337.783C502.728 338.294 502.688 338.811 502.561 339.304C502.434 339.797 502.223 340.257 501.94 340.657C501.657 341.057 501.307 341.39 500.911 341.636C500.515 341.883 500.081 342.038 499.632 342.092C499.183 342.147 498.73 342.101 498.297 341.956C497.864 341.811 497.461 341.57 497.109 341.247L318.212 177.019C314.104 173.244 309.383 170.429 304.32 168.734C299.256 167.038 293.949 166.496 288.701 167.138C283.453 167.78 278.368 169.593 273.736 172.475C269.104 175.356 265.015 179.25 261.704 183.932C258.392 188.614 255.923 193.994 254.437 199.763C252.951 205.533 252.477 211.58 253.043 217.559C253.608 223.537 255.202 229.33 257.733 234.606C260.264 239.883 263.683 244.54 267.794 248.31L446.691 412.539C447.4 413.19 447.852 414.136 447.95 415.167C448.047 416.199 447.781 417.232 447.21 418.04Z" fill="#CCCCCC"/>
<path d="M485.593 353.789L298.406 181.951C298.336 181.886 298.278 181.807 298.234 181.716C298.191 181.626 298.164 181.527 298.154 181.425C298.145 181.323 298.153 181.219 298.178 181.121C298.204 181.022 298.246 180.93 298.302 180.85C298.359 180.77 298.429 180.704 298.508 180.655C298.587 180.605 298.674 180.574 298.764 180.563C298.853 180.552 298.944 180.561 299.031 180.59C299.117 180.619 299.198 180.667 299.268 180.732L486.455 352.57C486.525 352.635 486.584 352.714 486.627 352.805C486.67 352.895 486.698 352.994 486.708 353.096C486.717 353.198 486.709 353.302 486.684 353.401C486.658 353.499 486.616 353.591 486.559 353.671C486.503 353.751 486.433 353.818 486.354 353.867C486.274 353.917 486.187 353.948 486.098 353.958C486.008 353.969 485.917 353.96 485.831 353.931C485.744 353.902 485.663 353.854 485.593 353.789V353.789Z" fill="#CCCCCC"/>
<path d="M475.252 368.413L288.065 196.575C287.923 196.444 287.833 196.255 287.813 196.049C287.794 195.843 287.847 195.636 287.962 195.475C288.076 195.313 288.242 195.21 288.423 195.188C288.603 195.166 288.785 195.226 288.927 195.356L476.113 367.194C476.184 367.259 476.242 367.338 476.286 367.429C476.329 367.519 476.356 367.618 476.366 367.72C476.376 367.822 476.368 367.926 476.342 368.025C476.317 368.123 476.275 368.215 476.218 368.295C476.161 368.375 476.091 368.442 476.012 368.491C475.933 368.54 475.846 368.571 475.756 368.582C475.666 368.593 475.576 368.584 475.489 368.555C475.403 368.526 475.322 368.478 475.252 368.413Z" fill="#CCCCCC"/>
<path d="M464.909 383.037L277.722 211.198C277.58 211.068 277.489 210.879 277.47 210.673C277.45 210.467 277.504 210.26 277.618 210.098C277.732 209.937 277.898 209.833 278.079 209.811C278.26 209.789 278.442 209.85 278.584 209.98L465.77 381.818C465.841 381.883 465.899 381.962 465.942 382.053C465.985 382.143 466.013 382.242 466.022 382.344C466.032 382.446 466.024 382.549 465.998 382.648C465.973 382.747 465.931 382.839 465.874 382.919C465.818 382.999 465.748 383.065 465.669 383.114C465.589 383.164 465.503 383.195 465.413 383.206C465.323 383.217 465.232 383.207 465.146 383.178C465.059 383.15 464.979 383.101 464.909 383.037V383.037Z" fill="#CCCCCC"/>
<path d="M454.567 397.661L267.38 225.822C267.31 225.758 267.251 225.678 267.208 225.588C267.165 225.498 267.138 225.399 267.128 225.297C267.118 225.195 267.126 225.091 267.152 224.993C267.177 224.894 267.219 224.802 267.276 224.722C267.333 224.642 267.403 224.576 267.482 224.526C267.561 224.477 267.648 224.446 267.737 224.435C267.827 224.424 267.918 224.433 268.004 224.462C268.091 224.491 268.172 224.539 268.242 224.604L455.429 396.442C455.499 396.507 455.557 396.586 455.601 396.676C455.644 396.767 455.671 396.866 455.681 396.968C455.691 397.07 455.683 397.174 455.657 397.272C455.632 397.371 455.59 397.463 455.533 397.543C455.476 397.623 455.407 397.69 455.327 397.739C455.248 397.788 455.161 397.819 455.071 397.83C454.982 397.841 454.891 397.832 454.804 397.803C454.718 397.774 454.637 397.725 454.567 397.661Z" fill="#CCCCCC"/>
<path d="M510.313 422H0.686828C0.50467 422 0.329972 421.918 0.201167 421.771C0.0723615 421.624 0 421.425 0 421.217C0 421.01 0.0723615 420.811 0.201167 420.664C0.329972 420.517 0.50467 420.435 0.686828 420.435H510.313C510.495 420.435 510.67 420.517 510.799 420.664C510.928 420.811 511 421.01 511 421.217C511 421.425 510.928 421.624 510.799 421.771C510.67 421.918 510.495 422 510.313 422Z" fill="#CCCCCC"/>
<path d="M232.203 305.668L224.351 305.667L220.617 271.161L232.206 271.163L232.203 305.668Z" fill="#FFB8B8"/>
<path d="M218.743 303.111H233.886V313.974H209.208C209.208 312.548 209.455 311.135 209.934 309.817C210.413 308.499 211.115 307.302 212.001 306.293C212.886 305.284 213.937 304.484 215.094 303.938C216.251 303.392 217.49 303.111 218.743 303.111Z" fill="#2F2E41"/>
<path d="M151.986 305.668L144.134 305.667L140.399 271.161L151.988 271.163L151.986 305.668Z" fill="#FFB8B8"/>
<path d="M138.525 303.111H153.668V313.974H128.99C128.99 312.548 129.237 311.135 129.716 309.817C130.195 308.499 130.897 307.302 131.783 306.293C132.668 305.284 133.719 304.484 134.876 303.938C136.033 303.392 137.273 303.111 138.525 303.111Z" fill="#2F2E41"/>
<path d="M178.212 49.7157V45.803C178.212 39.11 180.546 32.6911 184.7 27.9584C188.854 23.2257 194.487 20.5669 200.362 20.5669H200.362C206.237 20.5669 211.871 23.2257 216.025 27.9584C220.179 32.6911 222.512 39.11 222.512 45.803V49.7157C222.512 54.5409 220.83 59.1685 217.835 62.5804C214.84 65.9924 210.779 67.9092 206.544 67.9092H194.181C192.084 67.9092 190.007 67.4386 188.07 66.5243C186.132 65.61 184.372 64.2699 182.889 62.5804C181.406 60.891 180.23 58.8854 179.427 56.678C178.625 54.4707 178.212 52.1049 178.212 49.7157Z" fill="#2F2E41"/>
<path d="M200.362 69.2555C209.679 69.2555 217.232 60.6506 217.232 50.0361C217.232 39.4215 209.679 30.8167 200.362 30.8167C191.046 30.8167 183.493 39.4215 183.493 50.0361C183.493 60.6506 191.046 69.2555 200.362 69.2555Z" fill="#FFB8B8"/>
<path d="M108.604 116.091C109.289 115.354 110.107 114.798 111 114.46C111.894 114.123 112.842 114.013 113.777 114.138C114.712 114.263 115.612 114.62 116.413 115.185C117.214 115.749 117.896 116.506 118.412 117.403L132.873 114.287L136.679 123.837L116.203 127.911C114.823 128.799 113.204 129.08 111.655 128.699C110.105 128.318 108.732 127.303 107.795 125.846C106.859 124.389 106.424 122.591 106.573 120.793C106.722 118.995 107.445 117.322 108.604 116.091V116.091Z" fill="#FFB8B8"/>
<path d="M187.211 81.3592L187.4 81.6856L163.687 99.4835L123.673 114.041C123.143 114.235 122.688 114.633 122.386 115.166C122.084 115.699 121.953 116.335 122.017 116.966L122.889 125.532C122.928 125.911 123.036 126.277 123.206 126.606C123.376 126.935 123.605 127.219 123.877 127.442C124.149 127.664 124.459 127.819 124.787 127.897C125.115 127.975 125.454 127.974 125.781 127.894L163.44 118.697C165.262 118.255 166.986 117.39 168.503 116.158L195.143 94.5626C196.109 93.7755 196.88 92.717 197.38 91.4901C197.881 90.2633 198.094 88.9097 197.999 87.5611C197.902 86.2106 197.497 84.9124 196.825 83.7941C196.154 82.6759 195.238 81.7761 194.169 81.1832C193.099 80.5904 191.913 80.325 190.726 80.4131C189.539 80.5012 188.393 80.9397 187.4 81.6856L187.211 81.3592Z" fill="#CCCCCC"/>
<path d="M224.492 295.876C223.89 295.876 223.3 295.676 222.795 295.301C222.291 294.926 221.893 294.391 221.65 293.762L185.654 192.426C185.57 192.206 185.429 192.021 185.249 191.895C185.07 191.769 184.862 191.709 184.651 191.723C184.441 191.736 184.24 191.823 184.074 191.971C183.909 192.118 183.787 192.32 183.725 192.55L154.357 291.204C154.233 291.663 154.028 292.089 153.754 292.454C153.481 292.82 153.145 293.118 152.766 293.33C152.388 293.541 151.975 293.663 151.554 293.686C151.133 293.71 150.712 293.635 150.318 293.467L140.47 289.259C139.935 289.033 139.466 288.642 139.115 288.13C138.763 287.619 138.544 287.006 138.48 286.36C134.049 242.389 172.684 131.399 173.075 130.283L173.183 129.974L208.401 138.85L208.475 138.941C222.526 156.405 234.075 266.555 236.248 288.459C236.329 289.25 236.171 290.049 235.8 290.724C235.429 291.4 234.867 291.911 234.207 292.173L225.514 295.676C225.186 295.808 224.841 295.876 224.492 295.876Z" fill="#2F2E41"/>
<path d="M194.148 142.422C185.615 142.422 176.102 140.484 173.173 132.484L173.106 132.3L173.197 132.13C175.508 127.809 178.563 120.439 176.921 119.055C173.687 116.33 172.117 111.848 172.257 105.732C172.559 92.4563 180.499 80.6693 192.014 76.4018H192.014C195.228 75.2299 198.499 74.2704 201.81 73.5281C204.224 72.9731 206.716 73.0342 209.107 73.7068C211.498 74.3795 213.728 75.6471 215.638 77.4185C217.571 79.2016 219.135 81.4505 220.215 84.0036C221.295 86.5568 221.865 89.3509 221.885 92.1851C222.006 106.373 220.089 126.133 210.269 139.7C209.809 140.329 209.169 140.753 208.461 140.898C203.737 141.871 198.948 142.381 194.148 142.422Z" fill="#CCCCCC"/>
<path d="M190.974 141.891C191.438 139.993 192.541 138.381 194.043 137.404C195.545 136.428 197.324 136.166 198.995 136.676C199.336 136.785 199.668 136.925 199.989 137.096L210.969 125.711L218.605 131.572L202.903 147.404C202.194 148.86 201.078 150.004 199.732 150.655C198.387 151.305 196.888 151.424 195.477 150.993C194.654 150.736 193.884 150.296 193.212 149.699C192.539 149.102 191.978 148.358 191.559 147.512C191.14 146.666 190.873 145.733 190.772 144.768C190.672 143.803 190.74 142.826 190.974 141.891Z" fill="#FFB8B8"/>
<path d="M209.23 142.036C208.517 142.036 207.827 141.756 207.276 141.241L202.945 137.21C202.585 136.874 202.295 136.449 202.098 135.968C201.902 135.486 201.804 134.96 201.811 134.429C201.818 133.898 201.931 133.376 202.14 132.901C202.35 132.427 202.651 132.012 203.02 131.689L221.181 115.82C221.397 115.631 221.538 115.353 221.574 115.046C221.611 114.739 221.539 114.428 221.376 114.181L210.167 97.297C208.864 95.342 208.211 92.925 208.323 90.474C208.434 88.023 209.303 85.6959 210.776 83.9048C212.327 81.9962 214.452 80.8216 216.727 80.6143C219.003 80.4069 221.264 81.1818 223.062 82.7853L223.133 82.8705L234.838 101.966C236.104 103.096 237.123 104.545 237.816 106.199C238.509 107.852 238.857 109.666 238.833 111.498C238.809 113.331 238.414 115.132 237.678 116.761C236.942 118.391 235.885 119.804 234.591 120.891L211.07 141.345C210.537 141.794 209.892 142.036 209.23 142.036Z" fill="#CCCCCC"/>
<path d="M185.42 44.6293V35.0934L200.362 27.6595L214.61 35.0934V44.6293C214.61 45.0444 214.465 45.4424 214.208 45.7359C213.95 46.0294 213.601 46.1943 213.236 46.1943H186.794C186.429 46.1943 186.08 46.0294 185.822 45.7359C185.565 45.4424 185.42 45.0444 185.42 44.6293Z" fill="#2F2E41"/>
<path d="M199.676 21.8319C197.479 13.8201 202.093 4.63819 208.914 1.46691C215.735 -1.70437 223.896 0.512455 229.652 5.75189C235.408 10.9913 238.979 18.839 240.871 26.9512C242.763 35.0633 243.122 43.5224 243.472 51.9067C251.852 53.6606 257.554 64.9859 254.65 74.1132C251.747 83.2405 241.001 87.775 233.58 83.0044C226.159 78.2338 224.009 65.4098 229.365 57.8592C231.9 54.2865 233.315 49.8525 233.388 45.2596C233.461 40.6666 232.187 36.1773 229.767 32.5026C227.348 28.8279 223.922 26.1779 220.031 24.9723C216.14 23.7667 212.008 24.0744 208.288 25.8467C204.158 27.8147 198.975 22.7015 199.676 21.8319Z" fill="#2F2E41"/>
<path d="M105.507 79.0989C95.4728 79.0239 85.5641 76.5514 76.421 71.8412C75.8767 71.5648 75.4148 71.1141 75.0914 70.5439C74.768 69.9737 74.5971 69.3086 74.5996 68.6297V40.1321C74.6005 39.1985 74.9265 38.3034 75.5059 37.6433C76.0853 36.9831 76.8709 36.6118 77.6904 36.6108H133.323C134.143 36.6118 134.928 36.9832 135.508 37.6433C136.087 38.3035 136.413 39.1985 136.414 40.1321V68.6298C136.417 69.3087 136.246 69.9737 135.922 70.5439C135.599 71.1141 135.137 71.5649 134.593 71.8412C125.45 76.5514 115.541 79.0239 105.507 79.0989Z" fill="#B5FBD6"/>
<path d="M105.499 56.0124C105.086 56.0128 104.678 55.9193 104.298 55.7373L60.1813 34.5314C59.6124 34.258 59.1284 33.7967 58.7917 33.2069C58.4551 32.6172 58.2812 31.9261 58.2925 31.2227C58.3038 30.5194 58.4998 29.836 58.8552 29.2607C59.2106 28.6854 59.7091 28.2446 60.2864 27.9951L104.403 8.92692C105.114 8.61839 105.899 8.6203 106.609 8.93227L150.135 28.0004C150.709 28.2519 151.204 28.6928 151.557 29.2667C151.91 29.8406 152.104 30.5215 152.115 31.2221C152.127 31.9227 151.954 32.6112 151.62 33.1996C151.286 33.7879 150.806 34.2494 150.24 34.5249L106.714 55.7304C106.33 55.9169 105.916 56.0128 105.499 56.0124Z" fill="#B5FBD6"/>
<path d="M79.7509 73.7803C82.0268 73.7803 83.8718 71.6782 83.8718 69.0852C83.8718 66.4921 82.0268 64.3901 79.7509 64.3901C77.4749 64.3901 75.6299 66.4921 75.6299 69.0852C75.6299 71.6782 77.4749 73.7803 79.7509 73.7803Z" fill="#3F3D56"/>
<path opacity="0.2" d="M150.391 31.5149L106.865 52.7204C106.526 52.8857 106.161 52.9715 105.791 52.9725C105.422 52.9735 105.057 52.8898 104.717 52.7264L60.6007 31.5211C60.0466 31.2611 59.5844 30.7983 59.287 30.2056C59.0925 30.5899 58.972 31.017 58.9334 31.4584C58.8949 31.8999 58.9392 32.3457 59.0634 32.7661C59.1876 33.1866 59.389 33.5721 59.654 33.8971C59.9191 34.2221 60.2417 34.4791 60.6007 34.6512L104.717 55.8564C105.057 56.0199 105.422 56.1036 105.791 56.1026C106.161 56.1015 106.526 56.0158 106.865 55.8505L150.391 34.645C150.748 34.4714 151.069 34.2136 151.332 33.8884C151.596 33.5633 151.795 33.1782 151.918 32.7587C152.041 32.3391 152.085 31.8946 152.046 31.4545C152.007 31.0144 151.886 30.5888 151.693 30.2056C151.397 30.7935 150.94 31.2538 150.391 31.5149Z" fill="black"/>
<path d="M80.097 69.0668C80.2791 69.0668 80.4539 68.9844 80.5827 68.8376C80.7115 68.6909 80.7838 68.4918 80.7838 68.2843V42.1002L103.436 32.6982C103.618 32.7012 103.794 32.6218 103.925 32.4772C104.056 32.3326 104.131 32.1348 104.133 31.9273C104.136 31.7198 104.066 31.5195 103.939 31.3705C103.812 31.2216 103.639 31.1362 103.457 31.1331L80.8043 40.5352C80.622 40.5304 80.4407 40.5678 80.2715 40.6452C80.1023 40.7225 79.9486 40.8382 79.8198 40.9853C79.6896 41.1305 79.5863 41.304 79.5159 41.4955C79.4456 41.687 79.4096 41.8926 79.4102 42.1002V68.2843C79.4102 68.4918 79.4825 68.6908 79.6113 68.8376C79.7401 68.9843 79.9148 69.0668 80.097 69.0668Z" fill="#3F3D56"/>
</g>
<defs>
<clipPath id="clip0_241_825">
<rect width="511" height="422" fill="white"/>
</clipPath>
</defs>
</svg>
