<svg width="425" height="343" viewBox="0 0 425 343" fill="none" xmlns="http://www.w3.org/2000/svg">
<g clip-path="url(#clip0_241_890)">
<path d="M425 184.168V328.26C424.996 332.168 423.528 335.914 420.92 338.678C418.311 341.441 414.774 342.995 411.085 343H306.742L307.711 341.701L423.774 185.818L425 184.168Z" fill="#F2F2F2"/>
<path d="M166.082 133.411H46.2671C45.2854 133.411 44.3438 133.824 43.6496 134.56C42.9554 135.295 42.5654 136.293 42.5654 137.332C42.5654 138.372 42.9554 139.37 43.6496 140.105C44.3438 140.84 45.2854 141.254 46.2671 141.254H166.082C167.064 141.254 168.005 140.84 168.7 140.105C169.394 139.37 169.784 138.372 169.784 137.332C169.784 136.293 169.394 135.295 168.7 134.56C168.005 133.824 167.064 133.411 166.082 133.411Z" fill="#E6E6E6"/>
<path d="M83.416 111.425H46.2671C45.2854 111.425 44.3438 111.838 43.6496 112.574C42.9554 113.309 42.5654 114.306 42.5654 115.346C42.5654 116.386 42.9554 117.384 43.6496 118.119C44.3438 118.854 45.2854 119.268 46.2671 119.268H83.4161C84.3978 119.268 85.3394 118.854 86.0336 118.119C86.7278 117.384 87.1178 116.386 87.1178 115.346C87.1178 114.306 86.7278 113.309 86.0336 112.574C85.3394 111.838 84.3978 111.425 83.4161 111.425H83.416Z" fill="#E6E6E6"/>
<path d="M411.085 0H13.9152C10.226 0.00470533 6.68923 1.55917 4.08058 4.32242C1.47193 7.08566 0.00444207 10.8321 0 14.7399V328.26C0.00444207 332.168 1.47193 335.914 4.08058 338.678C6.68923 341.441 10.226 342.995 13.9152 343H411.085C414.774 342.995 418.311 341.441 420.919 338.678C423.528 335.914 424.996 332.168 425 328.26V14.7399C424.996 10.8321 423.528 7.08566 420.919 4.32242C418.311 1.55917 414.774 0.00470533 411.085 0ZM423.773 328.26C423.773 330.025 423.445 331.773 422.808 333.404C422.17 335.034 421.235 336.516 420.057 337.764C418.879 339.012 417.48 340.002 415.94 340.678C414.401 341.353 412.751 341.701 411.085 341.701H13.9152C10.55 341.701 7.32257 340.285 4.94298 337.764C2.56339 335.243 1.22655 331.825 1.22655 328.26V102.429C1.22655 75.608 11.2852 49.8852 29.1897 30.9196C47.0941 11.954 71.3778 1.29924 96.6986 1.29924H411.085C412.751 1.29924 414.401 1.6469 415.94 2.32235C417.48 2.99781 418.879 3.98784 420.057 5.23593C421.235 6.48401 422.17 7.96569 422.808 9.59639C423.445 11.2271 423.773 12.9749 423.773 14.7399V328.26Z" fill="#E6E6E6"/>
<path d="M386.296 56.6915H38.7344C38.5717 56.6915 38.4157 56.623 38.3007 56.5012C38.1857 56.3794 38.1211 56.2141 38.1211 56.0418C38.1211 55.8695 38.1857 55.7043 38.3007 55.5825C38.4157 55.4607 38.5717 55.3922 38.7344 55.3922H386.296C386.459 55.3922 386.615 55.4607 386.73 55.5825C386.845 55.7043 386.91 55.8695 386.91 56.0418C386.91 56.2141 386.845 56.3794 386.73 56.5012C386.615 56.623 386.459 56.6915 386.296 56.6915Z" fill="#E6E6E6"/>
<path d="M56.1237 37.1896C58.988 37.1896 61.31 34.6752 61.31 31.5735C61.31 28.4719 58.988 25.9575 56.1237 25.9575C53.2595 25.9575 50.9375 28.4719 50.9375 31.5735C50.9375 34.6752 53.2595 37.1896 56.1237 37.1896Z" fill="#E6E6E6"/>
<path d="M74.0397 37.1896C76.904 37.1896 79.226 34.6752 79.226 31.5735C79.226 28.4719 76.904 25.9575 74.0397 25.9575C71.1755 25.9575 68.8535 28.4719 68.8535 31.5735C68.8535 34.6752 71.1755 37.1896 74.0397 37.1896Z" fill="#E6E6E6"/>
<path d="M91.9558 37.1896C94.82 37.1896 97.142 34.6752 97.142 31.5735C97.142 28.4719 94.82 25.9575 91.9558 25.9575C89.0915 25.9575 86.7695 28.4719 86.7695 31.5735C86.7695 34.6752 89.0915 37.1896 91.9558 37.1896Z" fill="#E6E6E6"/>
<path d="M112.385 36.0123C112.304 36.0124 112.223 35.9952 112.147 35.9616C112.072 35.9281 112.004 35.8789 111.947 35.8169L108.447 32.0277C108.335 31.9063 108.272 31.7433 108.272 31.5734C108.272 31.4036 108.335 31.2406 108.447 31.1192L111.947 27.3303C112.003 27.2683 112.07 27.2188 112.144 27.1845C112.219 27.1502 112.299 27.1318 112.38 27.1305C112.461 27.1291 112.541 27.1447 112.616 27.1765C112.692 27.2083 112.76 27.2556 112.818 27.3156C112.876 27.3756 112.922 27.4472 112.954 27.5262C112.986 27.6052 113.002 27.6901 113.003 27.776C113.003 27.8618 112.988 27.9469 112.957 28.0263C112.926 28.1058 112.881 28.178 112.824 28.2387L109.744 31.5734L112.824 34.9085C112.908 34.9999 112.965 35.1156 112.988 35.2413C113.01 35.3669 112.997 35.4967 112.95 35.6146C112.904 35.7325 112.825 35.8331 112.724 35.9038C112.624 35.9746 112.506 36.0123 112.385 36.0123Z" fill="#E6E6E6"/>
<path d="M118.266 36.0123C118.145 36.0123 118.027 35.9745 117.926 35.9038C117.826 35.833 117.747 35.7324 117.7 35.6146C117.654 35.4967 117.641 35.3668 117.663 35.2412C117.686 35.1156 117.743 34.9999 117.827 34.9084L120.907 31.5734L117.827 28.2387C117.715 28.1152 117.654 27.9499 117.657 27.7787C117.659 27.6075 117.725 27.4443 117.841 27.3246C117.956 27.2049 118.112 27.1384 118.274 27.1394C118.435 27.1405 118.59 27.2091 118.704 27.3303L122.203 31.1192C122.315 31.2405 122.378 31.4036 122.378 31.5734C122.378 31.7432 122.315 31.9063 122.203 32.0277L118.704 35.8169C118.647 35.8788 118.579 35.928 118.503 35.9616C118.428 35.9952 118.347 36.0124 118.266 36.0123Z" fill="#E6E6E6"/>
<path d="M355.302 26.6078H348.795C348.619 26.6077 348.444 26.6445 348.281 26.716C348.118 26.7874 347.97 26.8922 347.845 27.0243C347.721 27.1565 347.622 27.3133 347.554 27.486C347.487 27.6586 347.452 27.8436 347.452 28.0305V34.9294C347.452 35.1163 347.487 35.3013 347.554 35.4739C347.622 35.6466 347.721 35.8034 347.845 35.9355C347.97 36.0677 348.118 36.1724 348.281 36.2439C348.444 36.3154 348.619 36.3522 348.795 36.3521H355.302C355.659 36.3525 356.001 36.2029 356.254 35.9362C356.507 35.6695 356.65 35.3075 356.651 34.9294V28.0305C356.65 27.6524 356.507 27.2904 356.254 27.0237C356.001 26.757 355.659 26.6074 355.302 26.6078Z" fill="#E6E6E6"/>
<path d="M339.358 26.6078H332.851C332.674 26.6077 332.5 26.6445 332.337 26.716C332.174 26.7874 332.026 26.8922 331.901 27.0243C331.776 27.1565 331.677 27.3133 331.61 27.486C331.542 27.6586 331.508 27.8436 331.508 28.0305V34.9294C331.508 35.1163 331.542 35.3013 331.61 35.4739C331.677 35.6466 331.776 35.8034 331.901 35.9355C332.026 36.0677 332.174 36.1724 332.337 36.2439C332.5 36.3154 332.674 36.3522 332.851 36.3521H339.358C339.715 36.3525 340.057 36.2029 340.31 35.9362C340.563 35.6695 340.706 35.3075 340.707 34.9294V28.0305C340.706 27.6524 340.563 27.2904 340.31 27.0237C340.057 26.757 339.715 26.6074 339.358 26.6078Z" fill="#E6E6E6"/>
<path d="M370.327 26.9325H363.821C363.644 26.9324 363.47 26.9692 363.307 27.0407C363.144 27.1121 362.996 27.2169 362.871 27.3491C362.746 27.4812 362.647 27.638 362.58 27.8107C362.512 27.9833 362.477 28.1683 362.478 28.3552V35.2541C362.477 35.441 362.512 35.626 362.58 35.7986C362.647 35.9713 362.746 36.1281 362.871 36.2602C362.996 36.3924 363.144 36.4972 363.307 36.5686C363.47 36.6401 363.644 36.6769 363.821 36.6768H370.327C370.684 36.6772 371.027 36.5276 371.28 36.2609C371.533 35.9942 371.675 35.6322 371.677 35.2541V28.3552C371.675 27.9771 371.533 27.6151 371.28 27.3484C371.027 27.0817 370.684 26.9321 370.327 26.9325Z" fill="#E6E6E6"/>
<path d="M238.521 29.557H186.51C186.075 29.557 185.659 29.7397 185.352 30.065C185.045 30.3903 184.872 30.8315 184.872 31.2915C184.872 31.7515 185.045 32.1927 185.352 32.518C185.659 32.8432 186.075 33.026 186.51 33.026H238.521C238.956 33.026 239.372 32.8432 239.679 32.518C239.986 32.1927 240.159 31.7515 240.159 31.2915C240.159 30.8315 239.986 30.3903 239.679 30.065C239.372 29.7397 238.956 29.557 238.521 29.557Z" fill="#E6E6E6"/>
<path d="M99.1095 266.635L68.006 265.593C63.6921 265.449 58.841 265.456 55.764 267.818C52.2719 270.498 52.8006 275.246 55.7001 278.326C58.5995 281.406 63.2292 283.166 67.7732 284.596C91.9141 292.197 118.631 293.74 144.573 292.02C170.515 290.3 195.923 285.439 221.205 280.593C223.603 280.134 226.321 279.472 227.299 277.705C228.245 275.995 227.007 273.933 225.084 272.827C223.162 271.722 220.724 271.35 218.373 271.021C175.783 265.092 132.732 263.792 89.8915 267.139" fill="#B5FBD6"/>
<path d="M154.993 241.295V233.5C149.653 233.58 130.542 233.442 125.556 233.5C125.185 260.746 122.911 255.409 143.984 255.515C144.952 255.519 145.88 255.928 146.564 256.655C147.248 257.381 147.633 258.365 147.634 259.391V259.508C147.634 260.535 147.249 261.521 146.563 262.248C145.877 262.974 144.946 263.382 143.976 263.382H125.556V271.178H154.993C155.035 271.152 154.964 263.651 154.993 263.382C156.238 240.798 153.775 248.921 135.88 248.015C135.08 247.972 134.325 247.604 133.773 246.988C133.222 246.372 132.914 245.555 132.915 244.706V244.608C132.915 243.73 133.245 242.887 133.831 242.266C134.418 241.644 135.213 241.295 136.043 241.295H154.993Z" fill="#3F3D56"/>
<path d="M191.176 241.295V233.5C185.835 233.58 166.724 233.442 161.739 233.5C161.364 260.982 159.054 255.313 180.721 255.519C181.545 255.528 182.332 255.881 182.912 256.501C183.492 257.121 183.817 257.959 183.817 258.832C183.817 259.241 183.817 259.66 183.817 260.07C183.817 260.505 183.736 260.936 183.579 261.338C183.421 261.74 183.191 262.105 182.901 262.413C182.61 262.72 182.265 262.964 181.886 263.13C181.506 263.297 181.1 263.383 180.689 263.382H161.739V271.178H191.176C191.217 271.152 191.146 263.651 191.176 263.382C192.421 240.798 189.958 248.921 172.063 248.015C171.262 247.972 170.508 247.604 169.956 246.988C169.404 246.372 169.097 245.555 169.098 244.706V244.608C169.098 243.73 169.428 242.887 170.014 242.266C170.601 241.644 171.396 241.295 172.226 241.295H191.176Z" fill="#3F3D56"/>
<path d="M116.97 241.295V233.5H87.5326C87.5117 240.453 87.5476 258.856 87.5325 265.981C81.7623 276.328 114.543 269.164 116.971 271.181C116.97 271.178 116.97 263.382 116.97 263.382C94.5723 263.259 94.0095 267.7 94.73 246.213C94.7733 244.894 95.2984 243.644 96.1945 242.726C97.0907 241.809 98.288 241.296 99.5342 241.295C106.009 241.295 116.97 241.295 116.97 241.295Z" fill="#3F3D56"/>
<path d="M175.156 173.522L144.053 172.654C139.739 172.533 134.888 172.539 131.811 174.508C128.319 176.742 128.847 180.7 131.747 183.268C134.646 185.835 139.276 187.302 143.82 188.494C167.961 194.83 194.678 196.116 220.62 194.683C246.562 193.249 271.97 189.196 297.252 185.157C299.65 184.774 302.368 184.223 303.346 182.75C304.292 181.324 303.054 179.605 301.131 178.684C299.209 177.763 296.771 177.452 294.42 177.178C251.757 172.234 208.775 171.152 165.938 173.942" fill="#B5FBD6"/>
<path d="M169.711 139.305C169.21 151.34 173.386 155.128 158.978 153.595C158.005 146.415 162.941 136.452 151.62 138.981C153.888 144.19 145.302 183.704 158.977 176.656C159.745 164.784 154.683 159.577 169.712 161.393C170.917 168.732 165.292 179.532 177.07 176.982C174.803 171.771 183.389 132.26 169.711 139.305Z" fill="#3F3D56"/>
<path d="M245.144 139.305C246.155 139.965 235.89 151.468 235.668 152.411C235.36 151.606 225.563 140.352 226.746 139.305C213.113 132.169 221.61 171.913 219.384 176.985C219.387 176.983 226.746 176.983 226.746 176.983V152.298C237.09 167.077 235.169 164.59 245.145 151.573L245.144 176.983C258.777 184.121 250.281 144.373 252.506 139.303C252.504 139.305 245.144 139.305 245.144 139.305Z" fill="#3F3D56"/>
<path d="M212.641 139.305H183.204C181.474 150.233 187.194 146.568 194.244 147.1L194.243 176.983H201.602V147.1C208.62 146.595 214.393 150.185 212.641 139.305Z" fill="#3F3D56"/>
<path d="M265.996 169.187C264.296 159.308 264.296 149.184 265.996 139.305H258.637C258.679 144.244 258.624 164.174 258.628 173.288C258.628 174.271 258.996 175.215 259.652 175.911C260.309 176.607 261.199 176.998 262.127 176.999C269.542 177.009 283.696 176.951 288.074 176.983L288.074 169.187H265.996Z" fill="#3F3D56"/>
<path d="M77.9969 170.487H48.0849C46.6211 170.487 45.2171 171.103 44.182 172.199C43.1469 173.295 42.5654 174.783 42.5654 176.333C42.5654 177.884 43.1469 179.371 44.182 180.467C45.2171 181.564 46.6211 182.18 48.0849 182.18H77.9969C79.4608 182.18 80.8647 181.564 81.8998 180.467C82.9349 179.371 83.5164 177.884 83.5164 176.333C83.5164 174.783 82.9349 173.295 81.8998 172.199C80.8647 171.103 79.4608 170.487 77.9969 170.487H77.9969Z" fill="#E6E6E6"/>
<path d="M349.194 336.223L343.122 336.222L340.233 311.413L349.195 311.414L349.194 336.223Z" fill="#FFB6B6"/>
<path d="M349.408 342.933L330.735 342.932V342.682C330.735 340.64 331.501 338.682 332.864 337.239C334.227 335.795 336.076 334.984 338.003 334.984H338.004L341.414 332.243L347.778 334.984L349.408 334.984L349.408 342.933Z" fill="#2F2E41"/>
<path d="M370.659 336.223L364.587 336.222L361.698 311.413L370.66 311.414L370.659 336.223Z" fill="#FFB6B6"/>
<path d="M370.873 342.933L352.2 342.932V342.682C352.2 340.64 352.966 338.682 354.329 337.239C355.692 335.795 357.541 334.984 359.468 334.984H359.468L362.879 332.243L369.243 334.984L370.873 334.984L370.873 342.933Z" fill="#2F2E41"/>
<path d="M334.075 201.045C334.075 201.045 328.233 220.052 329.312 222.553C330.39 225.055 332.23 223.106 330.39 225.055C328.55 227.004 326.944 224.932 328.667 228.242C330.39 231.551 333 258.796 334.148 260.115C335.296 261.434 336.875 261.469 335.472 262.751C334.07 264.032 332.23 261.434 334.07 264.032C335.909 266.631 340.792 326.575 340.792 326.575H350.329C350.329 326.575 352.704 323.674 351.359 321.787C350.015 319.899 351.477 319.172 351.359 317.912C351.241 316.651 351.689 313.934 351.772 312.694C351.855 311.454 353.466 281.917 349.594 264.854L356.655 232.365L360.186 271.632C360.186 271.632 356.251 304.569 360.186 315.158C360.186 315.158 357.014 317.956 358.42 319.577C359.827 321.199 361.054 319.899 359.827 321.199C358.601 322.498 361.667 327.045 361.667 327.045L372.093 326.396L377.994 264.854C377.994 264.854 378.988 258.436 377.994 257.336C376.999 256.237 376.999 260.134 376.999 256.237V251.04C376.999 251.04 381.446 219.075 381.369 217.193C381.292 215.31 373.933 201.668 373.933 201.668L334.075 201.045Z" fill="#2F2E41"/>
<path d="M364.91 124.173L349.687 123.064L345.132 130.673L334.161 135.397V172.877C335.303 176.506 335.893 180.304 335.909 184.129C335.867 191.596 334.055 200.392 334.682 202.318C340.815 221.157 374.545 202.318 374.545 202.318L373.932 182.18L374.765 136.668L367.872 130.845L364.91 124.173Z" fill="#E6E6E6"/>
<path d="M333.458 209.181L332.408 197.331L325.934 197.022L327.464 209.508C327.072 210.122 326.848 210.839 326.819 211.58C326.791 212.32 326.957 213.055 327.301 213.7C327.645 214.346 328.151 214.877 328.764 215.235C329.378 215.592 330.073 215.761 330.771 215.723C331.47 215.685 332.145 215.441 332.72 215.019C333.295 214.596 333.748 214.013 334.027 213.333C334.306 212.653 334.401 211.905 334.3 211.171C334.199 210.438 333.908 209.748 333.457 209.181L333.458 209.181Z" fill="#FFB6B6"/>
<path d="M336.644 134.398L336.465 134.43C334.795 134.73 333.22 135.456 331.875 136.546C330.53 137.636 329.456 139.056 328.747 140.685C326.893 144.932 320.872 172.852 323.511 177.062C325.558 180.328 325.061 179.691 324.099 182.154C323.137 184.617 321.587 181.989 322.857 185.898C324.127 189.808 325.523 189.25 324.344 190.76C323.165 192.271 321.956 191.975 323.102 194.505C324.249 197.034 324.062 197.888 324.279 198.841C324.496 199.794 324.307 206.495 324.307 206.495C324.307 206.495 331.223 205.939 334.664 207.681C334.664 207.681 332.744 200.914 333.83 199.83C334.915 198.747 336.218 198.616 335.288 197.039C334.358 195.462 332.25 195.395 334.545 194.608C336.84 193.82 336.101 179.695 336.101 179.695C339.88 169.21 338.387 151.964 336.644 134.398Z" fill="#E6E6E6"/>
<path d="M378.343 210.027L378.827 198.136L385.278 197.481L384.344 210.033C384.766 210.625 385.023 211.33 385.087 212.068C385.151 212.806 385.019 213.548 384.707 214.211C384.395 214.875 383.914 215.432 383.319 215.822C382.723 216.212 382.037 216.418 381.338 216.417C380.638 216.416 379.952 216.208 379.358 215.818C378.763 215.427 378.283 214.868 377.972 214.204C377.661 213.54 377.531 212.797 377.597 212.059C377.662 211.321 377.921 210.617 378.343 210.027Z" fill="#FFB6B6"/>
<path d="M371.6 135.509L371.78 135.532C373.462 135.742 375.07 136.383 376.465 137.399C377.86 138.416 379 139.778 379.786 141.366C381.84 145.509 388.338 173.567 386.747 177.417C385.264 181.008 385.325 180.125 386.403 182.534C387.481 184.943 388.904 182.235 387.822 186.207C386.739 190.179 385.319 189.697 386.568 191.143C387.818 192.588 389.011 192.228 387.987 194.816C386.962 197.403 387.189 198.246 387.018 199.209C386.847 200.172 387.354 206.855 387.354 206.855C387.354 206.855 380.421 206.669 377.067 208.593C377.067 208.593 378.662 201.732 377.526 200.708C376.391 199.684 375.083 199.622 375.937 197.998C376.79 196.373 378.893 196.194 376.564 195.53C374.234 194.866 374.3 180.72 374.3 180.72L371.6 135.509Z" fill="#E6E6E6"/>
<path d="M357.673 120.682C364.231 120.682 369.548 115.05 369.548 108.104C369.548 101.157 364.231 95.5256 357.673 95.5256C351.115 95.5256 345.799 101.157 345.799 108.104C345.799 115.05 351.115 120.682 357.673 120.682Z" fill="#FFB6B6"/>
<path d="M365.936 118.87C367.588 117.501 367.748 114.892 369.157 113.247C371.513 110.496 372.62 107.537 371.386 104.279C370.294 101.396 370.527 97.853 368.175 95.9976C369.33 95.5548 369.602 94.6352 368.583 94.6182C367.896 94.6068 365.334 95.9979 366.567 94.2649C367.799 92.532 365.466 93.2161 365.62 92.5067C365.775 91.7974 366.764 91.4045 367.201 91.9668C366.832 91.5681 366.383 91.2639 365.886 91.0773C365.39 90.8908 364.86 90.8267 364.337 90.8901C363.813 90.9535 363.311 91.1427 362.867 91.4432C362.423 91.7437 362.05 92.1476 361.776 92.6241C360.387 90.4193 358.913 88.9023 356.788 90.3014C354.7 91.6756 354.728 93.3742 352.483 92.966C351.428 92.7741 351.328 94.8858 350.607 95.7243C350.274 96.1699 349.841 96.5202 349.347 96.7432C348.854 96.9662 348.315 97.0549 347.781 97.0011C346.729 96.7905 345.924 95.4018 346.514 94.4551L344.034 100.447L343.035 99.1486C341.447 100.245 341.969 103.105 343.567 104.184C345.165 105.263 347.242 105.032 349.083 104.554C351.299 103.978 353.586 103.777 355.861 103.958C359.336 104.478 361.756 108.879 360.469 112.338C361.804 110.949 364.274 112.101 364.966 113.943C365.658 115.785 365.15 117.86 364.638 119.766" fill="#2F2E41"/>
</g>
<defs>
<clipPath id="clip0_241_890">
<rect width="425" height="343" fill="white"/>
</clipPath>
</defs>
</svg>
