<svg width="394" height="369" viewBox="0 0 394 369" fill="none" xmlns="http://www.w3.org/2000/svg">
<g clip-path="url(#clip0_241_861)">
<path d="M373.382 343.845C373.382 357.737 289.798 369 186.691 369C83.5833 369 0 357.737 0 343.845C0 334.01 41.897 325.49 102.957 321.357C128.136 319.648 156.585 318.69 186.691 318.69C199.067 318.69 211.159 318.852 222.855 319.161C308.654 321.433 373.382 331.619 373.382 343.845Z" fill="#3F3D56"/>
<path opacity="0.1" d="M162.602 348.984C202.181 348.984 234.267 345.472 234.267 341.14C234.267 336.808 202.181 333.296 162.602 333.296C123.022 333.296 90.9365 336.808 90.9365 341.14C90.9365 345.472 123.022 348.984 162.602 348.984Z" fill="black"/>
<path d="M162.301 346.82C199.718 346.82 230.051 317.757 230.051 281.905C230.051 246.052 199.718 216.989 162.301 216.989C124.883 216.989 94.5498 246.052 94.5498 281.905C94.5498 317.757 124.883 346.82 162.301 346.82Z" fill="#3F3D56"/>
<path d="M183.68 320.313H141.524V354.935H183.68V320.313Z" fill="#B5FBD6"/>
<path d="M238.783 328.698L236.375 340.599L252.032 342.763L262.27 337.354L261.668 328.698H238.783Z" fill="#575A89"/>
<path d="M159.892 105.279C159.892 105.279 158.687 117.721 155.676 118.262C152.665 118.803 162.301 140.442 162.301 140.442H176.754L188.196 137.737L182.776 125.836C182.776 125.836 175.55 117.18 180.97 110.148C186.39 103.115 159.892 105.279 159.892 105.279Z" fill="#A0616A"/>
<path opacity="0.1" d="M159.892 105.279C159.892 105.279 158.687 117.721 155.676 118.262C152.665 118.803 162.301 140.442 162.301 140.442H176.754L188.196 137.737L182.776 125.836C182.776 125.836 175.55 117.18 180.97 110.148C186.39 103.115 159.892 105.279 159.892 105.279Z" fill="black"/>
<path d="M129.78 200.489C129.78 200.489 114.123 227.537 126.769 232.947C139.416 238.357 142.427 237.816 142.427 239.439C142.427 241.062 140.018 240.521 141.223 243.225C142.427 245.93 138.814 256.75 142.427 263.241C146.041 269.733 144.836 274.601 144.836 274.601C144.836 274.601 144.836 275.142 146.041 277.306C147.245 279.47 147.847 281.093 147.245 282.175C146.643 283.257 143.03 290.289 146.643 291.912C150.256 293.535 168.925 294.617 170.732 291.912C172.539 289.208 168.925 287.585 170.732 285.962C172.539 284.339 173.743 283.798 172.539 282.716C171.334 281.634 170.13 268.11 170.13 268.11C170.13 268.11 173.141 252.422 171.936 250.258C170.732 248.094 168.925 245.93 170.13 244.307C171.334 242.684 172.539 243.225 173.141 241.062C173.743 238.898 174.948 234.029 174.948 234.029L181.572 233.488L197.23 236.193C197.23 236.193 214.695 253.504 233.966 258.913C233.966 258.913 239.386 263.782 241.193 263.782C242.999 263.782 242.999 263.782 242.397 264.864C241.795 265.946 239.988 265.946 241.193 267.028C242.397 268.11 244.204 266.487 242.999 268.11C241.795 269.733 240.591 269.733 241.795 270.815C242.999 271.897 241.193 277.847 241.193 278.388C241.193 278.929 235.773 329.78 237.579 330.862C239.386 331.944 264.68 335.19 266.486 330.862C268.293 326.534 265.282 321.125 265.282 321.125C265.282 321.125 274.315 256.209 271.906 251.881C269.498 247.553 261.066 228.078 215.899 215.636C215.899 215.636 203.252 213.472 203.252 211.849C203.252 210.227 202.048 199.948 199.639 199.407C197.23 198.866 183.379 198.325 183.379 198.325L165.914 203.194L141.825 199.407L129.78 200.489Z" fill="#2F2E41"/>
<path d="M150.858 291.371L147.847 301.109C147.847 301.109 145.438 316.797 148.45 320.584C150.815 323.558 155.038 327.2 162.87 327.839C165.065 328.02 167.262 327.522 169.1 326.429C170.937 325.335 172.304 323.711 172.974 321.825C173.064 321.599 173.12 321.364 173.141 321.125C173.141 320.043 171.334 307.059 171.334 307.059L168.323 293.535L167.721 289.749L150.858 291.371Z" fill="#2F2E41"/>
<path d="M238.784 337.894C238.784 337.894 235.773 335.19 235.17 337.894C234.568 340.599 232.159 351.96 236.375 352.501C240.59 353.042 280.94 358.451 285.155 356.287C289.371 354.123 297.2 350.878 292.382 349.255C287.564 347.632 273.713 342.763 273.713 342.763C273.713 342.763 265.884 333.567 264.68 333.026C263.475 332.485 256.851 333.567 253.839 335.731C250.828 337.894 238.784 337.894 238.784 337.894Z" fill="#2F2E41"/>
<path d="M174.345 116.639C184.656 116.639 193.014 109.131 193.014 99.8695C193.014 90.6078 184.656 83.0996 174.345 83.0996C164.035 83.0996 155.676 90.6078 155.676 99.8695C155.676 109.131 164.035 116.639 174.345 116.639Z" fill="#A0616A"/>
<path d="M172.538 137.737L165.312 130.705L157.301 116.64C157.301 116.64 151.46 115.017 150.256 117.722C149.051 120.426 127.371 129.082 127.371 129.082C127.371 129.082 132.791 174.523 130.382 178.851C127.973 183.178 123.758 200.489 127.371 202.112C130.985 203.735 147.847 202.112 153.267 204.276C158.687 206.44 174.345 206.44 178.561 203.735C182.776 201.03 183.981 198.866 188.196 200.489C191.785 201.871 200.175 154.636 202.591 140.561C202.794 139.378 202.625 138.169 202.103 137.068C201.58 135.968 200.725 135.021 199.635 134.334C194.231 130.929 184.499 125.062 182.776 125.836C180.367 126.918 172.538 137.737 172.538 137.737Z" fill="#575A89"/>
<path d="M198.434 135.573C199.849 135.891 201.121 136.59 202.08 137.576C203.039 138.562 203.64 139.788 203.801 141.089L208.672 180.474C208.672 180.474 196.628 203.735 190.605 188.047C184.583 172.359 198.434 135.573 198.434 135.573Z" fill="#575A89"/>
<path d="M197.23 184.26L210.479 181.014C210.479 181.014 212.888 196.161 215.297 196.161C217.706 196.161 206.865 204.817 201.445 203.735C196.025 202.653 188.196 198.866 187.594 196.161C186.992 193.457 193.014 182.096 193.014 182.096L197.23 184.26Z" fill="#575A89"/>
<path d="M160.252 107.104C161.522 104.59 161.301 101.657 162.351 99.0616C162.913 97.6721 163.825 96.4182 165.015 95.3977C166.206 94.3772 167.644 93.6178 169.215 93.1789C170.787 92.7399 172.45 92.6333 174.075 92.8673C175.7 93.1014 177.243 93.6697 178.583 94.528C179.933 95.3926 181.286 96.6075 182.934 96.4424C184.709 96.2647 186.292 94.4863 187.923 95.1381C189.731 95.8604 189.243 98.7716 191.075 99.444C192.04 99.7979 193.179 99.253 193.735 98.4618C194.222 97.6303 194.487 96.7089 194.51 95.7698C194.762 93.4626 194.991 91.0207 193.877 88.9294C193.408 88.2205 193 87.4809 192.655 86.7168C192.461 86.0033 192.382 85.2681 192.423 84.5344C192.413 81.8225 192.193 78.9937 190.673 76.6503C188.987 74.0498 185.871 72.3869 182.62 71.6613C179.368 70.9357 175.962 71.047 172.624 71.3009C167.105 71.7205 161.35 72.62 157.003 75.7016C156.412 76.0894 155.903 76.5694 155.501 77.1187C155.12 77.7712 154.85 78.4719 154.701 79.1968C153.761 82.6352 152.352 85.9562 150.505 89.0841C149.617 90.4101 148.891 91.8186 148.34 93.285C147.879 94.775 147.91 96.4731 148.875 97.7538C149.661 98.7965 150.917 99.3521 151.904 100.205C152.882 101.049 153.34 102.674 154.423 103.313C155.369 103.872 156.501 103.478 157.466 104.069C158.704 104.829 158.794 106.495 160.252 107.104Z" fill="#2F2E41"/>
<path d="M175.55 145.852L177.356 142.606C177.356 142.606 203.855 149.638 209.275 156.13C209.275 156.13 222.524 148.556 229.75 149.638L236.977 150.72L214.695 168.572L186.39 166.408L175.55 145.852Z" fill="#F2F2F2"/>
<path d="M174.345 142.606L149.654 173.441L185.185 189.129C185.185 189.129 188.507 190.752 191.062 189.129L214.695 179.392L236.977 150.72L214.695 160.999C214.695 160.999 212.286 156.671 207.468 158.835L174.345 142.606Z" fill="#B5FBD6"/>
<path d="M212.286 197.243L217.103 185.883C217.103 185.883 227.944 173.441 221.921 167.49C215.899 161.54 209.274 184.801 209.274 184.801L212.286 197.243Z" fill="#A0616A"/>
<path d="M156.699 195.43L167.211 187.775C167.211 187.775 183.538 181.897 181.652 174.036C179.766 166.174 161.043 183.311 161.043 183.311L156.699 195.43Z" fill="#A0616A"/>
<path opacity="0.1" d="M130.684 140.713H130.082C130.082 140.713 120.747 130.705 118.94 144.229C117.134 157.753 111.111 202.653 126.769 204.276C142.427 205.899 153.568 197.514 153.568 197.514C153.568 197.514 165.011 181.826 160.795 181.826C158.756 181.826 153.208 181.003 148.148 181.285C142.751 181.586 137.901 182.952 138.212 181.555C138.814 178.851 147.546 144.499 130.684 140.713Z" fill="black"/>
<path d="M129.78 130.164L127.371 129.082C127.371 129.082 117.736 130.705 115.929 144.229C114.122 157.753 108.1 202.653 123.758 204.276C139.416 205.899 160.494 202.112 160.494 202.112C160.494 202.112 164.71 181.555 160.494 181.555C156.278 181.555 134.598 184.26 135.2 181.555C135.803 178.851 146.643 133.95 129.78 130.164Z" fill="#575A89"/>
<path d="M203.553 191.023L210.194 181.88L214.393 196.973L203.553 201.301V191.023Z" fill="#575A89"/>
<path d="M67.1322 60.6495C76.1125 60.6495 83.3924 54.1102 83.3924 46.0435C83.3924 37.9767 76.1125 31.4374 67.1322 31.4374C58.152 31.4374 50.8721 37.9767 50.8721 46.0435C50.8721 54.1102 58.152 60.6495 67.1322 60.6495Z" fill="#F2F2F2"/>
<path d="M86.4035 154.778H47.8608V189.399H86.4035V154.778Z" fill="#F2F2F2"/>
<path d="M224.029 0L233.784 15.1779L243.539 30.3557H224.029H204.519L214.273 15.1779L224.029 0Z" fill="#F2F2F2"/>
<path d="M394 91.0061C393.767 97.4816 392.012 102.672 388.734 106.577C385.455 110.483 381.561 112.435 377.05 112.436C373.375 112.436 370.155 110.525 367.388 106.702C364.621 102.88 363.237 97.0005 363.238 89.0636C363.238 87.3092 363.284 85.6382 363.377 84.0508C363.47 82.4638 363.586 80.9599 363.726 79.5393L366.168 58.9242H350.054C347.264 84.9907 344.973 100.499 343.183 105.449C341.392 110.399 338.358 112.874 334.08 112.874C332.149 112.832 330.306 112.138 328.918 110.932C328.113 110.291 327.476 109.498 327.054 108.609C326.632 107.721 326.435 106.759 326.476 105.794C326.476 103.873 328.162 101.189 331.534 97.742C334.905 94.2957 336.777 91.1523 337.149 88.3117L341.334 58.9242H334.568C332.661 58.9344 330.783 59.3533 329.092 60.146C327.536 60.7882 326.181 61.7679 325.151 62.997L322.151 67.0073H319.71C321.988 60.6581 324.79 55.8855 328.116 52.6895C331.44 49.4938 335.265 47.896 339.59 47.896H392.884V58.9242H374.887C374.329 63.937 373.899 68.9498 373.597 73.9625C373.294 78.9753 373.143 84.009 373.143 89.0636C373.143 92.4894 374.027 95.2673 375.794 97.3974C377.561 99.5279 379.77 100.593 382.421 100.593C384.048 100.593 385.757 99.9977 387.548 98.8071C388.398 98.2713 389.11 97.5768 389.633 96.7711C390.157 95.9654 390.481 95.0676 390.582 94.1391C390.722 93.2206 390.826 92.5 390.896 91.9773C390.966 91.4554 391.001 91.1317 391.001 91.006L394 91.0061Z" fill="#B5FBD6"/>
<path opacity="0.1" d="M394 91.0061C393.767 97.4816 392.012 102.672 388.734 106.577C385.455 110.483 381.561 112.435 377.05 112.436C373.375 112.436 370.155 110.525 367.388 106.702C364.621 102.88 363.237 97.0005 363.238 89.0636C363.238 87.3092 363.284 85.6382 363.377 84.0508C363.47 82.4638 363.586 80.9599 363.726 79.5393L366.168 58.9242H350.054C347.264 84.9907 344.973 100.499 343.183 105.449C341.392 110.399 338.358 112.874 334.08 112.874C332.149 112.832 330.306 112.138 328.918 110.932C328.113 110.291 327.476 109.498 327.054 108.609C326.632 107.721 326.435 106.759 326.476 105.794C326.476 103.873 328.162 101.189 331.534 97.742C334.905 94.2957 336.777 91.1523 337.149 88.3117L341.334 58.9242H334.568C332.661 58.9344 330.783 59.3533 329.092 60.146C327.536 60.7882 326.181 61.7679 325.151 62.997L322.151 67.0073H319.71C321.988 60.6581 324.79 55.8855 328.116 52.6895C331.44 49.4938 335.265 47.896 339.59 47.896H392.884V58.9242H374.887C374.329 63.937 373.899 68.9498 373.597 73.9625C373.294 78.9753 373.143 84.009 373.143 89.0636C373.143 92.4894 374.027 95.2673 375.794 97.3974C377.561 99.5279 379.77 100.593 382.421 100.593C384.048 100.593 385.757 99.9977 387.548 98.8071C388.398 98.2713 389.11 97.5768 389.633 96.7711C390.157 95.9654 390.481 95.0676 390.582 94.1391C390.722 93.2206 390.826 92.5 390.896 91.9773C390.966 91.4554 391.001 91.1317 391.001 91.006L394 91.0061Z" fill="black"/>
<path d="M394 89.0483C393.767 95.5238 392.012 100.714 388.734 104.619C385.455 108.525 381.561 110.478 377.05 110.478C373.375 110.478 370.155 108.567 367.388 104.745C364.621 100.922 363.237 95.0427 363.238 87.1059C363.238 85.3514 363.284 83.6805 363.377 82.093C363.47 80.506 363.586 79.0022 363.726 77.5816L366.168 56.9664H350.054C347.264 83.0329 344.973 98.5413 343.183 103.491C341.392 108.441 338.358 110.917 334.08 110.917C332.149 110.874 330.306 110.181 328.918 108.974C328.113 108.334 327.476 107.54 327.054 106.652C326.632 105.763 326.435 104.801 326.476 103.836C326.476 101.915 328.162 99.2313 331.534 95.7843C334.905 92.3379 336.777 89.1945 337.149 86.354L341.334 56.9664H334.568C332.661 56.9767 330.783 57.3955 329.092 58.1882C327.536 58.8304 326.181 59.8101 325.151 61.0392L322.151 65.0495H319.71C321.988 58.7003 324.79 53.9277 328.116 50.7317C331.44 47.536 335.265 45.9382 339.59 45.9382H392.884V56.9664H374.887C374.329 61.9792 373.899 66.992 373.597 72.0047C373.294 77.0176 373.143 82.0513 373.143 87.1059C373.143 90.5316 374.027 93.3096 375.794 95.4397C377.561 97.5701 379.77 98.6353 382.421 98.6353C384.048 98.6353 385.757 98.04 387.548 96.8494C388.398 96.3136 389.11 95.6191 389.633 94.8134C390.157 94.0077 390.481 93.1098 390.582 92.1813C390.722 91.2629 390.826 90.5423 390.896 90.0196C390.966 89.4977 391.001 89.174 391.001 89.0483H394Z" fill="#B5FBD6"/>
</g>
<defs>
<clipPath id="clip0_241_861">
<rect width="394" height="369" fill="white"/>
</clipPath>
</defs>
</svg>
