<svg width="446" height="288" viewBox="0 0 446 288" fill="none" xmlns="http://www.w3.org/2000/svg">
<g clip-path="url(#clip0_241_928)">
<path d="M410.602 282.454L403.943 282.453L400.776 262.653H410.603L410.602 282.454Z" fill="#9E616A"/>
<path d="M412.3 287.43L390.83 287.429V287.22C390.83 285.511 391.711 283.872 393.278 282.664C394.845 281.456 396.971 280.777 399.187 280.777H399.187L412.301 280.778L412.3 287.43Z" fill="#2F2E41"/>
<path d="M385.075 282.454L378.416 282.453L375.249 262.653H385.076L385.075 282.454Z" fill="#9E616A"/>
<path d="M386.773 287.43L365.303 287.429V287.22C365.303 285.511 366.183 283.872 367.751 282.664C369.318 281.456 371.443 280.777 373.66 280.777H373.66L386.773 280.778L386.773 287.43Z" fill="#2F2E41"/>
<path d="M97.4004 286.664V127.628C97.4004 126.648 97.9051 125.709 98.8035 125.016C99.7019 124.324 100.92 123.935 102.191 123.935H123.568C124.839 123.935 126.057 124.324 126.956 125.016C127.854 125.709 128.359 126.648 128.359 127.628V287.078L97.4004 286.664Z" fill="#3F3D56"/>
<path d="M168.007 287.162V160.707C168.007 159.728 168.512 158.788 169.41 158.096C170.309 157.403 171.527 157.014 172.798 157.014H194.175C195.446 157.014 196.664 157.403 197.563 158.096C198.461 158.788 198.966 159.728 198.966 160.707V286.89L168.007 287.162Z" fill="#3F3D56"/>
<path d="M42.544 136.923C42.2293 136.923 41.9214 136.853 41.6574 136.721C41.3935 136.589 41.1848 136.4 41.0565 136.179C40.9283 135.957 40.886 135.712 40.9347 135.472C40.9835 135.233 41.1212 135.009 41.3313 134.828L112.81 73.3633L183.155 103.817L253.919 9.81421L326.007 55.5579C326.172 55.6627 326.309 55.7916 326.41 55.9372C326.511 56.0828 326.573 56.2423 326.594 56.4066C326.615 56.5709 326.594 56.7367 326.531 56.8946C326.469 57.0525 326.367 57.1993 326.231 57.3268C326.095 57.4542 325.927 57.5597 325.738 57.6373C325.549 57.7149 325.342 57.763 325.129 57.7788C324.916 57.7947 324.701 57.7781 324.496 57.7298C324.292 57.6816 324.101 57.6028 323.936 57.4978L254.811 13.6343L184.361 107.22L113.492 76.5401L43.7576 136.505C43.605 136.637 43.4179 136.742 43.2087 136.814C42.9996 136.886 42.773 136.923 42.544 136.923Z" fill="#3F3D56"/>
<path d="M42.273 147.391C50.672 147.391 57.4806 142.142 57.4806 135.667C57.4806 129.192 50.672 123.943 42.273 123.943C33.8741 123.943 27.0654 129.192 27.0654 135.667C27.0654 142.142 33.8741 147.391 42.273 147.391Z" fill="#B5FBD6"/>
<path d="M112.879 86.6761C121.278 86.6761 128.087 81.427 128.087 74.9518C128.087 68.4767 121.278 63.2275 112.879 63.2275C104.481 63.2275 97.6719 68.4767 97.6719 74.9518C97.6719 81.427 104.481 86.6761 112.879 86.6761Z" fill="#CCCCCC"/>
<path d="M183.486 117.243C191.885 117.243 198.694 111.994 198.694 105.519C198.694 99.0436 191.885 93.7944 183.486 93.7944C175.087 93.7944 168.279 99.0436 168.279 105.519C168.279 111.994 175.087 117.243 183.486 117.243Z" fill="#E6E6E6"/>
<path d="M254.093 23.4486C262.492 23.4486 269.3 18.1995 269.3 11.7243C269.3 5.24915 262.492 0 254.093 0C245.694 0 238.885 5.24915 238.885 11.7243C238.885 18.1995 245.694 23.4486 254.093 23.4486Z" fill="#B5FBD6"/>
<path d="M389.875 110.767C398.274 110.767 405.083 105.518 405.083 99.0432C405.083 92.568 398.274 87.3188 389.875 87.3188C381.476 87.3188 374.667 92.568 374.667 99.0432C374.667 105.518 381.476 110.767 389.875 110.767Z" fill="#B5FBD6"/>
<path d="M384.498 190.376C390.19 190.904 404.746 186.901 405.535 192.991C413.026 209.994 412.804 275.169 412.804 275.169L401.398 275.588C401.398 275.588 392.284 223.802 387.974 212.723C385.812 226.189 386.191 277.681 386.191 277.681L375.871 278.1C375.871 278.1 366.615 234.252 366.562 221.382C365.437 211.955 368.196 197.986 367.015 188.873C372.659 190.252 378.599 190.762 384.498 190.376L384.498 190.376Z" fill="#3F3D56"/>
<path d="M309.221 286.599V103.3C309.221 100.949 311.366 99.0432 314.011 99.0432H335.389C338.034 99.0432 340.179 100.949 340.179 103.3V287.078L309.221 286.599Z" fill="#3F3D56"/>
<path d="M365.136 141.05C362.853 137.452 360.064 134.058 356.82 130.929C356.143 130.318 355.525 129.669 354.974 128.987C353.806 127.425 353.459 125.591 352.72 123.882C350.656 119.092 345.507 115.244 344.252 110.29C343.796 108.49 339.942 113.723 340.956 115.956C342.764 119.996 342.998 124.276 345.301 128.178C347.604 132.081 350.308 135.824 352.296 139.815C353.426 142.08 354.328 144.421 355.984 146.514C357.641 148.608 360.226 150.362 363.349 150.676C363.328 149.159 363.627 147.648 364.234 146.205C364.913 144.555 366.119 142.612 365.136 141.05Z" fill="#9E616A"/>
<path d="M399.304 143.763C399.164 140.803 399.764 137.849 401.069 135.062C401.569 133.994 402.155 132.91 402.107 131.775C402.036 130.72 401.384 129.753 400.792 128.798C398.75 125.511 397.316 122.027 395.904 118.552L393.188 111.999C392.303 111.498 397.474 111.325 398.576 112.501C402.183 116.362 404.915 120.796 407.771 125.013C408.5 126.018 409.121 127.066 409.629 128.149C410.327 129.904 410.657 131.733 410.607 133.567C410.607 136.997 410.02 140.414 409.412 143.814C409.026 145.945 408.521 148.265 406.43 149.676C404.257 147.532 402.074 145.438 399.304 143.763Z" fill="#9E616A"/>
<path d="M384.944 140.371C391.168 140.371 396.214 136.481 396.214 131.682C396.214 126.884 391.168 122.994 384.944 122.994C378.72 122.994 373.674 126.884 373.674 131.682C373.674 136.481 378.72 140.371 384.944 140.371Z" fill="#9E616A"/>
<path d="M375.782 123.014C375.656 122.75 375.627 122.465 375.7 122.189C375.773 121.914 375.944 121.659 376.195 121.455C376.476 121.284 376.85 121.22 377.152 121.057C377.58 120.779 377.932 120.437 378.183 120.051C378.953 119.22 380.08 118.627 381.363 118.375C382.647 118.124 384.004 118.232 385.195 118.679C387.057 119.43 388.182 120.935 389.838 121.948C390.679 122.473 391.654 122.863 392.5 123.388C394.195 124.516 395.399 126.019 395.951 127.692C396.501 129.353 396.821 131.055 396.908 132.768C396.996 133.283 396.97 133.805 396.831 134.312C396.66 134.737 396.404 135.14 396.073 135.505C394.37 137.494 392.126 139.3 389.315 140.326C386.503 141.352 383.082 141.519 380.309 140.445C380.03 140.358 379.79 140.21 379.618 140.02C379.46 139.729 379.423 139.409 379.51 139.101C379.66 137.885 379.348 136.662 378.612 135.581C378.096 134.786 377.322 134.101 376.91 133.278C376.526 132.357 376.361 131.389 376.424 130.423C376.375 127.918 376.596 125.424 375.782 123.014Z" fill="#2D293D"/>
<path d="M26.793 286.848V198.354C26.793 197.219 28.9378 196.299 31.5834 196.299H52.9609C55.6065 196.299 57.7513 197.22 57.7513 198.354V287.078L26.793 286.848Z" fill="#3F3D56"/>
<path d="M445.457 288H0.543129C0.399082 288 0.260935 287.956 0.159078 287.877C0.0572219 287.799 0 287.692 0 287.581C0 287.47 0.0572219 287.364 0.159078 287.285C0.260935 287.207 0.399082 287.163 0.543129 287.163H445.457C445.601 287.163 445.739 287.207 445.841 287.285C445.943 287.364 446 287.47 446 287.581C446 287.692 445.943 287.799 445.841 287.877C445.739 287.956 445.601 288 445.457 288H445.457Z" fill="#E6E6E6"/>
<path d="M238.613 286.536V78.526C238.613 75.8583 240.758 73.6956 243.404 73.6956H264.781C267.427 73.6956 269.572 75.8583 269.572 78.526V287.078L238.613 286.536Z" fill="#B5FBD6"/>
<path d="M340.641 114.884C343.341 114.884 345.529 113.197 345.529 111.115C345.529 109.034 343.341 107.347 340.641 107.347C337.941 107.347 335.753 109.034 335.753 111.115C335.753 113.197 337.941 114.884 340.641 114.884Z" fill="#A0616A"/>
<path d="M394.954 113.209C397.653 113.209 399.842 111.522 399.842 109.44C399.842 107.359 397.653 105.672 394.954 105.672C392.254 105.672 390.065 107.359 390.065 109.44C390.065 111.522 392.254 113.209 394.954 113.209Z" fill="#A0616A"/>
<path d="M406.832 156.091C407.309 155.754 411.197 138.222 411.175 137.827C411.115 135.667 402.566 133.2 400.855 134.059C399.241 134.868 396.43 144.16 394.622 145.852L392.708 143.27H377.501L376.579 144.59C374.583 143.663 372.788 142.809 372.148 142.526C371.928 142.411 371.688 142.32 371.436 142.256C369.855 141.984 368.372 141.446 367.091 140.682C365.842 139.941 360.044 132.178 358.491 132.384C356.737 132.61 350.82 136.554 350.887 140.339C351.632 140.327 361.323 155.266 361.459 155.823C362.203 158.176 364.66 192.495 365.453 194.094C369.106 193.822 366.222 193.336 369.758 194.094C373.565 194.911 377.584 194.027 381.511 193.701C383.146 193.576 384.789 193.52 386.432 193.533C392.406 193.554 400.933 193.81 406.718 194.953C406.75 192.03 403.421 185.707 402.188 182.948C402.026 182.123 402.032 181.284 402.204 180.461C402.362 179.451 405.542 157.207 406.832 156.091Z" fill="#E6E6E6"/>
</g>
<defs>
<clipPath id="clip0_241_928">
<rect width="446" height="288" fill="white"/>
</clipPath>
</defs>
</svg>
