<svg width="585" height="513" viewBox="0 0 585 513" fill="none" xmlns="http://www.w3.org/2000/svg">
<g clip-path="url(#clip0_168_1023)">
<path d="M585 256.5C585.06 292.232 577.35 327.578 562.369 360.251C561.885 361.307 561.395 362.356 560.898 363.398C560.653 363.923 560.401 364.441 560.149 364.966C559.898 365.484 559.646 366.008 559.388 366.526C559.056 367.198 558.725 367.863 558.387 368.528C557.97 369.366 557.546 370.198 557.109 371.029C557.056 371.145 556.996 371.26 556.93 371.375C556.565 372.079 556.201 372.782 555.823 373.486C555.744 373.639 555.664 373.793 555.578 373.94C555.148 374.759 554.704 375.577 554.253 376.39V376.396C553.776 377.26 553.297 378.121 552.816 378.98C551.623 381.104 550.398 383.208 549.139 385.294C548.761 385.914 548.39 386.535 548.006 387.149C547.655 387.724 547.304 388.294 546.946 388.863C546.701 389.26 546.456 389.65 546.204 390.04C545.806 390.673 545.402 391.306 544.992 391.94C544.985 391.946 544.985 391.946 544.985 391.952C544.077 393.36 543.15 394.761 542.216 396.149H542.209C541.779 396.795 541.341 397.434 540.904 398.074V398.08C539.586 399.999 538.241 401.899 536.869 403.78V403.786C536.864 403.786 536.86 403.789 536.856 403.792V403.799L536.843 403.812C535.756 405.315 534.648 406.805 533.517 408.283V408.289C532.795 409.236 532.066 410.182 531.331 411.116C530.728 411.884 530.119 412.649 529.503 413.413C529.377 413.579 529.244 413.739 529.105 413.905V413.912C528.939 414.123 528.774 414.327 528.595 414.539V414.545C525.978 417.775 523.282 420.941 520.506 424.044H520.499C520.353 424.216 520.201 424.383 520.049 424.549C519.903 424.715 519.744 424.882 519.592 425.054H519.585C519.353 425.317 519.115 425.579 518.876 425.841C518.644 426.103 518.399 426.366 518.154 426.628V426.634C503.685 442.396 487.265 456.381 469.262 468.276C466.864 469.868 464.435 471.418 461.975 472.926C461.365 473.303 460.756 473.674 460.139 474.045C459.954 474.167 459.768 474.276 459.583 474.384C459.258 474.583 458.927 474.781 458.596 474.979C458.271 475.171 457.94 475.369 457.609 475.561C456.29 476.342 454.959 477.109 453.627 477.864C453.296 478.056 452.958 478.241 452.62 478.433C452.289 478.619 451.951 478.804 451.613 478.99C451.609 478.996 451.603 479.002 451.596 479.007C451.589 479.011 451.581 479.014 451.573 479.015L451.56 479.022L451.547 479.035H451.54C449.871 479.962 448.195 480.877 446.499 481.759C443.464 483.359 440.399 484.9 437.303 486.384C436.535 486.755 435.76 487.12 434.985 487.484C434.342 487.785 433.693 488.086 433.05 488.38C432.871 488.463 432.699 488.546 432.52 488.623C431.983 488.866 431.447 489.109 430.91 489.346C430.327 489.614 429.738 489.87 429.155 490.126C428.499 490.414 427.849 490.695 427.194 490.977C424.729 492.039 422.238 493.062 419.741 494.047C410.818 497.575 401.699 500.62 392.426 503.169C391.995 503.29 391.558 503.412 391.121 503.527C387.152 504.601 383.155 505.584 379.13 506.476C372.101 508.036 365.007 509.318 357.85 510.32C357.837 510.32 357.817 510.326 357.804 510.326C356.949 510.448 356.088 510.563 355.234 510.678C355.161 510.691 355.081 510.704 355.002 510.71C354.995 510.716 354.988 510.716 354.975 510.71C354.975 510.71 354.975 510.716 354.969 510.71C354.021 510.832 353.074 510.953 352.12 511.068C352.054 511.081 351.987 511.087 351.921 511.094C351.033 511.196 350.139 511.298 349.245 511.394C348.284 511.497 347.323 511.593 346.356 511.689C345.621 511.759 344.885 511.829 344.15 511.893C344.085 511.906 344.018 511.913 343.951 511.913C343.282 511.97 342.613 512.028 341.944 512.079C341.917 512.079 341.884 512.085 341.858 512.085C341.275 512.136 340.692 512.175 340.109 512.22C333.252 512.744 326.329 513.004 319.34 513C311.754 513 304.246 512.695 296.815 512.085C296.788 512.085 296.762 512.079 296.735 512.079C295.152 511.951 293.571 511.81 291.992 511.657C291.574 511.618 291.164 511.574 290.746 511.535C290.667 511.529 290.587 511.522 290.508 511.51C290.382 511.497 290.256 511.484 290.124 511.471C290.057 511.465 289.984 511.458 289.918 511.446C289.368 511.388 288.818 511.331 288.262 511.267C287.646 511.196 287.023 511.126 286.407 511.049C285.791 510.979 285.168 510.902 284.552 510.819C284.42 510.806 284.28 510.793 284.148 510.768C283.697 510.716 283.247 510.659 282.803 510.595C282.584 510.569 282.372 510.537 282.16 510.505C281.73 510.448 281.306 510.39 280.875 510.326C280.862 510.326 280.842 510.32 280.829 510.32C267.3 508.433 253.946 505.527 240.887 501.627H240.88C240.172 501.416 239.463 501.198 238.754 500.981C238.542 500.923 238.33 500.859 238.118 500.789C236.276 500.22 234.445 499.631 232.626 499.024C230.115 498.192 227.622 497.322 225.146 496.414C224.47 496.164 223.801 495.915 223.126 495.665C221.781 495.154 220.442 494.642 219.111 494.117C216.839 493.222 214.582 492.299 212.34 491.348H212.334V491.341C210.24 490.452 208.162 489.535 206.1 488.591C206.039 488.573 205.981 488.548 205.927 488.514C205.921 488.514 205.921 488.508 205.914 488.508C205.457 488.303 205 488.092 204.543 487.881L204.529 487.875C193.166 482.615 182.209 476.574 171.743 469.798C168.384 467.63 165.082 465.389 161.838 463.075C159.221 461.214 156.642 459.306 154.1 457.35C141.439 447.635 129.722 436.825 119.094 425.054H119.088V425.048C118.339 424.223 117.61 423.404 116.868 422.573V422.566C116.762 422.451 116.663 422.336 116.563 422.221C116.093 421.69 115.636 421.165 115.179 420.628V420.622C114.556 419.912 113.947 419.199 113.35 418.485C113.218 418.332 113.092 418.185 112.966 418.031H112.959V418.025C112.469 417.449 111.986 416.867 111.509 416.285C111.264 415.997 111.025 415.703 110.787 415.408H110.78V415.402C109.336 413.643 107.92 411.867 106.533 410.074V410.067C106.149 409.575 105.771 409.082 105.4 408.583H105.394C103.618 406.268 101.889 403.925 100.207 401.554V401.547C99.5705 400.658 98.9411 399.763 98.3184 398.861C97.6956 397.959 97.0795 397.055 96.47 396.149H96.4634C95.8341 395.215 95.2113 394.277 94.5952 393.334C94.562 393.283 94.5289 393.238 94.5025 393.193C93.8929 392.266 93.2923 391.332 92.7005 390.392C92.2235 389.643 91.7531 388.901 91.296 388.153C90.978 387.648 90.6666 387.149 90.3619 386.637C90.2492 386.464 90.1499 386.292 90.0505 386.125C89.3483 384.967 88.6593 383.81 87.9703 382.646C87.1686 381.277 86.3737 379.895 85.5985 378.513C85.2805 377.944 84.9625 377.368 84.6512 376.793C84.5386 376.607 84.4392 376.422 84.3398 376.23C83.9688 375.552 83.5978 374.874 83.2334 374.189C82.8691 373.511 82.5047 372.827 82.1469 372.142C81.7892 371.458 81.4314 370.774 81.0803 370.083C80.8153 369.565 80.5503 369.04 80.292 368.522C80.2651 368.479 80.2408 368.434 80.2191 368.388C80.0998 368.145 79.974 367.908 79.8613 367.665C79.8349 367.628 79.8148 367.587 79.8017 367.543C79.5301 367.006 79.2651 366.475 79.0067 365.938C78.6622 365.247 78.331 364.55 77.9997 363.853C77.7612 363.366 77.536 362.874 77.3041 362.381C76.9729 361.691 76.6483 360.993 76.3303 360.29C75.9924 359.567 75.6678 358.838 75.3431 358.109C75.257 357.923 75.1775 357.744 75.098 357.558C74.9456 357.226 74.7999 356.893 74.6541 356.561C74.2632 355.678 73.879 354.782 73.5014 353.893C73.0708 352.889 72.6512 351.883 72.2426 350.874C71.8517 349.934 71.4719 348.991 71.1031 348.047L70.964 347.701V347.695C65.2076 333.088 60.8522 318.001 57.9526 302.625V302.619C56.2993 293.84 55.1229 284.984 54.4282 276.086C54.3885 275.6 54.3553 275.114 54.3222 274.628C53.885 268.609 53.6708 262.566 53.6796 256.5C53.6796 253.807 53.7237 251.127 53.8121 248.46C55.5298 192.694 76.1185 139.007 112.43 95.6086C114.026 93.6961 115.651 91.807 117.306 89.9413C166.025 34.893 238.462 0 319.34 0C413.897 0 496.921 47.6988 543.991 119.538C546.443 123.261 548.788 127.052 551.027 130.911C573.37 169.248 585.073 212.51 585 256.5Z" fill="#F2F2F2"/>
<path d="M447.983 457.83C447.029 460.376 446.077 462.921 445.127 465.467C444.949 465.953 444.763 466.433 444.584 466.919C442.159 473.405 439.732 479.894 437.303 486.384C436.535 486.755 435.76 487.119 434.985 487.484C434.342 487.785 433.693 488.085 433.05 488.38C432.871 488.463 432.699 488.546 432.52 488.623C431.984 488.866 431.447 489.109 430.91 489.345C430.327 489.614 429.738 489.87 429.155 490.126C428.499 490.414 427.85 490.695 427.194 490.977C426.853 490.119 426.658 489.214 426.617 488.296C426.589 486.856 426.765 485.418 427.141 484.024C427.717 481.721 428.631 479.463 429.234 477.154C429.267 477.045 429.294 476.93 429.32 476.821C430.664 471.308 430.043 465.519 427.558 460.388C426.061 457.331 423.914 454.548 422.98 451.286C422.169 448.223 422.528 444.98 423.994 442.152C424.538 441.055 425.221 440.028 426.028 439.095C426.22 438.858 426.425 438.634 426.637 438.41C428.586 436.343 431.175 434.941 434.017 434.412C439.456 433.478 445.141 436.274 448.181 440.662C449.428 442.425 450.187 444.466 450.388 446.591C450.719 450.436 449.341 454.203 447.983 457.83Z" fill="#E4E4E4"/>
<path d="M432.964 483.813C431.718 481.593 429.632 479.648 429.234 477.154C427.942 469.145 424.829 463.401 419.668 460.146C418.17 459.205 417.932 457.126 417.011 455.63C416.6 454.958 416.183 454.286 415.752 453.627C415.057 452.534 414.332 451.461 413.579 450.41C412.152 448.378 410.578 446.446 408.869 444.628C408.16 443.866 407.412 443.131 406.636 442.434L406.63 442.427C406.146 441.979 405.656 441.551 405.146 441.135C404.947 440.969 404.742 440.802 404.53 440.636L404.516 440.623C403.621 439.874 402.684 439.174 401.708 438.525C399.462 437.061 396.924 436.043 394.321 436.856C393.297 437.194 392.312 437.632 391.379 438.161C390.902 438.423 390.432 438.698 389.961 438.973C389.643 439.159 389.325 439.344 389.007 439.536C388.749 439.683 388.491 439.83 388.232 439.971C386.232 441.084 384.222 442.176 382.204 443.246C381.912 443.406 381.621 443.559 381.323 443.713H381.316C381.111 443.828 380.899 443.937 380.687 444.046C380.282 444.263 379.872 444.48 379.468 444.692C378.255 445.325 377.041 445.952 375.824 446.572C375.201 446.892 374.572 447.199 373.942 447.506C373.651 447.647 373.359 447.787 373.075 447.935H373.068C372.962 447.986 372.863 448.037 372.757 448.088C371.895 448.517 371.047 448.958 370.226 449.438C367.843 450.824 365.773 452.657 364.137 454.83C363.819 455.252 363.515 455.687 363.236 456.135C362.872 456.714 362.54 457.312 362.243 457.926C362.037 458.342 361.845 458.757 361.673 459.18V459.186C360.044 463.229 359.816 467.673 361.024 471.851V471.858C361.103 472.145 361.189 472.427 361.289 472.708C361.448 473.182 361.627 473.655 361.825 474.116C362.045 474.629 362.292 475.131 362.567 475.619V475.625C364.041 478.053 365.881 480.256 368.026 482.162L368.093 482.226C368.358 482.476 368.629 482.732 368.894 482.981C369.04 483.115 369.192 483.25 369.351 483.378C371.643 485.277 375.347 486.717 377.44 488.668C378.56 489.71 379.216 490.894 378.957 492.371C378.268 496.292 378.421 498.832 379.123 500.463C381.031 504.915 387.02 502.65 391.121 503.527C391.558 503.412 391.995 503.29 392.426 503.168C401.699 500.62 410.818 497.575 419.741 494.047C422.238 493.062 424.729 492.039 427.194 490.977C427.849 490.695 428.499 490.414 429.155 490.126C429.738 489.87 430.327 489.614 430.91 489.346C431.447 489.109 431.983 488.866 432.52 488.623C432.699 488.546 432.871 488.463 433.05 488.38C433.693 488.085 434.342 487.785 434.985 487.484C434.329 486.25 433.646 485.028 432.964 483.813Z" fill="#E4E4E4"/>
<path d="M384.493 421.712C385.885 417.651 383.97 414.972 379.043 413.551C378.875 413.403 378.671 413.299 378.45 413.248C378.229 413.196 377.999 413.199 377.779 413.256C377.56 413.313 377.359 413.422 377.194 413.573C377.03 413.724 376.907 413.913 376.838 414.122L372.536 426.429C368.036 425.318 364.736 426.079 364.019 430.377C365.795 425.999 364.124 423.254 359.128 422.083C358.966 421.926 358.765 421.812 358.545 421.751C358.325 421.69 358.092 421.683 357.868 421.732C357.645 421.781 357.438 421.884 357.266 422.031C357.095 422.178 356.965 422.364 356.888 422.573L354.059 433.657C350.614 438.669 348.922 444.614 349.231 450.622C349.541 456.629 351.836 462.383 355.779 467.039C359.723 471.696 365.108 475.01 371.144 476.496C377.181 477.982 383.552 477.561 389.323 475.296C395.094 473.031 399.962 469.04 403.212 463.908C406.463 458.777 407.925 452.775 407.385 446.783C406.845 440.791 404.331 435.123 400.211 430.611C396.091 426.099 390.583 422.98 384.493 421.712H384.493Z" fill="#E4E4E4"/>
<path d="M381.754 456.788C381.173 457.088 380.491 457.154 379.86 456.97C379.229 456.786 378.699 456.368 378.386 455.807C378.342 455.727 378.332 455.633 378.36 455.546C378.387 455.459 378.449 455.387 378.532 455.344C378.615 455.301 378.712 455.291 378.802 455.317C378.892 455.343 378.968 455.403 379.012 455.483C379.235 455.883 379.614 456.181 380.065 456.312C380.516 456.443 381.002 456.396 381.417 456.181C381.832 455.966 382.141 455.601 382.277 455.166C382.414 454.731 382.366 454.261 382.144 453.86C382.099 453.78 382.09 453.686 382.117 453.599C382.145 453.513 382.206 453.44 382.289 453.397C382.372 453.354 382.469 453.344 382.559 453.37C382.649 453.396 382.725 453.456 382.77 453.536C383.081 454.097 383.149 454.755 382.958 455.365C382.768 455.974 382.335 456.486 381.754 456.788Z" fill="white"/>
<path d="M379.151 451.741C380.535 451.025 381.425 450.027 381.139 449.513C380.854 448.999 379.501 449.164 378.117 449.881C376.734 450.598 375.844 451.595 376.129 452.109C376.415 452.623 377.768 452.458 379.151 451.741Z" fill="white"/>
<path d="M364.446 452.612C364.633 451.736 365.017 450.91 365.571 450.193C366.125 449.476 366.835 448.885 367.651 448.463C368.467 448.04 369.37 447.795 370.295 447.746C371.219 447.697 372.144 447.844 373.004 448.178C373.436 446.901 373.467 445.53 373.092 444.237C372.717 442.943 371.953 441.786 370.897 440.912C369.841 440.038 368.541 439.486 367.16 439.325C365.779 439.165 364.38 439.404 363.139 440.011C361.898 440.618 360.872 441.567 360.19 442.738C359.508 443.908 359.201 445.248 359.308 446.587C359.414 447.926 359.929 449.204 360.788 450.26C361.647 451.317 362.811 452.103 364.133 452.521C364.237 452.553 364.341 452.584 364.446 452.612Z" fill="white"/>
<path d="M366.547 450.147C367.883 450.147 368.966 449.101 368.966 447.811C368.966 446.521 367.883 445.475 366.547 445.475C365.211 445.475 364.128 446.521 364.128 447.811C364.128 449.101 365.211 450.147 366.547 450.147Z" fill="#3F3D56"/>
<path d="M381.191 444.206C381.378 443.33 381.762 442.504 382.316 441.787C382.87 441.07 383.58 440.48 384.396 440.057C385.213 439.634 386.115 439.389 387.04 439.34C387.965 439.291 388.89 439.438 389.749 439.772C390.181 438.496 390.212 437.124 389.837 435.831C389.462 434.537 388.698 433.381 387.643 432.507C386.587 431.632 385.286 431.08 383.905 430.92C382.524 430.759 381.125 430.998 379.884 431.605C378.644 432.213 377.618 433.162 376.936 434.332C376.254 435.502 375.947 436.842 376.053 438.181C376.159 439.52 376.675 440.798 377.534 441.855C378.393 442.911 379.557 443.697 380.879 444.115C380.982 444.148 381.086 444.178 381.191 444.206Z" fill="white"/>
<path d="M384.18 441.611C385.516 441.611 386.599 440.565 386.599 439.275C386.599 437.985 385.516 436.939 384.18 436.939C382.844 436.939 381.761 437.985 381.761 439.275C381.761 440.565 382.844 441.611 384.18 441.611Z" fill="#3F3D56"/>
<path d="M396.32 439.113L388.061 447.24L388.894 448.03L397.154 439.903L396.32 439.113Z" fill="white"/>
<path d="M398.945 443.046L388.965 449.112L389.588 450.066L399.567 444L398.945 443.046Z" fill="white"/>
<path d="M370.341 456.421L358.761 458.573L358.982 459.681L370.562 457.528L370.341 456.421Z" fill="white"/>
<path d="M371.456 458.183L360.703 462.859L361.183 463.887L371.936 459.212L371.456 458.183Z" fill="white"/>
<path d="M30.4435 284.702C7.79259 265.019 -5.92275 233.719 2.50602 205.444C21.5276 231.645 49.5346 250.505 81.5718 258.687C93.939 261.8 108.03 264.018 115.554 273.993C120.236 280.199 121.323 288.401 120.215 296.004C119.107 303.607 116.009 310.787 112.939 317.871L113.102 319.781C83.1893 314.161 53.0945 304.384 30.4435 284.702Z" fill="#E6E6E6"/>
<path d="M3.13874 205.533C8.89566 228.98 22.4482 250.804 41.4648 266.466C45.5762 269.853 50.052 272.942 55.0727 274.939C59.982 276.85 65.3317 277.456 70.5659 276.696C75.4611 276.081 80.3945 274.905 85.3591 275.45C90.5921 276.025 94.964 278.856 98.0181 282.932C101.755 287.92 103.413 293.907 104.823 299.816C106.389 306.376 107.908 313.215 112.394 318.577C112.938 319.226 111.862 320.003 111.319 319.354C103.514 310.025 104.582 297.112 98.9289 286.803C96.2912 281.993 92.1361 277.921 86.4133 276.911C81.4089 276.027 76.3204 277.236 71.3695 277.9C66.1711 278.596 61.1415 278.428 56.1543 276.727C51.0525 274.987 46.4422 272.06 42.2592 268.791C32.8311 261.308 24.6802 252.44 18.105 242.512C10.5358 231.222 5.02266 218.765 1.80412 205.68C1.60525 204.87 2.94117 204.728 3.13873 205.533L3.13874 205.533Z" fill="white"/>
<path d="M35.0054 261.69C31.8046 264.42 27.7029 265.963 23.433 266.042C19.163 266.122 15.0028 264.734 11.6952 262.125C11.0278 261.595 11.8496 260.569 12.5178 261.099C15.5932 263.534 19.4686 264.827 23.4446 264.745C27.4206 264.663 31.2354 263.212 34.2003 260.652C34.8453 260.097 35.6467 261.138 35.0054 261.69V261.69Z" fill="white"/>
<path d="M68.1264 277.323C68.7441 268.915 66.0567 260.591 60.6002 254.011C60.059 253.36 61.1347 252.583 61.6753 253.234C67.3402 260.091 70.1185 268.759 69.4558 277.508C69.3921 278.342 68.063 278.153 68.1264 277.323Z" fill="white"/>
<path d="M12.2922 230.938C13.7586 230.131 14.9945 228.985 15.8887 227.603C16.783 226.221 17.3077 224.646 17.4158 223.019C17.4685 222.185 18.7977 222.375 18.7452 223.204C18.6172 225 18.0355 226.739 17.051 228.268C16.0664 229.797 14.709 231.07 13.0973 231.976C12.9528 232.074 12.7752 232.115 12.6006 232.091C12.4259 232.067 12.2674 231.979 12.1572 231.846C12.0513 231.708 12.0061 231.535 12.0314 231.365C12.0567 231.195 12.1504 231.042 12.2922 230.938Z" fill="white"/>
<path d="M97.1013 165.666C97.0837 166.187 97.0661 166.709 97.0574 167.238C96.8583 174.254 97.2498 181.274 98.2281 188.229C98.2949 188.768 98.371 189.313 98.4536 189.849C100.996 206.58 106.733 222.711 115.373 237.42C118.817 243.27 122.717 248.859 127.039 254.138C133.009 261.428 140.082 268.874 143.119 277.391C143.446 278.277 143.716 279.18 143.928 280.098L115.503 319.442C115.392 319.5 115.29 319.564 115.179 319.623L114.118 321.244C113.875 320.987 113.629 320.715 113.387 320.458C113.246 320.309 113.11 320.152 112.969 320.003C112.877 319.901 112.785 319.799 112.696 319.712C112.665 319.678 112.634 319.644 112.613 319.616C112.523 319.53 112.45 319.44 112.37 319.359C110.991 317.843 109.621 316.316 108.26 314.776C108.25 314.77 108.25 314.77 108.247 314.755C97.9039 302.997 88.4862 290.303 81.3636 276.632C81.1495 276.221 80.9257 275.803 80.7245 275.374C77.5494 269.195 74.9026 262.775 72.8107 256.179C71.6773 252.564 70.7341 248.896 69.9848 245.189C68.0679 235.606 67.7241 225.792 68.9658 216.106C71.4442 196.798 80.2907 178.47 95.8995 166.564C96.299 166.26 96.6924 165.964 97.1013 165.666Z" fill="#E6E6E6"/>
<path d="M97.5545 166.102C87.5298 188.171 84.7422 213.474 90.1594 237.034C91.3306 242.127 92.9778 247.196 95.741 251.709C98.4694 256.089 102.363 259.683 107.016 262.118C111.308 264.473 115.98 266.402 119.604 269.723C123.425 273.224 125.15 278.025 125.046 283.056C124.92 289.21 122.51 294.954 119.952 300.492C117.111 306.641 114.06 312.984 114.298 319.873C114.327 320.708 112.984 320.702 112.955 319.869C112.54 307.883 121.445 298.193 123.36 286.676C124.253 281.302 123.475 275.636 119.535 271.502C116.091 267.888 111.274 265.894 106.907 263.546C102.322 261.081 98.4113 258.023 95.4897 253.765C92.5012 249.411 90.6452 244.394 89.3443 239.351C86.4826 227.896 85.5042 216.077 86.4449 204.329C87.4414 190.914 90.8074 177.763 96.397 165.444C96.7433 164.682 97.8985 165.345 97.5545 166.102L97.5545 166.102Z" fill="white"/>
<path d="M87.9801 229.465C83.7221 229.784 79.4853 228.632 76.0264 226.213C72.5674 223.794 70.1115 220.267 69.0972 216.262C68.8949 215.451 70.1909 215.109 70.3935 215.921C71.3309 219.653 73.6189 222.938 76.8446 225.184C80.0704 227.43 84.0214 228.488 87.9845 228.168C88.8458 228.1 88.8365 229.397 87.9801 229.465Z" fill="white"/>
<path d="M104.677 261.201C110.413 254.846 113.458 246.638 113.205 238.212C113.179 237.377 114.522 237.382 114.548 238.216C114.795 246.985 111.608 255.521 105.624 262.12C105.053 262.749 104.11 261.826 104.677 261.201L104.677 261.201Z" fill="white"/>
<path d="M89.0209 191.708C90.6951 191.916 92.3965 191.719 93.9724 191.136C95.5484 190.552 96.9495 189.599 98.0499 188.364C98.6122 187.728 99.5551 188.652 98.9965 189.284C97.7741 190.643 96.2254 191.694 94.4857 192.342C92.746 192.991 90.8683 193.219 89.0165 193.005C88.8402 192.999 88.6729 192.928 88.5486 192.807C88.4242 192.687 88.3522 192.525 88.3472 192.354C88.3486 192.183 88.4202 192.018 88.5464 191.897C88.6726 191.776 88.8431 191.708 89.0209 191.708V191.708Z" fill="white"/>
<path d="M356.767 168.289C360.715 147.203 354.153 123.276 336.239 110.627C337.391 133.903 329.979 156.822 315.314 175.329C309.631 182.447 302.543 189.792 302.819 198.775C302.991 204.364 306.154 209.554 310.304 213.454C314.454 217.354 319.554 220.154 324.593 222.911L325.382 224.08C340.008 207.964 352.818 189.375 356.767 168.289Z" fill="#E6E6E6"/>
<path d="M335.916 110.952C343.508 127.102 345.636 145.152 341.998 162.537C341.284 166.293 339.961 169.917 338.078 173.275C336.134 176.489 333.334 179.142 329.969 180.958C326.867 182.712 323.483 184.16 320.877 186.611C319.562 187.885 318.541 189.413 317.88 191.095C317.22 192.777 316.935 194.575 317.045 196.37C317.197 200.851 319.008 205.012 320.926 209.021C323.055 213.473 325.339 218.064 325.233 223.083C325.221 223.691 326.199 223.674 326.211 223.067C326.396 214.335 319.816 207.36 318.309 198.991C317.605 195.086 318.117 190.952 320.945 187.906C323.418 185.243 326.905 183.747 330.062 181.997C333.372 180.272 336.193 177.791 338.281 174.77C340.335 171.515 341.8 167.947 342.614 164.217C344.586 155.849 345.182 147.234 344.382 138.687C343.524 128.927 340.944 119.381 336.753 110.462C336.493 109.91 335.658 110.403 335.916 110.952L335.916 110.952Z" fill="white"/>
<path d="M343.511 157.006C346.615 157.199 349.689 156.321 352.184 154.528C354.679 152.735 356.433 150.144 357.132 147.218C357.271 146.625 356.324 146.388 356.185 146.982C355.539 149.708 353.905 152.121 351.578 153.786C349.251 155.451 346.384 156.258 343.495 156.061C342.867 156.019 342.886 156.964 343.511 157.006Z" fill="white"/>
<path d="M331.663 180.268C327.424 175.694 325.126 169.744 325.228 163.606C325.238 162.998 324.26 163.014 324.25 163.621C324.156 170.009 326.56 176.196 330.983 180.947C331.405 181.4 332.083 180.719 331.663 180.268Z" fill="white"/>
<path d="M342.382 129.52C341.165 129.686 339.924 129.559 338.771 129.148C337.617 128.737 336.588 128.057 335.774 127.167C335.359 126.709 334.681 127.391 335.094 127.845C335.997 128.824 337.136 129.575 338.409 130.031C339.682 130.488 341.052 130.636 342.398 130.464C342.526 130.458 342.648 130.405 342.737 130.316C342.826 130.227 342.877 130.108 342.879 129.984C342.876 129.859 342.823 129.74 342.73 129.653C342.637 129.566 342.512 129.518 342.382 129.52L342.382 129.52Z" fill="white"/>
<path d="M263.403 128.461C263.654 128.754 263.906 129.047 264.155 129.347C267.51 133.301 270.528 137.511 273.177 141.937C273.388 142.276 273.596 142.622 273.796 142.966C280.061 153.694 284.209 165.451 286.029 177.641C286.749 182.492 287.085 187.389 287.035 192.289C286.966 199.057 286.333 206.39 288.519 212.601C288.74 213.252 289.002 213.889 289.304 214.508L323.843 224.919C323.934 224.904 324.022 224.898 324.114 224.883L325.473 225.36C325.494 225.107 325.51 224.845 325.531 224.592C325.543 224.446 325.548 224.297 325.561 224.151C325.567 224.052 325.573 223.954 325.584 223.865C325.586 223.833 325.588 223.8 325.588 223.775C325.599 223.686 325.6 223.603 325.609 223.522C325.702 222.056 325.785 220.586 325.858 219.113C325.861 219.106 325.861 219.106 325.855 219.096C326.379 207.873 325.937 196.509 323.723 185.571C323.656 185.242 323.592 184.905 323.51 184.571C322.483 179.646 321.042 174.81 319.199 170.112C318.182 167.543 317.03 165.025 315.749 162.568C312.426 156.225 308.091 150.427 302.902 145.385C292.556 135.336 278.996 128.594 264.51 128.461C264.139 128.458 263.776 128.457 263.403 128.461Z" fill="#E6E6E6"/>
<path d="M263.344 128.908C279.477 137.39 292.431 150.565 300.367 166.561C302.139 169.975 303.342 173.637 303.933 177.413C304.385 181.11 303.804 184.855 302.249 188.261C300.866 191.465 299.067 194.588 298.515 198.061C298.259 199.842 298.397 201.656 298.918 203.383C299.44 205.109 300.334 206.71 301.541 208.08C304.457 211.569 308.497 213.838 312.528 215.925C317.004 218.242 321.691 220.579 324.736 224.648C325.105 225.141 325.876 224.56 325.507 224.068C320.209 216.988 310.606 215.244 304.184 209.438C301.187 206.729 299.018 203.131 299.377 199.055C299.69 195.491 301.543 192.269 302.972 189.037C304.539 185.736 305.244 182.114 305.027 178.489C304.638 174.696 303.583 170.995 301.907 167.544C298.263 159.716 293.367 152.491 287.398 146.132C280.628 138.838 272.615 132.716 263.706 128.03C263.155 127.741 262.796 128.62 263.344 128.908L263.344 128.908Z" fill="white"/>
<path d="M298.126 161.265C300.725 159.615 302.631 157.127 303.505 154.245C304.38 151.363 304.164 148.275 302.898 145.532C302.64 144.978 301.736 145.339 301.994 145.894C303.178 148.446 303.379 151.323 302.559 154.005C301.739 156.687 299.954 158.998 297.524 160.52C296.997 160.852 297.601 161.594 298.126 161.265Z" fill="white"/>
<path d="M303.172 186.726C296.935 185.538 291.39 182.123 287.644 177.163C287.273 176.671 286.502 177.253 286.872 177.744C290.781 182.898 296.558 186.441 303.052 187.663C303.671 187.779 303.788 186.842 303.172 186.726Z" fill="white"/>
<path d="M280.085 139.975C279.218 140.816 278.147 141.435 276.97 141.778C275.793 142.121 274.546 142.175 273.342 141.938C272.725 141.814 272.609 142.752 273.222 142.875C274.554 143.132 275.931 143.069 277.232 142.694C278.533 142.318 279.719 141.64 280.687 140.72C280.786 140.641 280.849 140.528 280.865 140.405C280.881 140.282 280.847 140.157 280.772 140.057C280.691 139.959 280.574 139.895 280.446 139.88C280.317 139.865 280.188 139.899 280.085 139.975L280.085 139.975Z" fill="white"/>
<path d="M86.9686 241.799C91.7503 241.799 96.3363 243.633 99.7175 246.898C103.099 250.163 104.998 254.59 104.998 259.207V259.207C104.998 263.245 103.543 267.158 100.884 270.275C98.2246 273.391 94.526 275.519 90.4211 276.293V304.764H78.9128V241.799H86.9686Z" fill="#3F3D56"/>
<path d="M528.597 408.581V414.543C525.98 417.773 523.284 420.939 520.508 424.041C520.21 424.38 519.905 424.713 519.593 425.052C519.123 425.583 518.639 426.108 518.156 426.632V408.581H528.597Z" fill="#CACACA"/>
<path d="M497.963 396.146C495.655 396.149 493.442 397.035 491.811 398.611C490.179 400.186 489.261 402.323 489.258 404.551V416.647C489.261 418.875 490.179 421.012 491.811 422.587C493.442 424.163 495.655 425.049 497.963 425.052H519.593C519.905 424.713 520.21 424.38 520.508 424.041C523.284 420.939 525.98 417.773 528.597 414.542C528.769 414.331 528.941 414.12 529.107 413.909C530.604 412.061 532.075 410.18 533.519 408.287C534.645 406.803 535.765 405.306 536.858 403.796C536.865 403.79 536.871 403.79 536.871 403.783C538.7 401.276 540.482 398.73 542.218 396.146H497.963Z" fill="#3F3D56"/>
<path d="M553.659 292.613C552.329 292.169 550.932 291.944 549.525 291.947H545.967C544.672 291.948 543.383 292.136 542.145 292.504C539.533 293.296 537.25 294.872 535.629 297.003C534.007 299.133 533.132 301.707 533.128 304.35V405.255C533.128 405.632 533.148 406.003 533.181 406.368C533.239 407.016 533.352 407.657 533.519 408.287C534.645 406.803 535.765 405.306 536.858 403.797C536.865 403.79 536.871 403.79 536.871 403.784C538.7 401.276 540.482 398.731 542.218 396.146C543.152 394.758 544.079 393.358 544.987 391.95C551.545 381.791 557.354 371.197 562.371 360.249V304.35C562.368 301.761 561.526 299.237 559.964 297.132C558.402 295.028 556.197 293.447 553.659 292.613Z" fill="#3F3D56"/>
<path d="M115.181 408.581V420.626C112.199 417.184 109.317 413.666 106.535 410.071C106.151 409.579 105.773 409.08 105.396 408.581H115.181Z" fill="#CACACA"/>
<path d="M135.373 396.146H96.4651C97.6907 397.969 98.9384 399.771 100.208 401.551C101.891 403.924 103.62 406.267 105.395 408.581C105.773 409.08 106.151 409.579 106.535 410.071C109.324 413.666 112.206 417.184 115.181 420.625C115.737 421.278 116.3 421.924 116.87 422.57C117.599 423.402 118.338 424.229 119.089 425.052H135.373C137.681 425.049 139.892 424.162 141.523 422.587C143.154 421.011 144.071 418.875 144.072 416.647V404.551C144.071 402.323 143.154 400.187 141.523 398.611C139.892 397.036 137.681 396.149 135.373 396.146Z" fill="#3F3D56"/>
<path d="M93.2984 293.348C91.4641 292.43 89.4286 291.949 87.3624 291.947H83.8115C82.1312 291.945 80.4671 292.265 78.9156 292.888C76.5651 293.825 74.5553 295.414 73.1402 297.455C71.7251 299.495 70.9684 301.895 70.9657 304.35V347.699C77.6549 364.679 86.2032 380.92 96.4651 396.146C97.6907 397.969 98.9384 399.771 100.208 401.551V304.35C100.206 302.082 99.5616 299.858 98.3435 297.918C97.1254 295.979 95.3806 294.398 93.2984 293.348Z" fill="#3F3D56"/>
<path d="M238.029 480.691L249.7 478.105L244.926 433.412L227.701 437.228L238.029 480.691Z" fill="#9E616A"/>
<path d="M248.647 441.913C248.407 441.126 248.246 440.318 248.163 439.502C248.066 438.537 247.871 437.583 247.58 436.655C247.248 435.811 246.838 434.997 246.354 434.224C246.122 433.815 245.877 433.406 245.659 432.99C245.439 432.574 245.248 432.145 245.089 431.704C238.259 412.227 228.725 385.758 222.114 370.266C218.225 361.151 194.309 358.119 171.744 357.345C168.995 357.249 166.265 357.185 163.596 357.153C162.675 357.14 161.76 357.127 160.853 357.121C158.534 357.108 156.275 357.108 154.102 357.134C153.817 357.134 153.532 357.134 153.247 357.14C151.664 357.153 150.129 357.174 148.643 357.204C138.427 357.396 130.921 357.844 129.583 357.927L117.665 350.692L115.339 349.279L115.094 350.692L113.22 361.477L110.02 379.88L118.042 382.055L123.25 383.462L154.102 391.816L160.661 393.594L160.7 393.607L171.744 393.587L201.941 393.536L203.398 397.265C202.875 398.05 202.531 398.934 202.388 399.857C202.246 400.78 202.309 401.722 202.572 402.62C202.836 403.518 203.295 404.351 203.918 405.065C204.542 405.778 205.315 406.355 206.187 406.758L207.32 407.276L221.12 442.533C221.162 445.723 222.194 448.826 224.081 451.444C224.313 451.77 224.565 452.09 224.83 452.403L225.135 452.755L230.441 462.778L233.601 462.075L247.05 459.1L247.116 458.973C247.123 458.953 247.295 458.602 247.547 457.987V457.968C248.6 455.429 250.932 448.489 248.647 441.913Z" fill="#2F2E41"/>
<path d="M281.433 483.663C280.931 481.515 279.993 479.483 278.674 477.686C277.355 475.889 275.681 474.361 273.748 473.191C271.816 472.021 269.662 471.232 267.412 470.869C265.162 470.505 262.86 470.576 260.638 471.075L251.316 467.013L248.706 468.785L237.881 476.115L236.987 476.314L234.085 476.953L238.093 493.821L281.566 484.194L281.433 483.663Z" fill="#2F2E41"/>
<path d="M223.77 457.655L219.828 488.512L219.696 489.523L219.113 494.122C216.84 493.226 214.574 492.299 212.335 491.346C210.242 490.457 208.164 489.54 206.101 488.595V457.662L223.77 457.655Z" fill="#9E616A"/>
<path d="M138.232 245.526C151.431 245.526 162.131 235.195 162.131 222.452C162.131 209.708 151.431 199.377 138.232 199.377C125.034 199.377 114.334 209.708 114.334 222.452C114.334 235.195 125.034 245.526 138.232 245.526Z" fill="#9E616A"/>
<path d="M226.307 469.431C225.645 468.555 224.956 467.64 224.916 466.764C224.764 463.674 224.605 460.617 224.439 457.623C224.32 455.531 224.201 453.465 224.081 451.444C224.068 451.188 224.048 450.932 224.035 450.683C223.83 447.338 224.856 443.807 225.844 440.385C226.168 439.265 226.493 438.133 226.784 437.001C227.513 434.478 227.819 431.858 227.692 429.242C225.996 408.524 218.417 389.04 215.018 385.758C209.851 380.769 186.485 369.243 171.744 362.232C169.127 360.985 166.782 359.884 164.861 358.989C163.158 358.189 161.787 357.556 160.853 357.121C160.137 356.795 159.674 356.584 159.515 356.507L159.435 356.469L154.102 357.044L153.247 357.14L148.544 357.652L117.943 360.966L113.22 361.477L106.535 362.206L100.5 362.859L100.274 362.878L100.235 363.096C100.235 363.102 100.221 363.147 100.208 363.23C99.1703 369.553 99.1703 375.994 100.208 382.317C100.99 386.609 102.467 390.972 105.091 394.643C105.449 395.142 105.82 395.622 106.217 396.082C106.23 396.107 106.248 396.128 106.27 396.146C106.356 396.249 106.442 396.351 106.535 396.453V396.46C109.536 399.829 113.564 402.196 118.043 403.221C118.705 403.394 119.381 403.534 120.076 403.649C127.49 404.916 135.864 406.08 144.072 407.104C147.471 407.526 150.843 407.922 154.102 408.293C160.628 409.035 166.723 409.662 171.744 410.161C178.78 410.852 183.722 411.28 184.822 411.37L197.111 466.725C196.147 468.3 195.762 470.144 196.019 471.956C196.277 473.769 197.161 475.444 198.529 476.71L199.536 477.651L200.702 482.921L204.544 487.885L205.028 488.512H221.981L222.074 488.403C222.134 488.326 228.096 480.932 227.692 472.124C227.652 471.216 226.996 470.352 226.307 469.431Z" fill="#2F2E41"/>
<path d="M225.844 283.91C224.561 283.571 223.215 283.508 221.904 283.725C220.592 283.943 219.345 284.435 218.252 285.168C217.159 285.901 216.245 286.856 215.576 287.967C214.906 289.077 214.497 290.316 214.377 291.596L194.52 297.588L195.349 310.127L223.267 301.284C225.507 301.337 227.689 300.594 229.4 299.196C231.11 297.799 232.231 295.844 232.549 293.702C232.866 291.561 232.359 289.381 231.124 287.576C229.888 285.771 228.01 284.467 225.844 283.91Z" fill="#9E616A"/>
<path d="M212.889 304.659L198.048 310.082L197.669 310.793C197.218 311.637 196.6 312.387 195.849 313C195.099 313.613 194.23 314.078 193.294 314.367C192.357 314.656 191.371 314.764 190.391 314.685C189.411 314.606 188.457 314.342 187.583 313.907L154.226 326.096C154.226 326.096 139.33 311.703 128.724 298.858L132.339 277.392C133.176 272.412 134.955 267.622 137.588 263.264C159.338 267.869 171.824 297.226 171.824 297.226L211.024 290.004L212.889 304.659Z" fill="#B5FBD6"/>
<path d="M134.836 244.293C128.853 245.853 122.258 243.779 117.588 239.844C112.919 235.91 109.999 230.335 108.316 224.576C107.083 220.358 106.499 215.676 108.444 211.717C110.389 207.757 115.623 205.086 119.662 207.086C117.171 204.284 118.415 199.649 121.325 197.251C124.234 194.854 128.23 194.166 132.035 193.791C137.558 193.245 143.262 193.184 148.517 194.912C153.772 196.639 158.547 200.416 160.192 205.535C161.871 206.29 163.763 206.486 165.571 206.092C167.378 205.698 168.999 204.736 170.18 203.358C170.484 204.941 170.24 206.577 169.484 208.013C168.729 209.449 167.504 210.604 166 211.3L174.051 208.78C175.436 211.61 173.01 215.112 169.907 216.019C166.804 216.925 163.455 215.934 160.51 214.625C157.566 213.316 154.712 211.66 151.514 211.15C148.316 210.639 144.559 211.631 143.08 214.416C142.305 215.875 142.264 217.584 141.815 219.164C141.365 220.745 140.225 222.384 138.532 222.513C137.463 222.595 136.416 222.045 135.35 222.158C134.695 222.282 134.093 222.588 133.616 223.038C133.139 223.488 132.808 224.063 132.664 224.691C132.398 225.953 132.395 227.253 132.654 228.517L134.699 243.611L134.836 244.293Z" fill="#2F2E41"/>
<path d="M164.861 358.989L163.596 357.153L154.36 343.778L154.175 343.516L157.03 329.213L157.918 324.748L159.859 315.032L159.296 292.791L158.892 277.056L158.832 274.587L156.785 268.561C155.815 265.744 154.256 263.148 152.204 260.935C150.153 258.723 147.654 256.94 144.86 255.698L131.08 249.608C129.459 248.896 127.61 248.834 125.941 249.437C124.273 250.04 122.921 251.259 122.182 252.824C122.121 252.955 122.063 253.088 122.011 253.222C120.123 253.472 111.928 254.802 104.978 260.009C100.11 263.586 96.7109 268.712 95.3852 274.478C95.372 274.523 95.3654 274.568 95.3521 274.612C94.4312 278.585 93.7422 284.853 93.2984 293.348C93.0003 298.964 92.8125 305.544 92.7353 313.087C92.6116 325.662 93.3441 338.23 94.9281 350.712C95.0805 351.901 95.2395 353.085 95.4051 354.274C95.5442 355.272 96.538 356.225 97.4986 357.14C98.3797 357.978 99.2873 358.848 99.4132 359.635C99.5258 360.326 99.0687 361.048 98.5254 361.803C98.4592 361.899 98.3863 361.995 98.3201 362.091C97.6443 363.018 96.9487 363.984 97.1276 365.001C97.545 367.291 97.7901 369.62 98.022 371.871C98.2809 374.971 98.7456 378.052 99.4132 381.095C99.6451 382.029 99.9101 382.969 100.208 383.909C100.904 386.116 101.745 388.317 102.567 390.466C103.276 392.334 104.011 394.253 104.634 396.146C104.753 396.498 104.866 396.843 104.972 397.189L105.025 397.368L105.217 397.4H105.23C105.491 396.95 105.802 396.53 106.157 396.146C106.173 396.122 106.194 396.1 106.217 396.082C106.31 395.973 106.416 395.858 106.535 395.737C107.986 394.208 111.139 391.464 118.043 386.839C119.586 385.809 121.315 384.69 123.25 383.462C130.345 378.978 140.256 373.138 154.102 365.596C157.574 363.703 161.299 361.701 165.278 359.59L164.861 358.989Z" fill="#B5FBD6"/>
<path d="M239.173 499.699C237.564 498.139 235.65 496.902 233.543 496.06C231.436 495.218 229.177 494.788 226.897 494.793L219.696 489.522L218.748 488.825L212.335 491.345C214.574 492.298 216.84 493.226 219.113 494.121C226.221 496.923 233.48 499.426 240.889 501.631C240.368 500.946 239.794 500.3 239.173 499.699Z" fill="#2F2E41"/>
<path d="M399.12 480.255L390.1 476.09L402.49 439.691L415.801 445.838L399.12 480.255Z" fill="#FFB6B6"/>
<path d="M459.585 474.388C456.961 475.968 454.305 477.503 451.615 478.994V479.013L451.575 479.019L451.562 479.026L450.542 479.269L449.077 475.533L445.699 466.917L436.49 443.442L450.807 440.033L451.615 443.199L457.67 466.911L459.406 473.691L459.585 474.388Z" fill="#FFB6B6"/>
<path d="M423.071 322.048C424.358 324.065 426.41 325.517 428.79 326.094C431.169 326.67 433.688 326.325 435.809 325.133C436.235 324.884 436.639 324.602 437.017 324.288L465.532 340.087L464.293 323.869L437.405 311.352C435.942 309.933 434.033 309.023 431.977 308.764C429.92 308.506 427.833 308.913 426.042 309.923C423.993 311.111 422.516 313.037 421.937 315.277C421.358 317.516 421.724 319.886 422.955 321.865C422.993 321.927 423.032 321.988 423.071 322.048Z" fill="#FFB6B6"/>
<path d="M453.272 334.137L458.313 337.103L480.95 350.431C482.436 351.329 484.09 351.935 485.819 352.215C487.547 352.496 489.316 352.445 491.024 352.065C492.732 351.685 494.346 350.984 495.774 350.002C497.201 349.02 498.415 347.776 499.344 346.342L499.352 346.33C501.028 343.664 501.621 340.493 501.016 337.429L490.955 288.897C490.584 286.991 489.79 285.186 488.629 283.604C487.469 282.022 485.968 280.701 484.229 279.731C482.491 278.76 480.556 278.164 478.557 277.982C476.558 277.8 474.542 278.037 472.646 278.677C469.46 279.758 466.82 281.971 465.264 284.864C463.707 287.758 463.351 291.115 464.267 294.253L474.788 328.696L458.662 321.437L453.272 334.137Z" fill="#B5FBD6"/>
<path d="M546.093 381.991C546.086 381.972 546.073 381.901 546.053 381.792L546.033 381.722C545.987 381.492 545.934 381.236 545.874 380.954C544.523 374.473 542.786 368.073 540.674 361.784C539.422 357.933 537.764 354.216 535.725 350.693C535.659 350.577 535.586 350.462 535.513 350.347L535.268 349.963L533.208 350.693L533.128 350.718L501.805 361.803L492.749 365.008L492.464 365.11L490.921 371.187L469.264 368.481L451.615 366.274L446.547 365.641C444.35 365.365 442.118 365.513 439.98 366.078C437.843 366.642 435.844 367.611 434.098 368.929C432.277 370.292 430.755 371.992 429.621 373.93C428.487 375.867 427.764 378.003 427.493 380.212C427.427 380.699 427.387 381.191 427.368 381.677L425.837 436.796V436.866L426.546 438.235L441.353 466.917H451.615L457.67 466.911H462.592L452.357 441.907L452.589 441.568C453.552 440.142 454.159 438.521 454.362 436.83C454.566 435.14 454.36 433.427 453.761 431.826L454.914 428.602C457.306 421.943 456.173 418.745 454.742 414.702C453.457 411.415 452.701 407.957 452.503 404.449L452.264 399.888C458.273 400.905 463.871 402.037 469.264 403.176C471.066 403.553 472.85 403.935 474.617 404.321C479.645 405.402 484.501 406.445 489.258 407.314C498.89 409.086 508.119 410.167 517.599 409.496C517.785 409.483 517.97 409.47 518.156 409.451C520.461 409.272 522.78 408.984 525.125 408.581C526.444 408.351 527.768 408.088 529.107 407.781C529.478 407.692 529.855 407.602 530.226 407.513C531.257 407.251 532.249 406.866 533.181 406.368C534.507 405.653 535.741 404.79 536.858 403.796C536.865 403.79 536.871 403.79 536.871 403.784C538.7 401.276 540.482 398.73 542.218 396.146C543.152 394.758 544.079 393.357 544.987 391.95C546.312 388.438 546.815 384.895 546.093 381.991Z" fill="#2F2E41"/>
<path d="M546.312 371.635C546.212 371.225 546.086 370.81 545.954 370.407C544.902 367.355 543.677 364.361 542.284 361.439C540.72 358.113 538.845 354.55 536.613 350.693C535.533 348.825 534.371 346.882 533.128 344.865C532.505 343.855 531.858 342.825 531.187 341.776C531.161 341.728 531.132 341.681 531.101 341.635L530.909 341.328L499.917 345.332L488.377 346.823L487.688 352.375L487.522 353.75C487.515 353.75 487.515 353.75 487.522 353.757L487.058 357.505V357.511L486.442 362.462L486.389 362.456L469.264 360.313L451.615 358.106L442.135 356.923C439.937 356.646 437.705 356.795 435.568 357.359C433.431 357.924 431.432 358.893 429.686 360.211C427.865 361.574 426.343 363.274 425.209 365.211C424.075 367.148 423.352 369.284 423.081 371.494C423.022 371.942 422.982 372.402 422.962 372.857L414.018 393.319C408.667 405.557 405.258 418.504 403.909 431.724L397.35 451.969L398.284 452.052L412.183 453.299L415.853 453.632L423.936 442.239C424.857 440.941 425.731 439.604 426.546 438.235C427.888 436 429.08 433.684 430.117 431.301L447.6 391.131C448.952 391.355 450.29 391.569 451.615 391.771C457.743 392.73 463.626 393.513 469.264 394.119C487.595 396.095 503.468 396.249 517.599 394.573C521.568 394.106 525.403 393.492 529.107 392.73C530.465 392.455 531.805 392.159 533.128 391.841C533.439 391.771 533.744 391.701 534.049 391.624C536.787 390.942 539.304 389.608 541.37 387.744C543.436 385.88 544.985 383.546 545.874 380.955C546.937 377.952 547.088 374.718 546.312 371.635Z" fill="#2F2E41"/>
<path d="M480.41 250.824C492.249 250.824 501.847 241.351 501.847 229.665C501.847 217.979 492.249 208.505 480.41 208.505C468.57 208.505 458.973 217.979 458.973 229.665C458.973 241.351 468.57 250.824 480.41 250.824Z" fill="#FFB6B6"/>
<path d="M531.313 342.486C531.28 342.249 531.24 342.012 531.187 341.776C530.677 339.179 529.352 336.633 528.073 334.164C526.854 331.81 525.695 329.584 525.218 327.371C524.748 325.19 525.026 323.002 525.298 320.891C525.589 318.601 525.894 316.235 525.211 313.938C521.751 302.211 516.998 290.875 511.034 280.126C509.529 275.4 506.645 271.192 502.726 268.009C498.807 264.825 494.02 262.801 488.94 262.178C489.533 261.108 489.78 259.892 489.649 258.685C489.566 257.906 489.323 257.15 488.935 256.461C488.548 255.773 488.022 255.165 487.39 254.674C486.782 254.202 486.083 253.85 485.334 253.639C484.584 253.428 483.799 253.363 483.024 253.446L473.06 254.527C471.462 254.721 470.009 255.516 469.015 256.739C468.021 257.962 467.568 259.514 467.753 261.058C467.809 261.534 467.92 262.001 468.084 262.453C458.836 273.826 454.086 284.188 453.649 293.987V293.994C453.596 295.126 453.602 296.259 453.669 297.39C453.878 301.049 454.702 304.65 456.107 308.053C457.766 311.985 459.987 315.673 462.705 319.011C463.262 319.689 463.838 320.354 464.434 321.006C464.991 321.646 465.613 322.318 466.302 323.021L468.045 325.657L469.668 328.119L478.347 347.456L482.765 347.315L483.381 351.569L483.527 352.56L486.389 362.456L486.601 363.198L490.517 361.4L513.876 350.692L531.339 342.684L531.313 342.486Z" fill="#B5FBD6"/>
<path opacity="0.2" d="M456.369 307.951C458.361 312.661 461.161 317.014 464.651 320.826C465.249 321.515 465.88 322.192 466.541 322.87L469.932 328.008C482.433 318.961 492.561 283.339 492.561 283.339L478.457 280.69L456.369 307.951Z" fill="black"/>
<path d="M447.83 252.801C449.065 254.849 449.423 257.282 448.829 259.582C448.235 261.882 446.735 263.867 444.648 265.115C444.219 265.362 443.77 265.574 443.306 265.75L444.304 297.479L430.073 288.829L431.307 260.025C430.701 258.108 430.77 256.052 431.502 254.177C432.235 252.302 433.589 250.714 435.355 249.66C437.396 248.468 439.843 248.108 442.159 248.658C444.476 249.208 446.47 250.625 447.705 252.595C447.747 252.663 447.789 252.732 447.83 252.801Z" fill="#FFB6B6"/>
<path d="M445.555 285.502L429.905 287.651L430.578 318.941C430.617 321.174 431.247 323.359 432.407 325.29C433.567 327.221 435.22 328.834 437.207 329.975C439.635 331.354 442.462 331.934 445.261 331.627C448.061 331.32 450.681 330.143 452.727 328.273L489.674 293.961C492.274 291.58 493.829 288.327 494.021 284.873C494.213 281.418 493.027 278.024 490.706 275.388C488.432 272.789 485.182 271.169 481.671 270.884C478.16 270.598 474.675 271.672 471.984 273.867C471.878 273.953 471.774 274.04 471.672 274.129C471.307 274.445 470.96 274.779 470.632 275.13L446.235 302.228L445.555 285.502Z" fill="#B5FBD6"/>
<path d="M459.982 473.589L459.406 473.691L451.615 475.079L449.077 475.533L445.083 476.243L446.5 481.764C448.203 480.875 449.886 479.96 451.562 479.026L451.575 479.02L451.615 479.013V478.994C454.305 477.51 456.961 475.975 459.585 474.388C459.77 474.28 459.956 474.171 460.141 474.049L459.982 473.589Z" fill="#2F2E41"/>
<path d="M402.001 474.311L392.242 469.795L390.712 469.085L388.267 474.881L371.201 478.507C370.358 478.686 369.595 479.121 369.025 479.747C368.455 480.374 368.108 481.161 368.034 481.992C367.96 482.823 368.163 483.655 368.614 484.366C369.064 485.078 369.739 485.632 370.539 485.947L387.214 492.516L392.507 487.917L391.209 494.089L397.489 496.565L404.372 475.412L402.001 474.311Z" fill="#2F2E41"/>
<path d="M537.774 220.488C534.13 216.385 532.398 210.942 529.485 206.283C526.572 201.624 521.502 197.454 516.147 198.538C512.455 199.286 509.602 202.431 508.158 205.937C506.714 209.444 506.443 213.311 506.19 217.099C506.28 209.314 500.967 201.767 493.649 199.283C486.332 196.798 477.574 199.569 472.976 205.824C470.969 204.028 468.35 203.006 465.615 202.95C462.879 202.895 460.218 203.81 458.135 205.523C454.022 209.072 453.112 215.828 456.137 220.355C459.162 224.882 465.712 226.569 470.519 224.058L472.219 225.567C471.262 228.798 473.117 232.613 476.236 233.829C478.764 234.816 482.334 234.651 483.28 237.214C483.942 239.004 482.706 240.915 481.391 242.29C480.076 243.666 478.516 245.087 478.358 246.99C478.119 249.862 481.193 251.875 483.988 252.481C490.726 253.942 498.203 250.929 502.087 245.187C502.162 245.076 502.243 244.966 502.331 244.855C504.51 242.164 506.098 239.073 506.998 235.77C507.898 232.467 508.091 229.021 507.565 225.644C507.347 224.317 507.567 223.33 508.515 223.015C512.611 221.657 524.086 224.508 527.559 227.085C531.032 229.661 533.813 233.071 537.159 235.814C540.504 238.558 544.767 240.673 549.015 239.926C552.417 239.328 555.311 236.944 557.257 234.067C559.204 231.191 560.324 227.838 561.328 224.506C553.805 228.702 543.509 226.946 537.774 220.488Z" fill="#2F2E41"/>
<path d="M469.261 346.616V468.277C466.863 469.87 464.434 471.42 461.974 472.927V354.682C461.974 351.253 460.781 348.471 459.317 348.464H349.018C347.548 348.471 346.362 351.253 346.355 354.682V511.69C344.885 511.831 343.414 511.965 341.943 512.08C341.334 512.132 340.717 512.176 340.108 512.221C339.757 511.594 339.412 510.961 339.068 510.321V346.616C339.068 345.669 339.108 344.716 339.174 343.776C339.77 335.793 342.731 329.959 346.196 329.946H462.133C462.552 329.949 462.967 330.034 463.352 330.196C466.253 331.386 468.546 336.605 469.122 343.353C469.215 344.428 469.268 345.522 469.261 346.616Z" fill="#E4E4E4"/>
<path d="M292.289 346.616V511.204C292.19 511.358 292.09 511.505 291.991 511.658C289.5 511.415 287.02 511.136 284.551 510.82V354.682C284.551 351.253 283.286 348.471 281.729 348.464H164.66C163.103 348.471 161.837 351.253 161.837 354.682V463.077C159.221 461.215 156.641 459.307 154.099 457.352V346.616C154.099 345.669 154.139 344.716 154.212 343.776C154.841 335.793 157.988 329.959 161.672 329.946H284.717C285.16 329.947 285.599 330.032 286.009 330.196C289.089 331.386 291.527 336.605 292.143 343.353C292.243 344.428 292.289 345.522 292.289 346.616Z" fill="#E4E4E4"/>
<path d="M253.055 291.919L260.728 324.512L265.63 329.697H269.167L254.59 270.436L253.869 280.504V280.511L253.055 291.919Z" fill="#3F3D56"/>
<path d="M278.605 331.362C278.582 331.312 278.553 331.265 278.518 331.222C278.448 331.068 278.347 330.929 278.22 330.812L277.326 329.949L272.622 325.401C272.277 325.075 271.814 324.891 271.33 324.889H271.311L267.991 324.908L265.136 324.928L261.148 324.953L233.986 325.119L216.131 325.228C215.648 325.234 215.186 325.423 214.845 325.754C214.504 326.086 214.312 326.533 214.31 327C214.312 327.258 214.371 327.513 214.482 327.748L214.826 328.458L215.548 329.949L216.489 331.9L216.953 332.859C217.101 333.165 217.336 333.423 217.63 333.604C217.925 333.786 218.267 333.882 218.616 333.883H276.922C277.229 333.877 277.529 333.799 277.797 333.654C278.065 333.51 278.292 333.304 278.459 333.055C278.625 332.806 278.725 332.522 278.751 332.226C278.776 331.931 278.726 331.635 278.605 331.362H278.605Z" fill="#3F3D56"/>
<path opacity="0.17" d="M216.49 331.898L216.95 332.861C217.1 333.166 217.336 333.423 217.63 333.604C217.925 333.785 218.266 333.882 218.615 333.883H276.924C277.23 333.878 277.531 333.8 277.799 333.656C278.067 333.512 278.294 333.306 278.46 333.057C278.626 332.808 278.726 332.523 278.751 332.228C278.776 331.933 278.726 331.637 278.604 331.365C278.583 331.314 278.555 331.267 278.519 331.224L216.49 331.898Z" fill="black"/>
<path opacity="0.17" d="M253.869 280.504V280.511L266.352 329.697H269.167L254.59 270.436L253.869 280.504Z" fill="black"/>
<path d="M273.45 142.857L271.622 142.62C271.12 142.557 270.613 142.688 270.211 142.985L269.118 143.797L256.948 158.497C256.546 158.797 256.284 159.238 256.219 159.725L255.536 164.727L238.55 289.516C238.49 289.979 238.61 290.446 238.888 290.828L246.891 312.128L247.129 312.461L247.646 313.171C247.912 313.531 248.302 313.789 248.746 313.9L249.905 314.181C250.169 314.245 250.443 314.254 250.71 314.208C250.978 314.161 251.231 314.061 251.455 313.913C251.68 313.767 251.87 313.576 252.012 313.353C252.154 313.13 252.244 312.88 252.277 312.621L254.351 297.41V297.403L255.676 287.642L256.795 279.41V279.403L275.107 144.93C275.173 144.444 275.036 143.953 274.727 143.565C274.419 143.176 273.963 142.922 273.46 142.858L273.45 142.857Z" fill="#3F3D56"/>
<path opacity="0.17" d="M269.115 143.798L246.89 312.131L247.131 312.46L247.646 313.168C247.912 313.529 248.302 313.788 248.746 313.898L249.907 314.18C250.17 314.243 250.444 314.251 250.71 314.205C250.977 314.159 251.23 314.059 251.454 313.912C251.678 313.765 251.867 313.573 252.009 313.351C252.151 313.128 252.243 312.879 252.278 312.62L275.105 144.931C275.171 144.445 275.034 143.952 274.724 143.563C274.414 143.173 273.957 142.918 273.453 142.854L271.62 142.621C271.371 142.589 271.118 142.605 270.876 142.668C270.633 142.73 270.406 142.839 270.208 142.988L269.115 143.798Z" fill="black"/>
<path d="M268.46 148.612L256.665 164.866L242.647 267.85L250.247 282.408L268.46 148.612Z" fill="#B5FBD6"/>
<path d="M383.349 291.919L375.677 324.512L370.774 329.697H367.237L381.814 270.436L382.535 280.504V280.511L383.349 291.919Z" fill="#3F3D56"/>
<path d="M420.272 325.228L375.262 324.953L371.268 324.928L368.419 324.908L365.1 324.889H365.073C364.592 324.89 364.13 325.074 363.788 325.401L358.183 330.812C358.059 330.93 357.958 331.069 357.885 331.222C357.85 331.265 357.821 331.312 357.799 331.362C357.678 331.635 357.628 331.931 357.653 332.226C357.679 332.522 357.779 332.806 357.945 333.055C358.111 333.304 358.338 333.51 358.606 333.654C358.874 333.799 359.175 333.877 359.482 333.883H417.788C418.138 333.881 418.48 333.785 418.776 333.604C419.071 333.422 419.307 333.164 419.457 332.859L419.914 331.9L420.855 329.949L421.922 327.748C422.036 327.514 422.095 327.259 422.094 327C422.091 326.533 421.899 326.086 421.558 325.754C421.218 325.423 420.756 325.234 420.272 325.228Z" fill="#3F3D56"/>
<path opacity="0.17" d="M419.914 331.898L419.454 332.861C419.304 333.166 419.069 333.423 418.774 333.604C418.48 333.785 418.138 333.882 417.789 333.883H359.481C359.174 333.878 358.874 333.8 358.606 333.656C358.338 333.512 358.111 333.306 357.945 333.057C357.779 332.808 357.679 332.523 357.653 332.228C357.628 331.933 357.679 331.637 357.801 331.365C357.821 331.314 357.85 331.267 357.885 331.224L419.914 331.898Z" fill="black"/>
<path opacity="0.17" d="M382.535 280.504V280.511L370.053 329.697H367.237L381.814 270.436L382.535 280.504Z" fill="black"/>
<path d="M397.853 289.516L380.185 159.725C380.12 159.238 379.858 158.797 379.456 158.497L367.293 143.798L366.2 142.985C365.795 142.689 365.286 142.558 364.782 142.621L362.953 142.857C362.449 142.92 361.991 143.174 361.681 143.562C361.37 143.951 361.232 144.443 361.297 144.93L379.608 279.41V279.416L380.728 287.642L382.06 297.41V297.423L384.127 312.621C384.16 312.881 384.251 313.131 384.394 313.355C384.537 313.578 384.728 313.768 384.955 313.913C385.177 314.061 385.43 314.161 385.697 314.208C385.963 314.254 386.236 314.245 386.498 314.181L387.658 313.9C388.102 313.79 388.491 313.531 388.757 313.171L389.274 312.461L389.513 312.128L397.516 290.828C397.796 290.448 397.917 289.979 397.853 289.516Z" fill="#3F3D56"/>
<path opacity="0.17" d="M367.29 143.798L389.515 312.131L389.273 312.461L388.758 313.169C388.493 313.53 388.103 313.788 387.658 313.898L386.497 314.18C386.234 314.243 385.961 314.252 385.694 314.206C385.428 314.159 385.174 314.059 384.951 313.912C384.727 313.765 384.538 313.574 384.396 313.351C384.254 313.129 384.162 312.88 384.126 312.621L361.3 144.932C361.234 144.445 361.371 143.953 361.68 143.563C361.99 143.174 362.447 142.919 362.952 142.855L364.785 142.622C365.033 142.589 365.286 142.605 365.529 142.668C365.771 142.731 365.998 142.84 366.197 142.988L367.29 143.798Z" fill="black"/>
<path d="M367.945 148.612L379.739 164.866L393.757 267.85L386.157 282.408L367.945 148.612Z" fill="#B5FBD6"/>
<path d="M148.729 356.245C148.731 356.566 148.702 356.887 148.643 357.204C148.617 357.358 148.583 357.505 148.544 357.652C148.221 358.841 147.499 359.894 146.491 360.645C145.483 361.396 144.246 361.803 142.972 361.803H118.042V419.212C118.044 420.425 117.632 421.605 116.87 422.57C116.3 421.924 115.737 421.278 115.181 420.625C112.199 417.184 109.317 413.666 106.535 410.071V361.803H95.4051C93.921 361.802 92.4947 361.248 91.4241 360.255C90.3535 359.263 89.7214 357.91 89.6598 356.478C89.5982 355.046 90.112 353.647 91.0937 352.573C92.0754 351.498 93.4492 350.831 94.9281 350.712C95.0871 350.699 95.2461 350.692 95.4051 350.692H142.972C144.498 350.692 145.962 351.276 147.041 352.318C148.121 353.359 148.728 354.771 148.729 356.245Z" fill="#3F3D56"/>
<path d="M545.98 356.245C545.981 357.37 545.628 358.469 544.968 359.396C544.308 360.323 543.372 361.036 542.284 361.439C541.768 361.629 541.225 361.746 540.674 361.784C540.528 361.797 540.376 361.803 540.23 361.803H529.107V413.909C528.941 414.12 528.769 414.331 528.597 414.542C525.98 417.773 523.283 420.939 520.508 424.041C519.621 423.559 518.885 422.857 518.373 422.008C517.862 421.159 517.595 420.194 517.599 419.212V361.803H492.663C491.927 361.805 491.198 361.669 490.516 361.4C489.658 361.069 488.896 360.542 488.293 359.865C487.691 359.188 487.268 358.38 487.058 357.511V357.505C486.749 356.242 486.913 354.914 487.522 353.756C487.515 353.75 487.515 353.75 487.522 353.75C487.785 353.241 488.129 352.774 488.542 352.368C489.079 351.838 489.72 351.416 490.427 351.128C491.135 350.841 491.895 350.692 492.663 350.692H540.23C541.755 350.692 543.217 351.277 544.296 352.318C545.374 353.358 545.98 354.77 545.981 356.243L545.98 356.245Z" fill="#3F3D56"/>
<path d="M545.6 249.207C543.232 249.207 540.887 249.657 538.7 250.532C536.513 251.407 534.525 252.689 532.851 254.306C531.177 255.922 529.849 257.841 528.942 259.953C528.036 262.065 527.57 264.329 527.57 266.615V266.615C527.571 270.653 529.025 274.566 531.684 277.682C534.344 280.799 538.042 282.927 542.147 283.7V312.172H553.655V249.207H545.6Z" fill="#3F3D56"/>
<path d="M230.816 312.772C229.668 312.121 228.387 311.722 227.062 311.601C225.737 311.481 224.4 311.642 223.147 312.074C221.894 312.506 220.753 313.198 219.807 314.102C218.86 315.005 218.131 316.098 217.669 317.303L196.881 318.086L194.08 327.435L223.633 328.896C225.782 329.51 228.089 329.343 230.118 328.425C232.147 327.507 233.757 325.902 234.642 323.914C235.528 321.927 235.627 319.695 234.922 317.641C234.217 315.588 232.756 313.855 230.816 312.772H230.816Z" fill="#9E616A"/>
<path d="M213.74 329.904L192.387 329.646L189.684 329.611L146.239 329.083C146.239 329.083 134.441 318.216 124.168 307.027L125.608 296.971C127.013 287.103 132.083 278.063 139.875 271.535C154.589 281.027 163.121 299.816 163.121 299.816L177.428 305.997C187.496 306.432 197.307 309.206 206.027 314.084L210.732 316.716L213.74 329.904Z" fill="#B5FBD6"/>
<path d="M280.831 510.324H357.852C352.598 511.066 347.296 511.652 341.946 512.083H296.737C291.384 511.654 286.082 511.068 280.831 510.324Z" fill="#CCCCCC"/>
<path d="M296.316 472.885C297.807 459.896 305.953 447.011 318.704 442.626C313.837 456.039 314.041 470.681 319.28 483.963C321.319 489.078 324.139 494.562 322.359 499.767C321.252 503.005 318.468 505.508 315.34 507.091C312.211 508.674 308.725 509.454 305.283 510.219L304.611 510.77C298.965 498.892 294.825 485.875 296.316 472.885Z" fill="#CCCCCC"/>
<path d="M318.835 442.87C311.487 451.036 306.991 461.23 305.985 472.003C305.726 474.319 305.847 476.659 306.343 478.939C306.9 481.144 308.059 483.165 309.698 484.792C311.196 486.338 312.913 487.753 313.995 489.624C314.534 490.589 314.856 491.654 314.939 492.748C315.022 493.842 314.864 494.941 314.477 495.972C313.58 498.566 311.772 500.694 309.929 502.715C307.882 504.96 305.72 507.26 304.877 510.212C304.775 510.569 304.207 510.396 304.308 510.039C305.774 504.903 310.877 501.931 313.266 497.292C314.381 495.127 314.826 492.625 313.722 490.369C312.756 488.397 310.987 486.937 309.457 485.384C307.833 483.819 306.63 481.895 305.955 479.779C305.34 477.531 305.127 475.199 305.323 472.882C305.678 467.659 306.881 462.523 308.889 457.661C311.149 452.1 314.377 446.953 318.434 442.443C318.685 442.164 319.084 442.592 318.835 442.87H318.835Z" fill="white"/>
<path d="M306.098 468.516C304.248 468.108 302.61 467.078 301.474 465.611C300.339 464.144 299.78 462.335 299.899 460.507C299.904 460.432 299.94 460.363 299.997 460.313C300.055 460.263 300.13 460.237 300.207 460.239C300.285 460.242 300.358 460.274 300.411 460.328C300.465 460.381 300.495 460.453 300.495 460.528C300.381 462.23 300.902 463.915 301.962 465.279C303.022 466.643 304.553 467.596 306.277 467.967C306.652 468.048 306.47 468.597 306.098 468.516H306.098Z" fill="white"/>
<path d="M308.832 484.104C312.135 482.142 314.55 479.05 315.596 475.445C315.7 475.088 316.268 475.261 316.165 475.618C315.069 479.368 312.549 482.581 309.108 484.615C308.779 484.809 308.506 484.297 308.832 484.104Z" fill="white"/>
<path d="M311.71 452.638C312.391 452.94 313.139 453.074 313.888 453.028C314.636 452.981 315.36 452.756 315.996 452.373C316.322 452.175 316.595 452.687 316.272 452.884C315.567 453.304 314.767 453.552 313.94 453.605C313.113 453.658 312.286 453.515 311.53 453.188C311.456 453.163 311.395 453.111 311.359 453.044C311.323 452.977 311.314 452.899 311.335 452.826C311.36 452.754 311.412 452.693 311.482 452.658C311.552 452.623 311.634 452.616 311.71 452.638L311.71 452.638Z" fill="white"/>
<path d="M358.069 465.284C357.869 465.413 357.669 465.542 357.47 465.676C354.796 467.424 352.273 469.378 349.927 471.52C349.743 471.683 349.559 471.851 349.38 472.018C343.785 477.237 339.242 483.413 335.982 490.233C334.687 492.948 333.608 495.754 332.754 498.627C331.576 502.595 330.624 506.987 328.227 510.251C327.981 510.595 327.713 510.923 327.425 511.234L305.359 511.519C305.309 511.495 305.258 511.477 305.207 511.453L304.327 511.503C304.36 511.352 304.398 511.196 304.432 511.045C304.451 510.957 304.474 510.869 304.493 510.782C304.507 510.723 304.522 510.664 304.531 510.611C304.536 510.591 304.541 510.572 304.546 510.557C304.555 510.504 304.569 510.455 304.579 510.406C304.788 509.533 305.004 508.66 305.227 507.787C305.227 507.782 305.227 507.782 305.232 507.777C306.864 501.108 309.31 494.65 312.519 488.538C312.617 488.357 312.715 488.171 312.823 487.989C314.311 485.283 316.025 482.698 317.948 480.261C319.006 478.93 320.133 477.651 321.324 476.43C324.409 473.281 327.988 470.619 331.93 468.544C339.788 464.407 348.929 462.743 357.422 465.098C357.639 465.159 357.851 465.219 358.069 465.284Z" fill="#CCCCCC"/>
<path d="M358.023 465.555C347.064 467.804 337.118 473.33 329.597 481.348C327.946 483.046 326.582 484.985 325.557 487.093C324.627 489.178 324.292 491.465 324.587 493.717C324.818 495.822 325.307 497.95 325.004 500.073C324.832 501.157 324.425 502.194 323.809 503.116C323.193 504.038 322.383 504.823 321.43 505.421C319.097 506.971 316.326 507.619 313.594 508.162C310.56 508.764 307.399 509.344 304.886 511.211C304.582 511.437 304.236 510.968 304.54 510.742C308.912 507.493 314.84 508.087 319.64 505.771C321.88 504.691 323.797 502.952 324.321 500.509C324.78 498.373 324.278 496.179 324.024 494.049C323.703 491.856 323.943 489.621 324.723 487.538C325.634 485.386 326.918 483.4 328.519 481.664C332.06 477.7 336.224 474.299 340.858 471.584C346.13 468.457 351.917 466.224 357.969 464.982C358.344 464.905 358.395 465.479 358.023 465.555H358.023Z" fill="white"/>
<path d="M331.861 478.628C330.639 477.227 329.973 475.453 329.981 473.621C329.989 471.79 330.671 470.021 331.906 468.63C332.157 468.349 332.62 468.712 332.369 468.993C331.217 470.286 330.581 471.934 330.577 473.64C330.573 475.345 331.201 476.996 332.347 478.294C332.595 478.577 332.108 478.909 331.861 478.628Z" fill="white"/>
<path d="M324.324 492.665C328.184 493.018 332.041 491.953 335.124 489.683C335.429 489.457 335.775 489.927 335.47 490.152C332.257 492.509 328.241 493.609 324.225 493.233C323.842 493.197 323.943 492.629 324.324 492.665V492.665Z" fill="white"/>
<path d="M346.242 469.213C346.598 469.85 347.112 470.392 347.739 470.79C348.365 471.188 349.084 471.429 349.831 471.493C350.214 471.524 350.112 472.092 349.732 472.061C348.907 471.987 348.114 471.72 347.421 471.281C346.728 470.843 346.156 470.248 345.756 469.547C345.713 469.484 345.696 469.408 345.709 469.333C345.722 469.259 345.764 469.192 345.826 469.146C345.891 469.102 345.971 469.084 346.049 469.097C346.127 469.109 346.196 469.151 346.242 469.213Z" fill="white"/>
<path d="M369.514 483.381C373.39 483.381 376.532 480.347 376.532 476.605C376.532 472.863 373.39 469.829 369.514 469.829C365.639 469.829 362.497 472.863 362.497 476.605C362.497 480.347 365.639 483.381 369.514 483.381Z" fill="#CCCCCC"/>
<path d="M392.426 503.169C391.995 503.29 391.558 503.412 391.121 503.527C387.152 504.601 383.155 505.584 379.13 506.476C378.666 505.572 378.418 504.58 378.402 503.572C378.386 502.564 378.603 501.566 379.038 500.649C379.473 499.733 380.114 498.921 380.915 498.275C381.716 497.628 382.656 497.161 383.667 496.91C384.678 496.658 385.734 496.628 386.759 496.821C387.784 497.014 388.751 497.425 389.591 498.025C390.43 498.624 391.12 499.397 391.61 500.287C392.101 501.177 392.38 502.162 392.426 503.169Z" fill="#CCCCCC"/>
<path d="M432.52 488.623C431.983 488.866 431.447 489.109 430.91 489.346C430.327 489.614 429.738 489.87 429.155 490.126C428.499 490.414 427.85 490.695 427.194 490.977C424.729 492.039 422.238 493.062 419.741 494.047C419.707 493.996 419.674 493.938 419.641 493.881C418.766 492.298 418.578 490.444 419.116 488.727C419.655 487.009 420.877 485.568 422.515 484.72C424.152 483.871 426.072 483.684 427.852 484.2C429.632 484.716 431.127 485.892 432.01 487.471C432.213 487.841 432.384 488.226 432.52 488.623Z" fill="#CCCCCC"/>
<path d="M394.266 466.749C398.142 466.749 401.284 463.715 401.284 459.973C401.284 456.231 398.142 453.197 394.266 453.197C390.39 453.197 387.248 456.231 387.248 459.973C387.248 463.715 390.39 466.749 394.266 466.749Z" fill="#CCCCCC"/>
<path d="M329.892 88.721C288.612 99.2049 242.874 105.582 196.367 107.328C189.551 107.687 182.719 107.642 175.909 107.194C160.943 105.979 148.124 101.437 133.847 98.9555C126.984 97.7657 119.338 96.8958 112.429 95.6101C114.025 93.6975 115.651 91.8084 117.305 89.9428C132.204 91.1581 147.335 95.1367 162.414 96.9853C188.046 100.132 216.765 96.6207 236.196 87.9599C245.623 83.7574 252.844 78.5122 262.238 74.2905C263.516 73.6572 264.9 73.2479 266.326 73.0816C269.301 72.8193 271.911 73.9771 274.037 75.0133C289.798 82.6955 312.681 88.9385 333.92 85.5036C335.504 86.6997 332.496 88.0622 329.892 88.721Z" fill="white"/>
<path d="M423.88 115.756C424.074 115.722 424.269 115.695 424.463 115.662C423.647 115.174 422.879 114.615 422.168 113.993L423.88 115.756Z" fill="white"/>
<path d="M551.026 130.913C542.155 131.597 533.238 132.107 524.275 132.441C517.459 132.797 510.627 132.752 503.817 132.307C488.851 131.085 476.032 126.55 461.755 124.068C448.671 121.798 432.771 120.704 424.463 115.663C445.935 112.075 468.181 119.38 490.322 122.098C508.231 124.224 526.385 123.359 543.99 119.54C546.442 123.262 548.787 127.053 551.026 130.913Z" fill="white"/>
<path d="M351.336 226.863C330.555 157.992 318.323 86.9824 318.323 15.2486V10.0498H311.418V15.2485C311.418 86.9824 299.186 157.992 278.405 226.863C277.4 230.197 276.891 233.652 276.893 237.124V237.124C276.893 238.437 277.161 239.738 277.682 240.951C278.202 242.164 278.965 243.267 279.927 244.195C280.889 245.124 282.03 245.861 283.287 246.363C284.544 246.866 285.891 247.124 287.251 247.124H301.061C301.061 248.875 301.418 250.609 302.112 252.227C302.806 253.845 303.823 255.315 305.105 256.553C306.388 257.791 307.91 258.773 309.586 259.443C311.261 260.113 313.057 260.458 314.87 260.458C316.684 260.458 318.48 260.113 320.155 259.443C321.831 258.773 323.353 257.791 324.635 256.553C325.918 255.315 326.935 253.845 327.629 252.227C328.323 250.609 328.68 248.875 328.68 247.124H339.427V275.863C337.911 275.905 336.469 276.507 335.398 277.543C334.327 278.58 333.707 279.973 333.666 281.436C333.625 282.9 334.166 284.323 335.178 285.414C336.19 286.505 337.595 287.18 339.107 287.302C340.618 287.423 342.12 286.982 343.305 286.068C344.489 285.154 345.267 283.836 345.477 282.386C345.688 280.936 345.315 279.463 344.437 278.27C343.558 277.077 342.239 276.254 340.752 275.969V247.124H342.49C345.237 247.124 347.872 246.071 349.814 244.195C351.756 242.32 352.848 239.776 352.848 237.124V237.124C352.85 233.652 352.341 230.197 351.336 226.863Z" fill="white"/>
</g>
<defs>
<clipPath id="clip0_168_1023">
<rect width="585" height="513" fill="white"/>
</clipPath>
</defs>
</svg>
