<svg width="247" height="50" viewBox="0 0 247 50" fill="none" xmlns="http://www.w3.org/2000/svg">
<path d="M0.352857 0H0V0.113636H0.352857V0Z" fill="white"/>
<path fill-rule="evenodd" clip-rule="evenodd" d="M0.685489 2.43896H31.7786C32.1565 2.43896 32.4641 2.74701 32.4641 3.12547V24.4512C32.4641 24.8296 32.1565 25.1377 31.7786 25.1377H0.685489C0.307591 25.1377 0 24.8296 0 24.4512V3.12547C0 2.74701 0.31638 2.43896 0.685489 2.43896Z" fill="url(#paint0_linear_275_2)"/>
<path fill-rule="evenodd" clip-rule="evenodd" d="M13.2176 32.9973C23.5087 32.9973 33.7999 32.9973 44.0822 32.9973C45.1544 32.9973 45.3301 33.0589 44.381 32.61C40.5053 30.7793 36.6297 28.9574 32.754 27.1268C32.464 26.9859 32.4904 26.9947 32.174 26.9947C21.5929 26.9947 11.0029 26.9947 0.421811 26.9947C0.325139 26.9947 0.228468 27.1004 0.386658 27.1708C4.35019 29.0367 8.32251 30.9113 12.286 32.7772C12.4794 32.8741 12.6991 32.9973 13.2176 32.9973Z" fill="#231F20"/>
<path fill-rule="evenodd" clip-rule="evenodd" d="M21.4514 7.54395L21.592 12.8864L21.7326 18.22L17.5054 14.8315L12.3555 13.124L16.9078 10.334L21.4514 7.54395Z" fill="#231F20"/>
<path fill-rule="evenodd" clip-rule="evenodd" d="M17.199 13.0884L19.1324 14.1357L16.2235 19.4958L14.29 18.4484L17.199 13.0884Z" fill="#231F20"/>
<path d="M62.2471 20.6387C62.2471 21.5697 62.0215 22.3789 61.5703 23.0664C61.1191 23.7539 60.4603 24.2839 59.5938 24.6562C58.7344 25.0286 57.6888 25.2148 56.457 25.2148C55.9128 25.2148 55.3792 25.179 54.8564 25.1074C54.3408 25.0358 53.8431 24.932 53.3633 24.7959C52.8906 24.6527 52.4395 24.4772 52.0098 24.2695V21.1758C52.7546 21.5052 53.528 21.8024 54.3301 22.0674C55.1322 22.3324 55.9271 22.4648 56.7148 22.4648C57.2591 22.4648 57.696 22.3932 58.0254 22.25C58.362 22.1068 58.6055 21.9098 58.7559 21.6592C58.9062 21.4085 58.9814 21.1221 58.9814 20.7998C58.9814 20.4059 58.849 20.0693 58.584 19.79C58.319 19.5107 57.9538 19.2493 57.4883 19.0059C57.0299 18.7624 56.5107 18.501 55.9307 18.2217C55.5654 18.0498 55.168 17.8421 54.7383 17.5986C54.3086 17.348 53.9004 17.0436 53.5137 16.6855C53.127 16.3275 52.8083 15.8942 52.5576 15.3857C52.3141 14.8701 52.1924 14.2542 52.1924 13.5381C52.1924 12.5999 52.4072 11.7979 52.8369 11.1318C53.2666 10.4658 53.8789 9.95736 54.6738 9.60645C55.4759 9.24837 56.4212 9.06934 57.5098 9.06934C58.3262 9.06934 59.1032 9.16602 59.8408 9.35938C60.5856 9.54557 61.3626 9.81771 62.1719 10.1758L61.0977 12.7646C60.3743 12.471 59.7262 12.2454 59.1533 12.0879C58.5804 11.9232 57.9967 11.8408 57.4023 11.8408C56.987 11.8408 56.6325 11.9089 56.3389 12.0449C56.0452 12.1738 55.8232 12.36 55.6729 12.6035C55.5225 12.8398 55.4473 13.1156 55.4473 13.4307C55.4473 13.8031 55.5547 14.1182 55.7695 14.376C55.9915 14.6266 56.321 14.8701 56.7578 15.1064C57.2018 15.3428 57.7533 15.6185 58.4121 15.9336C59.2142 16.3132 59.8981 16.7106 60.4639 17.126C61.0368 17.5342 61.4772 18.0176 61.7852 18.5762C62.0931 19.1276 62.2471 19.8151 62.2471 20.6387ZM69.7129 25.2148C68.5241 25.2148 67.5107 25 66.6729 24.5703C65.835 24.1335 65.1976 23.4603 64.7607 22.5508C64.3239 21.6413 64.1055 20.4775 64.1055 19.0596C64.1055 17.5915 64.3525 16.3955 64.8467 15.4717C65.348 14.5407 66.0391 13.8568 66.9199 13.4199C67.8079 12.9831 68.8356 12.7646 70.0029 12.7646C70.8337 12.7646 71.5498 12.847 72.1514 13.0117C72.7601 13.1693 73.29 13.359 73.7412 13.5811L72.7744 16.1162C72.2588 15.9085 71.779 15.7402 71.335 15.6113C70.891 15.4753 70.4469 15.4072 70.0029 15.4072C69.43 15.4072 68.9538 15.5433 68.5742 15.8154C68.1947 16.0804 67.9118 16.4814 67.7256 17.0186C67.5394 17.5557 67.4463 18.2288 67.4463 19.0381C67.4463 19.833 67.5465 20.4919 67.7471 21.0146C67.9476 21.5374 68.2376 21.9277 68.6172 22.1855C68.9967 22.4362 69.4587 22.5615 70.0029 22.5615C70.6833 22.5615 71.2884 22.472 71.8184 22.293C72.3483 22.1068 72.8639 21.849 73.3652 21.5195V24.3232C72.8639 24.6383 72.3376 24.8639 71.7861 25C71.2419 25.1432 70.5508 25.2148 69.7129 25.2148ZM79.4346 8.28516V11.6904C79.4346 12.2848 79.4131 12.8506 79.3701 13.3877C79.3343 13.9248 79.3057 14.3044 79.2842 14.5264H79.4561C79.7139 14.111 80.0182 13.7744 80.3691 13.5166C80.7272 13.2588 81.1211 13.069 81.5508 12.9473C81.9805 12.8255 82.4424 12.7646 82.9365 12.7646C83.8031 12.7646 84.5586 12.9186 85.2031 13.2266C85.8477 13.5273 86.349 14.0036 86.707 14.6553C87.0651 15.2998 87.2441 16.1377 87.2441 17.1689V25H83.9678V17.9854C83.9678 17.126 83.8102 16.4779 83.4951 16.041C83.18 15.6042 82.693 15.3857 82.0342 15.3857C81.3753 15.3857 80.8561 15.5397 80.4766 15.8477C80.097 16.1484 79.8285 16.596 79.6709 17.1904C79.5133 17.7777 79.4346 18.4974 79.4346 19.3496V25H76.1582V8.28516H79.4346ZM101.531 18.9736C101.531 19.9762 101.395 20.8643 101.123 21.6377C100.858 22.4111 100.468 23.0664 99.9521 23.6035C99.4437 24.1335 98.8278 24.5345 98.1045 24.8066C97.3883 25.0788 96.5791 25.2148 95.6768 25.2148C94.8317 25.2148 94.0547 25.0788 93.3457 24.8066C92.6439 24.5345 92.0316 24.1335 91.5088 23.6035C90.9932 23.0664 90.5921 22.4111 90.3057 21.6377C90.0264 20.8643 89.8867 19.9762 89.8867 18.9736C89.8867 17.6416 90.123 16.5137 90.5957 15.5898C91.0684 14.666 91.7415 13.9642 92.6152 13.4844C93.4889 13.0046 94.5309 12.7646 95.7412 12.7646C96.8656 12.7646 97.861 13.0046 98.7275 13.4844C99.6012 13.9642 100.285 14.666 100.779 15.5898C101.281 16.5137 101.531 17.6416 101.531 18.9736ZM93.2275 18.9736C93.2275 19.7614 93.3135 20.4238 93.4854 20.9609C93.6572 21.498 93.9258 21.9027 94.291 22.1748C94.6562 22.4469 95.1325 22.583 95.7197 22.583C96.2998 22.583 96.7689 22.4469 97.127 22.1748C97.4922 21.9027 97.7572 21.498 97.9219 20.9609C98.0938 20.4238 98.1797 19.7614 98.1797 18.9736C98.1797 18.1787 98.0938 17.5199 97.9219 16.9971C97.7572 16.4671 97.4922 16.0697 97.127 15.8047C96.7617 15.5397 96.2855 15.4072 95.6982 15.4072C94.8317 15.4072 94.2015 15.7044 93.8076 16.2988C93.4209 16.8932 93.2275 17.7848 93.2275 18.9736ZM115.152 18.9736C115.152 19.9762 115.016 20.8643 114.744 21.6377C114.479 22.4111 114.089 23.0664 113.573 23.6035C113.065 24.1335 112.449 24.5345 111.726 24.8066C111.009 25.0788 110.2 25.2148 109.298 25.2148C108.453 25.2148 107.676 25.0788 106.967 24.8066C106.265 24.5345 105.653 24.1335 105.13 23.6035C104.614 23.0664 104.213 22.4111 103.927 21.6377C103.647 20.8643 103.508 19.9762 103.508 18.9736C103.508 17.6416 103.744 16.5137 104.217 15.5898C104.689 14.666 105.363 13.9642 106.236 13.4844C107.11 13.0046 108.152 12.7646 109.362 12.7646C110.487 12.7646 111.482 13.0046 112.349 13.4844C113.222 13.9642 113.906 14.666 114.4 15.5898C114.902 16.5137 115.152 17.6416 115.152 18.9736ZM106.849 18.9736C106.849 19.7614 106.935 20.4238 107.106 20.9609C107.278 21.498 107.547 21.9027 107.912 22.1748C108.277 22.4469 108.754 22.583 109.341 22.583C109.921 22.583 110.39 22.4469 110.748 22.1748C111.113 21.9027 111.378 21.498 111.543 20.9609C111.715 20.4238 111.801 19.7614 111.801 18.9736C111.801 18.1787 111.715 17.5199 111.543 16.9971C111.378 16.4671 111.113 16.0697 110.748 15.8047C110.383 15.5397 109.907 15.4072 109.319 15.4072C108.453 15.4072 107.823 15.7044 107.429 16.2988C107.042 16.8932 106.849 17.7848 106.849 18.9736ZM118.117 25V9.29492H121.447V22.25H127.817V25H118.117ZM135.251 12.7646C136.361 12.7646 137.317 12.9795 138.119 13.4092C138.921 13.8317 139.541 14.4476 139.978 15.2568C140.414 16.0661 140.633 17.0544 140.633 18.2217V19.8115H132.888C132.924 20.7354 133.199 21.4622 133.715 21.9922C134.238 22.515 134.961 22.7764 135.885 22.7764C136.651 22.7764 137.353 22.6976 137.99 22.54C138.628 22.3825 139.283 22.1462 139.956 21.8311V24.3662C139.362 24.6598 138.739 24.8747 138.087 25.0107C137.442 25.1468 136.658 25.2148 135.734 25.2148C134.531 25.2148 133.464 24.9928 132.533 24.5488C131.609 24.1048 130.882 23.4281 130.353 22.5186C129.83 21.609 129.568 20.4632 129.568 19.0811C129.568 17.6774 129.805 16.5101 130.277 15.5791C130.757 14.641 131.423 13.9391 132.275 13.4736C133.128 13.001 134.119 12.7646 135.251 12.7646ZM135.272 15.0957C134.635 15.0957 134.105 15.2998 133.683 15.708C133.267 16.1162 133.027 16.7572 132.963 17.6309H137.561C137.553 17.1439 137.464 16.7106 137.292 16.3311C137.127 15.9515 136.877 15.6507 136.54 15.4287C136.211 15.2067 135.788 15.0957 135.272 15.0957ZM148.217 12.7432C149.828 12.7432 151.063 13.0941 151.923 13.7959C152.782 14.4977 153.212 15.5648 153.212 16.9971V25H150.924L150.29 23.3672H150.204C149.86 23.7969 149.509 24.1478 149.151 24.4199C148.793 24.6921 148.382 24.8926 147.916 25.0215C147.451 25.1504 146.885 25.2148 146.219 25.2148C145.51 25.2148 144.872 25.0788 144.307 24.8066C143.748 24.5345 143.308 24.1191 142.985 23.5605C142.663 22.9948 142.502 22.2786 142.502 21.4121C142.502 20.1374 142.95 19.1992 143.845 18.5977C144.74 17.9889 146.083 17.6523 147.873 17.5879L149.957 17.5234V16.9971C149.957 16.3669 149.792 15.9049 149.463 15.6113C149.133 15.3177 148.675 15.1709 148.088 15.1709C147.508 15.1709 146.938 15.2533 146.38 15.418C145.821 15.5827 145.263 15.7904 144.704 16.041L143.619 13.8281C144.257 13.4915 144.969 13.2266 145.757 13.0332C146.552 12.8398 147.372 12.7432 148.217 12.7432ZM149.957 19.4355L148.689 19.4785C147.63 19.5072 146.892 19.6969 146.477 20.0479C146.068 20.3988 145.864 20.8607 145.864 21.4336C145.864 21.9349 146.011 22.293 146.305 22.5078C146.598 22.7155 146.981 22.8193 147.454 22.8193C148.156 22.8193 148.747 22.6117 149.227 22.1963C149.714 21.7809 149.957 21.1901 149.957 20.4238V19.4355ZM163.299 12.7646C163.464 12.7646 163.653 12.7754 163.868 12.7969C164.09 12.8112 164.269 12.8327 164.405 12.8613L164.158 15.9336C164.051 15.8978 163.897 15.8727 163.696 15.8584C163.503 15.8369 163.335 15.8262 163.191 15.8262C162.769 15.8262 162.357 15.8799 161.956 15.9873C161.562 16.0947 161.208 16.2702 160.893 16.5137C160.577 16.75 160.327 17.0651 160.141 17.459C159.962 17.8457 159.872 18.3219 159.872 18.8877V25H156.596V12.9902H159.077L159.561 15.0098H159.722C159.958 14.6016 160.252 14.2292 160.603 13.8926C160.961 13.5488 161.365 13.2767 161.816 13.0762C162.275 12.8685 162.769 12.7646 163.299 12.7646ZM173.407 12.7646C174.689 12.7646 175.72 13.1156 176.501 13.8174C177.282 14.512 177.672 15.6292 177.672 17.1689V25H174.396V17.9854C174.396 17.126 174.238 16.4779 173.923 16.041C173.615 15.6042 173.128 15.3857 172.462 15.3857C171.459 15.3857 170.775 15.7259 170.41 16.4062C170.045 17.0866 169.862 18.0677 169.862 19.3496V25H166.586V12.9902H169.089L169.529 14.5264H169.712C169.97 14.111 170.288 13.7744 170.668 13.5166C171.055 13.2588 171.481 13.069 171.946 12.9473C172.419 12.8255 172.906 12.7646 173.407 12.7646Z" fill="black"/>
<path d="M55.0283 31.4912C54.6344 31.4912 54.2796 31.5596 53.9639 31.6963C53.6514 31.8298 53.3844 32.0251 53.1631 32.2822C52.945 32.5361 52.7773 32.8438 52.6602 33.2051C52.543 33.5664 52.4844 33.9733 52.4844 34.4258C52.4844 35.0247 52.5771 35.5456 52.7627 35.9883C52.9515 36.4277 53.2314 36.7679 53.6025 37.0088C53.9769 37.2497 54.444 37.3701 55.0039 37.3701C55.3229 37.3701 55.6224 37.3441 55.9023 37.292C56.1855 37.2367 56.4606 37.1683 56.7275 37.0869V37.8096C56.4671 37.9072 56.1937 37.9788 55.9072 38.0244C55.6208 38.0732 55.2806 38.0977 54.8867 38.0977C54.1608 38.0977 53.5537 37.9479 53.0654 37.6484C52.5804 37.3457 52.2158 36.9193 51.9717 36.3691C51.7308 35.819 51.6104 35.1696 51.6104 34.4209C51.6104 33.8805 51.6852 33.3874 51.835 32.9414C51.988 32.4922 52.2093 32.1048 52.499 31.7793C52.792 31.4538 53.1501 31.2031 53.5732 31.0273C53.9997 30.8483 54.488 30.7588 55.0381 30.7588C55.3994 30.7588 55.7477 30.7946 56.083 30.8662C56.4183 30.9378 56.721 31.0404 56.9912 31.1738L56.6592 31.877C56.4313 31.7728 56.1807 31.6833 55.9072 31.6084C55.637 31.5303 55.3441 31.4912 55.0283 31.4912ZM60.2139 32.5508C60.6696 32.5508 61.0602 32.6517 61.3857 32.8535C61.7113 33.0553 61.9603 33.3385 62.1328 33.7031C62.3053 34.0645 62.3916 34.4876 62.3916 34.9727V35.4756H58.6953C58.7051 36.1038 58.8613 36.5824 59.1641 36.9111C59.4668 37.2399 59.8932 37.4043 60.4434 37.4043C60.7819 37.4043 61.0814 37.3734 61.3418 37.3115C61.6022 37.2497 61.8724 37.1585 62.1523 37.0381V37.751C61.8822 37.8714 61.6136 37.9593 61.3467 38.0146C61.083 38.07 60.7705 38.0977 60.4092 38.0977C59.8949 38.0977 59.4456 37.9935 59.0615 37.7852C58.6807 37.5736 58.3844 37.2643 58.1729 36.8574C57.9613 36.4505 57.8555 35.9525 57.8555 35.3633C57.8555 34.7871 57.9515 34.2891 58.1436 33.8691C58.3389 33.446 58.6123 33.1204 58.9639 32.8926C59.3187 32.6647 59.7354 32.5508 60.2139 32.5508ZM60.2041 33.2148C59.7712 33.2148 59.4261 33.3564 59.1689 33.6396C58.9118 33.9229 58.7588 34.3184 58.71 34.8262H61.542C61.5387 34.5072 61.4883 34.2272 61.3906 33.9863C61.2962 33.7422 61.1514 33.5534 60.9561 33.4199C60.7607 33.2832 60.5101 33.2148 60.2041 33.2148ZM66.2832 32.5508C66.9505 32.5508 67.4827 32.7803 67.8799 33.2393C68.277 33.6982 68.4756 34.3883 68.4756 35.3096C68.4756 35.9183 68.3844 36.4294 68.2021 36.8428C68.0199 37.2562 67.7627 37.5687 67.4307 37.7803C67.1019 37.9919 66.7129 38.0977 66.2637 38.0977C65.9805 38.0977 65.7314 38.0602 65.5166 37.9854C65.3018 37.9105 65.1178 37.8096 64.9648 37.6826C64.8118 37.5557 64.6849 37.4173 64.584 37.2676H64.5254C64.5352 37.3945 64.5465 37.5475 64.5596 37.7266C64.5758 37.9056 64.584 38.0618 64.584 38.1953V40.3926H63.7686V32.6484H64.4375L64.5449 33.4395H64.584C64.6882 33.2767 64.8151 33.1286 64.9648 32.9951C65.1146 32.8584 65.2969 32.751 65.5117 32.6729C65.7298 32.5915 65.987 32.5508 66.2832 32.5508ZM66.1416 33.2344C65.7705 33.2344 65.471 33.306 65.2432 33.4492C65.0186 33.5924 64.8542 33.8073 64.75 34.0938C64.6458 34.377 64.5905 34.7334 64.584 35.1631V35.3193C64.584 35.7718 64.6328 36.1543 64.7305 36.4668C64.8314 36.7793 64.9958 37.0169 65.2236 37.1797C65.4548 37.3424 65.764 37.4238 66.1514 37.4238C66.4834 37.4238 66.7601 37.3343 66.9814 37.1553C67.2028 36.9762 67.3672 36.7272 67.4746 36.4082C67.5853 36.0859 67.6406 35.7165 67.6406 35.2998C67.6406 34.6683 67.5169 34.167 67.2695 33.7959C67.0254 33.4215 66.6494 33.2344 66.1416 33.2344ZM74.1445 33.9912C74.1445 34.3265 74.0469 34.5885 73.8516 34.7773C73.6562 34.9629 73.404 35.0882 73.0947 35.1533V35.1924C73.43 35.238 73.7181 35.3584 73.959 35.5537C74.2031 35.7458 74.3252 36.0404 74.3252 36.4375C74.3252 36.7435 74.252 37.0137 74.1055 37.248C73.959 37.4824 73.7295 37.6663 73.417 37.7998C73.1045 37.9333 72.6976 38 72.1963 38H69.8916V32.6484H72.1768C72.5609 32.6484 72.8994 32.6924 73.1924 32.7803C73.4886 32.8649 73.7214 33.0049 73.8906 33.2002C74.0599 33.3955 74.1445 33.6592 74.1445 33.9912ZM73.4805 36.4375C73.4805 36.1217 73.36 35.8939 73.1191 35.7539C72.8815 35.6139 72.5348 35.5439 72.0791 35.5439H70.707V37.3408H72.0986C72.5479 37.3408 72.8896 37.2725 73.124 37.1357C73.3617 36.9958 73.4805 36.763 73.4805 36.4375ZM73.3193 34.084C73.3193 33.8301 73.2266 33.6413 73.041 33.5176C72.8555 33.3906 72.5511 33.3271 72.1279 33.3271H70.707V34.8652H71.9863C72.4258 34.8652 72.7578 34.8018 72.9824 34.6748C73.207 34.5479 73.3193 34.3509 73.3193 34.084ZM76.4053 32.6484V36.0127C76.4053 36.0778 76.4036 36.1624 76.4004 36.2666C76.3971 36.3675 76.3923 36.4766 76.3857 36.5938C76.3792 36.7077 76.3727 36.8184 76.3662 36.9258C76.363 37.0299 76.3581 37.1162 76.3516 37.1846L79.2715 32.6484H80.2676V38H79.5107V34.7188C79.5107 34.6146 79.5124 34.4811 79.5156 34.3184C79.5189 34.1556 79.5238 33.9961 79.5303 33.8398C79.5368 33.6803 79.5417 33.5566 79.5449 33.4688L76.6348 38H75.6338V32.6484H76.4053ZM84.1348 38.0977C83.653 38.0977 83.2282 37.9984 82.8604 37.7998C82.4925 37.6012 82.2061 37.2985 82.001 36.8916C81.7959 36.4847 81.6934 35.972 81.6934 35.3535C81.6934 34.7057 81.8008 34.1768 82.0156 33.7666C82.2337 33.3532 82.5332 33.0472 82.9141 32.8486C83.2949 32.6501 83.7279 32.5508 84.2129 32.5508C84.4798 32.5508 84.737 32.5785 84.9844 32.6338C85.235 32.6859 85.4401 32.7526 85.5996 32.834L85.3555 33.5127C85.1927 33.4476 85.0039 33.389 84.7891 33.3369C84.5775 33.2848 84.3789 33.2588 84.1934 33.2588C83.8223 33.2588 83.513 33.3385 83.2656 33.498C83.0215 33.6576 82.8376 33.8919 82.7139 34.2012C82.5934 34.5104 82.5332 34.8913 82.5332 35.3438C82.5332 35.7767 82.5918 36.1462 82.709 36.4521C82.8294 36.7581 83.0068 36.9925 83.2412 37.1553C83.4788 37.3148 83.7751 37.3945 84.1299 37.3945C84.4131 37.3945 84.6686 37.3652 84.8965 37.3066C85.1243 37.2448 85.3311 37.1732 85.5166 37.0918V37.8145C85.3376 37.9056 85.1374 37.9756 84.916 38.0244C84.6979 38.0732 84.4375 38.0977 84.1348 38.0977ZM93.3047 32.6484V37.3115H94.0713V39.8506H93.2852V38H89.4961V39.8506H88.7197V37.3115H89.1396C89.4456 36.8883 89.6995 36.4245 89.9014 35.9199C90.1032 35.4154 90.2562 34.8864 90.3604 34.333C90.4645 33.7764 90.5199 33.2148 90.5264 32.6484H93.3047ZM92.5186 33.293H91.249C91.2197 33.7682 91.1497 34.2516 91.0391 34.7432C90.9316 35.2347 90.7884 35.7035 90.6094 36.1494C90.4303 36.5921 90.222 36.9795 89.9844 37.3115H92.5186V33.293ZM99.75 35.3145C99.75 35.7539 99.693 36.1462 99.5791 36.4912C99.4652 36.8363 99.3008 37.1276 99.0859 37.3652C98.8711 37.6029 98.6107 37.7852 98.3047 37.9121C98.002 38.0358 97.6585 38.0977 97.2744 38.0977C96.9163 38.0977 96.5876 38.0358 96.2881 37.9121C95.9919 37.7852 95.7347 37.6029 95.5166 37.3652C95.3018 37.1276 95.1341 36.8363 95.0137 36.4912C94.8965 36.1462 94.8379 35.7539 94.8379 35.3145C94.8379 34.7285 94.9372 34.2305 95.1357 33.8203C95.3343 33.4069 95.6175 33.0928 95.9854 32.8779C96.3564 32.6598 96.7975 32.5508 97.3086 32.5508C97.7969 32.5508 98.2233 32.6598 98.5879 32.8779C98.9557 33.096 99.2406 33.4118 99.4424 33.8252C99.6475 34.2354 99.75 34.7318 99.75 35.3145ZM95.6777 35.3145C95.6777 35.7441 95.7347 36.1169 95.8486 36.4326C95.9626 36.7484 96.1383 36.9925 96.376 37.165C96.6136 37.3376 96.9196 37.4238 97.2939 37.4238C97.665 37.4238 97.9694 37.3376 98.207 37.165C98.4479 36.9925 98.6253 36.7484 98.7393 36.4326C98.8532 36.1169 98.9102 35.7441 98.9102 35.3145C98.9102 34.888 98.8532 34.5202 98.7393 34.2109C98.6253 33.8984 98.4495 33.6576 98.2119 33.4883C97.9743 33.319 97.6667 33.2344 97.2891 33.2344C96.7324 33.2344 96.3239 33.4183 96.0635 33.7861C95.8063 34.154 95.6777 34.6634 95.6777 35.3145ZM105.634 32.6484V38H104.818V33.3467H101.967V38H101.151V32.6484H105.634ZM111.967 35.3145C111.967 35.7539 111.91 36.1462 111.796 36.4912C111.682 36.8363 111.518 37.1276 111.303 37.3652C111.088 37.6029 110.827 37.7852 110.521 37.9121C110.219 38.0358 109.875 38.0977 109.491 38.0977C109.133 38.0977 108.804 38.0358 108.505 37.9121C108.209 37.7852 107.951 37.6029 107.733 37.3652C107.519 37.1276 107.351 36.8363 107.23 36.4912C107.113 36.1462 107.055 35.7539 107.055 35.3145C107.055 34.7285 107.154 34.2305 107.353 33.8203C107.551 33.4069 107.834 33.0928 108.202 32.8779C108.573 32.6598 109.014 32.5508 109.525 32.5508C110.014 32.5508 110.44 32.6598 110.805 32.8779C111.173 33.096 111.457 33.4118 111.659 33.8252C111.864 34.2354 111.967 34.7318 111.967 35.3145ZM107.895 35.3145C107.895 35.7441 107.951 36.1169 108.065 36.4326C108.179 36.7484 108.355 36.9925 108.593 37.165C108.83 37.3376 109.136 37.4238 109.511 37.4238C109.882 37.4238 110.186 37.3376 110.424 37.165C110.665 36.9925 110.842 36.7484 110.956 36.4326C111.07 36.1169 111.127 35.7441 111.127 35.3145C111.127 34.888 111.07 34.5202 110.956 34.2109C110.842 33.8984 110.666 33.6576 110.429 33.4883C110.191 33.319 109.883 33.2344 109.506 33.2344C108.949 33.2344 108.541 33.4183 108.28 33.7861C108.023 34.154 107.895 34.6634 107.895 35.3145ZM117.382 38H116.557V33.3271H114.931C114.866 34.1702 114.783 34.8929 114.682 35.4951C114.584 36.0941 114.46 36.584 114.311 36.9648C114.164 37.3424 113.985 37.6208 113.773 37.7998C113.565 37.9756 113.316 38.0635 113.026 38.0635C112.938 38.0635 112.855 38.0586 112.777 38.0488C112.699 38.0391 112.632 38.0228 112.577 38V37.3848C112.619 37.3978 112.663 37.4076 112.709 37.4141C112.758 37.4206 112.808 37.4238 112.86 37.4238C113.007 37.4238 113.14 37.3636 113.261 37.2432C113.384 37.1195 113.495 36.9339 113.593 36.6865C113.694 36.4391 113.783 36.1266 113.861 35.749C113.939 35.3682 114.008 34.9206 114.066 34.4062C114.128 33.8887 114.182 33.3027 114.228 32.6484H117.382V38ZM119.906 32.6484V34.8945H122.89V32.6484H123.7V38H122.89V35.583H119.906V38H119.091V32.6484H119.906ZM126.19 32.6484V36.0127C126.19 36.0778 126.189 36.1624 126.186 36.2666C126.182 36.3675 126.177 36.4766 126.171 36.5938C126.164 36.7077 126.158 36.8184 126.151 36.9258C126.148 37.0299 126.143 37.1162 126.137 37.1846L129.057 32.6484H130.053V38H129.296V34.7188C129.296 34.6146 129.298 34.4811 129.301 34.3184C129.304 34.1556 129.309 33.9961 129.315 33.8398C129.322 33.6803 129.327 33.5566 129.33 33.4688L126.42 38H125.419V32.6484H126.19ZM135.424 33.3369H133.661V38H132.86V33.3369H131.122V32.6484H135.424V33.3369ZM138.544 32.5508C139 32.5508 139.39 32.6517 139.716 32.8535C140.041 33.0553 140.29 33.3385 140.463 33.7031C140.635 34.0645 140.722 34.4876 140.722 34.9727V35.4756H137.025C137.035 36.1038 137.191 36.5824 137.494 36.9111C137.797 37.2399 138.223 37.4043 138.773 37.4043C139.112 37.4043 139.411 37.3734 139.672 37.3115C139.932 37.2497 140.202 37.1585 140.482 37.0381V37.751C140.212 37.8714 139.944 37.9593 139.677 38.0146C139.413 38.07 139.101 38.0977 138.739 38.0977C138.225 38.0977 137.776 37.9935 137.392 37.7852C137.011 37.5736 136.715 37.2643 136.503 36.8574C136.291 36.4505 136.186 35.9525 136.186 35.3633C136.186 34.7871 136.282 34.2891 136.474 33.8691C136.669 33.446 136.942 33.1204 137.294 32.8926C137.649 32.6647 138.065 32.5508 138.544 32.5508ZM138.534 33.2148C138.101 33.2148 137.756 33.3564 137.499 33.6396C137.242 33.9229 137.089 34.3184 137.04 34.8262H139.872C139.869 34.5072 139.818 34.2272 139.721 33.9863C139.626 33.7422 139.481 33.5534 139.286 33.4199C139.091 33.2832 138.84 33.2148 138.534 33.2148ZM146.112 38H145.287V33.3271H143.661C143.596 34.1702 143.513 34.8929 143.412 35.4951C143.314 36.0941 143.191 36.584 143.041 36.9648C142.895 37.3424 142.715 37.6208 142.504 37.7998C142.296 37.9756 142.047 38.0635 141.757 38.0635C141.669 38.0635 141.586 38.0586 141.508 38.0488C141.43 38.0391 141.363 38.0228 141.308 38V37.3848C141.35 37.3978 141.394 37.4076 141.439 37.4141C141.488 37.4206 141.539 37.4238 141.591 37.4238C141.737 37.4238 141.871 37.3636 141.991 37.2432C142.115 37.1195 142.226 36.9339 142.323 36.6865C142.424 36.4391 142.514 36.1266 142.592 35.749C142.67 35.3682 142.738 34.9206 142.797 34.4062C142.859 33.8887 142.912 33.3027 142.958 32.6484H146.112V38ZM148.637 34.8555H150.277C150.733 34.8555 151.112 34.9124 151.415 35.0264C151.718 35.1403 151.944 35.3096 152.094 35.5342C152.247 35.7588 152.323 36.0371 152.323 36.3691C152.323 36.7012 152.248 36.9893 152.099 37.2334C151.952 37.4775 151.724 37.6663 151.415 37.7998C151.109 37.9333 150.714 38 150.229 38H147.821V32.6484H148.637V34.8555ZM151.508 36.4082C151.508 36.0794 151.391 35.8516 151.156 35.7246C150.925 35.5944 150.601 35.5293 150.185 35.5293H148.637V37.3408H150.189C150.58 37.3408 150.897 37.2692 151.142 37.126C151.386 36.9795 151.508 36.7402 151.508 36.4082ZM154.535 32.6484V34.8945H157.519V32.6484H158.329V38H157.519V35.583H154.535V38H153.72V32.6484H154.535ZM164.662 35.3145C164.662 35.7539 164.605 36.1462 164.491 36.4912C164.377 36.8363 164.213 37.1276 163.998 37.3652C163.783 37.6029 163.523 37.7852 163.217 37.9121C162.914 38.0358 162.571 38.0977 162.187 38.0977C161.828 38.0977 161.5 38.0358 161.2 37.9121C160.904 37.7852 160.647 37.6029 160.429 37.3652C160.214 37.1276 160.046 36.8363 159.926 36.4912C159.809 36.1462 159.75 35.7539 159.75 35.3145C159.75 34.7285 159.849 34.2305 160.048 33.8203C160.246 33.4069 160.53 33.0928 160.897 32.8779C161.269 32.6598 161.71 32.5508 162.221 32.5508C162.709 32.5508 163.135 32.6598 163.5 32.8779C163.868 33.096 164.153 33.4118 164.354 33.8252C164.56 34.2354 164.662 34.7318 164.662 35.3145ZM160.59 35.3145C160.59 35.7441 160.647 36.1169 160.761 36.4326C160.875 36.7484 161.05 36.9925 161.288 37.165C161.526 37.3376 161.832 37.4238 162.206 37.4238C162.577 37.4238 162.882 37.3376 163.119 37.165C163.36 36.9925 163.537 36.7484 163.651 36.4326C163.765 36.1169 163.822 35.7441 163.822 35.3145C163.822 34.888 163.765 34.5202 163.651 34.2109C163.537 33.8984 163.362 33.6576 163.124 33.4883C162.886 33.319 162.579 33.2344 162.201 33.2344C161.645 33.2344 161.236 33.4183 160.976 33.7861C160.718 34.154 160.59 34.6634 160.59 35.3145ZM169.311 32.6484V33.3369H166.879V38H166.063V32.6484H169.311ZM174.994 35.3145C174.994 35.7539 174.937 36.1462 174.823 36.4912C174.709 36.8363 174.545 37.1276 174.33 37.3652C174.115 37.6029 173.855 37.7852 173.549 37.9121C173.246 38.0358 172.903 38.0977 172.519 38.0977C172.16 38.0977 171.832 38.0358 171.532 37.9121C171.236 37.7852 170.979 37.6029 170.761 37.3652C170.546 37.1276 170.378 36.8363 170.258 36.4912C170.141 36.1462 170.082 35.7539 170.082 35.3145C170.082 34.7285 170.181 34.2305 170.38 33.8203C170.578 33.4069 170.862 33.0928 171.229 32.8779C171.601 32.6598 172.042 32.5508 172.553 32.5508C173.041 32.5508 173.467 32.6598 173.832 32.8779C174.2 33.096 174.485 33.4118 174.687 33.8252C174.892 34.2354 174.994 34.7318 174.994 35.3145ZM170.922 35.3145C170.922 35.7441 170.979 36.1169 171.093 36.4326C171.207 36.7484 171.382 36.9925 171.62 37.165C171.858 37.3376 172.164 37.4238 172.538 37.4238C172.909 37.4238 173.214 37.3376 173.451 37.165C173.692 36.9925 173.869 36.7484 173.983 36.4326C174.097 36.1169 174.154 35.7441 174.154 35.3145C174.154 34.888 174.097 34.5202 173.983 34.2109C173.869 33.8984 173.694 33.6576 173.456 33.4883C173.218 33.319 172.911 33.2344 172.533 33.2344C171.977 33.2344 171.568 33.4183 171.308 33.7861C171.05 34.154 170.922 34.6634 170.922 35.3145ZM183.607 35.3145C183.607 35.7539 183.55 36.1462 183.437 36.4912C183.323 36.8363 183.158 37.1276 182.943 37.3652C182.729 37.6029 182.468 37.7852 182.162 37.9121C181.859 38.0358 181.516 38.0977 181.132 38.0977C180.774 38.0977 180.445 38.0358 180.146 37.9121C179.849 37.7852 179.592 37.6029 179.374 37.3652C179.159 37.1276 178.992 36.8363 178.871 36.4912C178.754 36.1462 178.695 35.7539 178.695 35.3145C178.695 34.7285 178.795 34.2305 178.993 33.8203C179.192 33.4069 179.475 33.0928 179.843 32.8779C180.214 32.6598 180.655 32.5508 181.166 32.5508C181.654 32.5508 182.081 32.6598 182.445 32.8779C182.813 33.096 183.098 33.4118 183.3 33.8252C183.505 34.2354 183.607 34.7318 183.607 35.3145ZM179.535 35.3145C179.535 35.7441 179.592 36.1169 179.706 36.4326C179.82 36.7484 179.996 36.9925 180.233 37.165C180.471 37.3376 180.777 37.4238 181.151 37.4238C181.522 37.4238 181.827 37.3376 182.064 37.165C182.305 36.9925 182.483 36.7484 182.597 36.4326C182.711 36.1169 182.768 35.7441 182.768 35.3145C182.768 34.888 182.711 34.5202 182.597 34.2109C182.483 33.8984 182.307 33.6576 182.069 33.4883C181.832 33.319 181.524 33.2344 181.146 33.2344C180.59 33.2344 180.181 33.4183 179.921 33.7861C179.664 34.154 179.535 34.6634 179.535 35.3145ZM184.73 34.7871C184.73 34.0254 184.804 33.376 184.95 32.8389C185.097 32.2985 185.323 31.8656 185.629 31.54C185.938 31.2113 186.335 30.9867 186.82 30.8662C187.237 30.7523 187.66 30.6546 188.09 30.5732C188.52 30.4886 188.938 30.4154 189.345 30.3535L189.486 31.0664C189.281 31.0957 189.066 31.1299 188.842 31.1689C188.617 31.2048 188.393 31.2438 188.168 31.2861C187.943 31.3252 187.732 31.3675 187.533 31.4131C187.335 31.4554 187.159 31.4993 187.006 31.5449C186.729 31.6198 186.49 31.75 186.288 31.9355C186.09 32.1211 185.932 32.3766 185.814 32.7021C185.701 33.0277 185.632 33.4378 185.609 33.9326H185.668C185.766 33.7894 185.899 33.6478 186.068 33.5078C186.238 33.3678 186.439 33.2523 186.674 33.1611C186.908 33.0667 187.172 33.0195 187.465 33.0195C187.927 33.0195 188.313 33.1204 188.622 33.3223C188.931 33.5208 189.164 33.8008 189.32 34.1621C189.477 34.5234 189.555 34.9466 189.555 35.4316C189.555 36.0143 189.454 36.5042 189.252 36.9014C189.053 37.2985 188.773 37.598 188.412 37.7998C188.051 37.9984 187.626 38.0977 187.138 38.0977C186.76 38.0977 186.422 38.0244 186.122 37.8779C185.826 37.7314 185.574 37.5166 185.365 37.2334C185.16 36.9502 185.002 36.6035 184.892 36.1934C184.784 35.7832 184.73 35.3145 184.73 34.7871ZM187.201 37.4238C187.51 37.4238 187.776 37.3587 187.997 37.2285C188.222 37.0983 188.394 36.8932 188.515 36.6133C188.638 36.3301 188.7 35.9622 188.7 35.5098C188.7 34.9434 188.591 34.5007 188.373 34.1816C188.158 33.8594 187.813 33.6982 187.338 33.6982C187.042 33.6982 186.773 33.7617 186.532 33.8887C186.291 34.0124 186.088 34.1605 185.922 34.333C185.756 34.5055 185.635 34.6602 185.561 34.7969C185.561 35.1289 185.585 35.4512 185.634 35.7637C185.683 36.0762 185.767 36.3577 185.888 36.6084C186.008 36.859 186.174 37.0576 186.386 37.2041C186.601 37.3506 186.872 37.4238 187.201 37.4238ZM193.471 32.5508C194.138 32.5508 194.67 32.7803 195.067 33.2393C195.465 33.6982 195.663 34.3883 195.663 35.3096C195.663 35.9183 195.572 36.4294 195.39 36.8428C195.207 37.2562 194.95 37.5687 194.618 37.7803C194.289 37.9919 193.9 38.0977 193.451 38.0977C193.168 38.0977 192.919 38.0602 192.704 37.9854C192.489 37.9105 192.305 37.8096 192.152 37.6826C191.999 37.5557 191.872 37.4173 191.771 37.2676H191.713C191.723 37.3945 191.734 37.5475 191.747 37.7266C191.763 37.9056 191.771 38.0618 191.771 38.1953V40.3926H190.956V32.6484H191.625L191.732 33.4395H191.771C191.876 33.2767 192.003 33.1286 192.152 32.9951C192.302 32.8584 192.484 32.751 192.699 32.6729C192.917 32.5915 193.174 32.5508 193.471 32.5508ZM193.329 33.2344C192.958 33.2344 192.659 33.306 192.431 33.4492C192.206 33.5924 192.042 33.8073 191.938 34.0938C191.833 34.377 191.778 34.7334 191.771 35.1631V35.3193C191.771 35.7718 191.82 36.1543 191.918 36.4668C192.019 36.7793 192.183 37.0169 192.411 37.1797C192.642 37.3424 192.951 37.4238 193.339 37.4238C193.671 37.4238 193.948 37.3343 194.169 37.1553C194.39 36.9762 194.555 36.7272 194.662 36.4082C194.773 36.0859 194.828 35.7165 194.828 35.2998C194.828 34.6683 194.704 34.167 194.457 33.7959C194.213 33.4215 193.837 33.2344 193.329 33.2344ZM199.081 32.5605C199.719 32.5605 200.193 32.7038 200.502 32.9902C200.811 33.2767 200.966 33.734 200.966 34.3623V38H200.375L200.219 37.209H200.18C200.03 37.4043 199.874 37.5687 199.711 37.7021C199.548 37.8324 199.359 37.9316 199.145 38C198.933 38.0651 198.673 38.0977 198.363 38.0977C198.038 38.0977 197.748 38.0407 197.494 37.9268C197.243 37.8128 197.045 37.6403 196.898 37.4092C196.755 37.1781 196.684 36.8851 196.684 36.5303C196.684 35.9964 196.895 35.5863 197.318 35.2998C197.742 35.0133 198.386 34.8571 199.252 34.8311L200.175 34.792V34.4648C200.175 34.0026 200.076 33.6787 199.877 33.4932C199.678 33.3076 199.398 33.2148 199.037 33.2148C198.757 33.2148 198.49 33.2555 198.236 33.3369C197.982 33.4183 197.742 33.5143 197.514 33.625L197.265 33.0098C197.506 32.8861 197.782 32.7803 198.095 32.6924C198.407 32.6045 198.736 32.5605 199.081 32.5605ZM200.165 35.3633L199.35 35.3975C198.682 35.4235 198.212 35.5326 197.938 35.7246C197.665 35.9167 197.528 36.1885 197.528 36.54C197.528 36.846 197.621 37.0723 197.807 37.2188C197.992 37.3652 198.238 37.4385 198.544 37.4385C199.019 37.4385 199.408 37.3066 199.711 37.043C200.014 36.7793 200.165 36.3838 200.165 35.8564V35.3633ZM204.013 32.5508C204.413 32.5508 204.76 32.6061 205.053 32.7168C205.346 32.8242 205.572 32.9821 205.731 33.1904C205.891 33.3988 205.971 33.6527 205.971 33.9521C205.971 34.2744 205.883 34.5316 205.707 34.7236C205.531 34.9157 205.289 35.054 204.979 35.1387V35.1777C205.198 35.2363 205.395 35.321 205.57 35.4316C205.749 35.5391 205.891 35.6823 205.995 35.8613C206.103 36.0371 206.156 36.2568 206.156 36.5205C206.156 36.82 206.075 37.0902 205.912 37.3311C205.749 37.5687 205.502 37.7559 205.17 37.8926C204.838 38.0293 204.418 38.0977 203.91 38.0977C203.66 38.0977 203.422 38.083 203.197 38.0537C202.973 38.0277 202.769 37.9886 202.587 37.9365C202.405 37.8844 202.245 37.8226 202.108 37.751V37.0137C202.336 37.1243 202.603 37.222 202.909 37.3066C203.215 37.3913 203.546 37.4336 203.9 37.4336C204.174 37.4336 204.42 37.4027 204.638 37.3408C204.856 37.2757 205.028 37.1732 205.155 37.0332C205.285 36.89 205.351 36.7028 205.351 36.4717C205.351 36.2601 205.294 36.0859 205.18 35.9492C205.066 35.8092 204.895 35.7067 204.667 35.6416C204.442 35.5732 204.158 35.5391 203.812 35.5391H203.095V34.875H203.686C204.145 34.875 204.511 34.8099 204.784 34.6797C205.058 34.5495 205.194 34.3298 205.194 34.0205C205.194 33.7536 205.089 33.555 204.877 33.4248C204.665 33.2913 204.363 33.2246 203.969 33.2246C203.676 33.2246 203.417 33.2555 203.192 33.3174C202.968 33.376 202.725 33.4606 202.465 33.5713L202.177 32.9219C202.457 32.7982 202.75 32.7054 203.056 32.6436C203.362 32.5817 203.681 32.5508 204.013 32.5508ZM212.084 35.3145C212.084 35.7539 212.027 36.1462 211.913 36.4912C211.799 36.8363 211.635 37.1276 211.42 37.3652C211.205 37.6029 210.945 37.7852 210.639 37.9121C210.336 38.0358 209.993 38.0977 209.608 38.0977C209.25 38.0977 208.922 38.0358 208.622 37.9121C208.326 37.7852 208.069 37.6029 207.851 37.3652C207.636 37.1276 207.468 36.8363 207.348 36.4912C207.23 36.1462 207.172 35.7539 207.172 35.3145C207.172 34.7285 207.271 34.2305 207.47 33.8203C207.668 33.4069 207.951 33.0928 208.319 32.8779C208.69 32.6598 209.132 32.5508 209.643 32.5508C210.131 32.5508 210.557 32.6598 210.922 32.8779C211.29 33.096 211.575 33.4118 211.776 33.8252C211.981 34.2354 212.084 34.7318 212.084 35.3145ZM208.012 35.3145C208.012 35.7441 208.069 36.1169 208.183 36.4326C208.297 36.7484 208.472 36.9925 208.71 37.165C208.948 37.3376 209.254 37.4238 209.628 37.4238C209.999 37.4238 210.303 37.3376 210.541 37.165C210.782 36.9925 210.959 36.7484 211.073 36.4326C211.187 36.1169 211.244 35.7441 211.244 35.3145C211.244 34.888 211.187 34.5202 211.073 34.2109C210.959 33.8984 210.784 33.6576 210.546 33.4883C210.308 33.319 210.001 33.2344 209.623 33.2344C209.066 33.2344 208.658 33.4183 208.397 33.7861C208.14 34.154 208.012 34.6634 208.012 35.3145ZM217.738 33.9912C217.738 34.3265 217.641 34.5885 217.445 34.7773C217.25 34.9629 216.998 35.0882 216.688 35.1533V35.1924C217.024 35.238 217.312 35.3584 217.553 35.5537C217.797 35.7458 217.919 36.0404 217.919 36.4375C217.919 36.7435 217.846 37.0137 217.699 37.248C217.553 37.4824 217.323 37.6663 217.011 37.7998C216.698 37.9333 216.291 38 215.79 38H213.485V32.6484H215.771C216.155 32.6484 216.493 32.6924 216.786 32.7803C217.082 32.8649 217.315 33.0049 217.484 33.2002C217.654 33.3955 217.738 33.6592 217.738 33.9912ZM217.074 36.4375C217.074 36.1217 216.954 35.8939 216.713 35.7539C216.475 35.6139 216.129 35.5439 215.673 35.5439H214.301V37.3408H215.692C216.142 37.3408 216.483 37.2725 216.718 37.1357C216.955 36.9958 217.074 36.763 217.074 36.4375ZM216.913 34.084C216.913 33.8301 216.82 33.6413 216.635 33.5176C216.449 33.3906 216.145 33.3271 215.722 33.3271H214.301V34.8652H215.58C216.02 34.8652 216.352 34.8018 216.576 34.6748C216.801 34.5479 216.913 34.3509 216.913 34.084ZM221.229 32.5605C221.868 32.5605 222.341 32.7038 222.65 32.9902C222.96 33.2767 223.114 33.734 223.114 34.3623V38H222.523L222.367 37.209H222.328C222.178 37.4043 222.022 37.5687 221.859 37.7021C221.697 37.8324 221.508 37.9316 221.293 38C221.081 38.0651 220.821 38.0977 220.512 38.0977C220.186 38.0977 219.896 38.0407 219.643 37.9268C219.392 37.8128 219.193 37.6403 219.047 37.4092C218.904 37.1781 218.832 36.8851 218.832 36.5303C218.832 35.9964 219.044 35.5863 219.467 35.2998C219.89 35.0133 220.535 34.8571 221.4 34.8311L222.323 34.792V34.4648C222.323 34.0026 222.224 33.6787 222.025 33.4932C221.827 33.3076 221.547 33.2148 221.186 33.2148C220.906 33.2148 220.639 33.2555 220.385 33.3369C220.131 33.4183 219.89 33.5143 219.662 33.625L219.413 33.0098C219.654 32.8861 219.931 32.7803 220.243 32.6924C220.556 32.6045 220.884 32.5605 221.229 32.5605ZM222.313 35.3633L221.498 35.3975C220.831 35.4235 220.36 35.5326 220.087 35.7246C219.813 35.9167 219.677 36.1885 219.677 36.54C219.677 36.846 219.77 37.0723 219.955 37.2188C220.141 37.3652 220.386 37.4385 220.692 37.4385C221.168 37.4385 221.557 37.3066 221.859 37.043C222.162 36.7793 222.313 36.3838 222.313 35.8564V35.3633ZM225.6 32.6484V34.8945H228.583V32.6484H229.394V38H228.583V35.583H225.6V38H224.784V32.6484H225.6ZM231.884 32.6484V36.0127C231.884 36.0778 231.882 36.1624 231.879 36.2666C231.876 36.3675 231.871 36.4766 231.864 36.5938C231.858 36.7077 231.851 36.8184 231.845 36.9258C231.841 37.0299 231.837 37.1162 231.83 37.1846L234.75 32.6484H235.746V38H234.989V34.7188C234.989 34.6146 234.991 34.4811 234.994 34.3184C234.997 34.1556 235.002 33.9961 235.009 33.8398C235.015 33.6803 235.02 33.5566 235.023 33.4688L232.113 38H231.112V32.6484H231.884ZM237.729 38H236.781L238.324 35.7441C238.1 35.6953 237.891 35.6123 237.699 35.4951C237.507 35.3747 237.351 35.2103 237.23 35.002C237.113 34.7936 237.055 34.5348 237.055 34.2256C237.055 33.7113 237.226 33.3206 237.567 33.0537C237.912 32.7835 238.367 32.6484 238.93 32.6484H241.298V38H240.487V35.8516H239.13L237.729 38ZM237.841 34.2305C237.841 34.5495 237.955 34.7871 238.183 34.9434C238.41 35.0964 238.736 35.1729 239.159 35.1729H240.487V33.3271H239.018C238.601 33.3271 238.3 33.4118 238.114 33.5811C237.932 33.7471 237.841 33.9635 237.841 34.2305Z" fill="black"/>
<defs>
<linearGradient id="paint0_linear_275_2" x1="2.65343" y1="0.187656" x2="29.853" y2="27.3469" gradientUnits="userSpaceOnUse">
<stop offset="0.498" stop-color="#C792F8"/>
<stop offset="1" stop-color="#B5FBD6"/>
</linearGradient>
</defs>
</svg>
