<svg width="192" height="34" viewBox="0 0 192 34" fill="none" xmlns="http://www.w3.org/2000/svg">
<g clip-path="url(#clip0_169_705)">
<path fill-rule="evenodd" clip-rule="evenodd" d="M-0.181488 -0.160156C63.8184 -0.160156 127.819 -0.160156 191.819 -0.160156C191.819 11.1732 191.819 22.5065 191.819 33.8398C127.819 33.8398 63.8184 33.8398 -0.181488 33.8398C-0.181488 22.5065 -0.181488 11.1732 -0.181488 -0.160156Z" fill="#FCFCFC"/>
<path fill-rule="evenodd" clip-rule="evenodd" d="M24.1361 3.68873C24.5384 3.94213 25.0224 4.1025 25.5879 4.16986C23.3005 5.70454 21.4858 7.36176 20.1437 9.14156C20.2025 8.49129 20.142 7.84978 19.9622 7.21703C17.5123 8.59377 15.0321 9.93026 12.5217 11.2265C13.6183 11.4989 14.7072 11.7662 15.7883 12.0284C15.8277 12.6743 15.5857 13.2089 15.0624 13.6321C12.4112 15.547 9.87053 17.5785 7.44044 19.7265C5.89156 19.8217 4.3793 19.7148 2.90358 19.4057C2.66162 14.2736 2.66162 9.14156 2.90358 4.00948C9.95347 3.69101 17.031 3.58407 24.1361 3.68873Z" fill="#C691F7"/>
<path fill-rule="evenodd" clip-rule="evenodd" d="M24.1361 3.68848C25.7089 3.68848 27.2817 3.68848 28.8545 3.68848C28.8545 4.32999 28.8545 4.9715 28.8545 5.613C28.5066 5.46777 28.2042 5.25392 27.9471 4.9715C25.2459 7.41555 22.6448 9.66083 20.1437 11.7073C20.1437 10.852 20.1437 9.99666 20.1437 9.14131C21.4858 7.3615 23.3005 5.70429 25.5879 4.16961C25.0224 4.10225 24.5384 3.94187 24.1361 3.68848Z" fill="#C4A1F3"/>
<path fill-rule="evenodd" clip-rule="evenodd" d="M28.8545 5.61319C28.8545 6.46855 28.8545 7.32387 28.8545 8.17923C28.4008 8.1544 28.0984 7.94059 27.9471 7.53772C25.6484 9.783 23.2287 11.9214 20.6881 13.9528C20.5129 14.2569 20.4524 14.5776 20.5066 14.9151C20.1248 14.8671 19.7619 14.9206 19.4178 15.0755C17.845 16.4654 16.2722 17.8553 14.6994 19.2453C15.1486 19.3197 15.5115 19.4801 15.7883 19.7264C13.9735 19.7264 12.1588 19.7264 10.3441 19.7264C12.4803 18.8023 14.1741 17.4124 15.4253 15.5566C16.3127 14.86 17.0386 14.0047 17.603 12.9905C18.3377 13.5865 19.1241 14.1211 19.9622 14.5943C20.143 13.638 20.2034 12.6757 20.1437 11.7075C22.6448 9.66102 25.2459 7.41573 27.9471 4.97168C28.2042 5.2541 28.5066 5.46795 28.8545 5.61319Z" fill="#C0AEEC"/>
<path fill-rule="evenodd" clip-rule="evenodd" d="M20.1437 9.14133C20.1437 9.99668 20.1437 10.852 20.1437 11.7074C20.2034 12.6755 20.1429 13.6378 19.9622 14.5942C19.1241 14.121 18.3377 13.5864 17.603 12.9904C17.0386 14.0045 16.3127 14.8599 15.4253 15.5564C14.1768 15.1539 14.0558 14.5124 15.0624 13.6319C15.5857 13.2087 15.8276 12.6741 15.7883 12.0281C14.7072 11.766 13.6183 11.4987 12.5217 11.2262C15.0321 9.93003 17.5123 8.59354 19.9622 7.2168C20.142 7.84955 20.2025 8.49106 20.1437 9.14133Z" fill="#272225"/>
<path fill-rule="evenodd" clip-rule="evenodd" d="M62.6087 7.8584C63.4555 7.8584 64.3026 7.8584 65.1493 7.8584C65.0891 9.35905 65.1497 10.8559 65.3308 12.349C67.2392 10.6671 69.1748 10.6671 71.138 12.349C71.3195 14.6987 71.3797 17.0509 71.3195 19.4056C70.5936 19.4056 69.8677 19.4056 69.1418 19.4056C69.202 17.4781 69.1414 15.5536 68.9603 13.632C67.6308 12.7232 66.4211 12.8301 65.3308 13.9527C65.1497 15.7672 65.0891 17.5848 65.1493 19.4056C64.3026 19.4056 63.4555 19.4056 62.6087 19.4056C62.6087 15.5565 62.6087 11.7075 62.6087 7.8584Z" fill="#0E0E0E"/>
<path fill-rule="evenodd" clip-rule="evenodd" d="M46.6389 8.5C48.1543 8.39993 49.6061 8.61377 50.9943 9.14151C51.1947 9.62348 51.1947 10.1581 50.9943 10.7453C49.5462 10.5239 48.0944 10.4705 46.6389 10.5849C46.1181 11.3121 46.239 11.9536 47.0019 12.5094C48.4522 13.0428 49.7832 13.7377 50.9943 14.5943C52.1286 17.0351 51.2818 18.5854 48.4537 19.2453C46.9678 19.4914 45.516 19.3845 44.0983 18.9245C43.6377 18.2386 43.6377 17.5436 44.0983 16.8396C45.4906 17.4211 46.9424 17.5815 48.4537 17.3208C49.373 16.7062 49.373 16.0647 48.4537 15.3962C46.489 14.8788 44.9766 13.8631 43.9168 12.3491C43.4515 10.2811 44.3589 8.9981 46.6389 8.5Z" fill="#0C0C0C"/>
<path fill-rule="evenodd" clip-rule="evenodd" d="M96 8.5C96.8468 8.5 97.6939 8.5 98.5406 8.5C98.5406 11.4937 98.5406 14.4874 98.5406 17.4811C100.235 17.4811 101.928 17.4811 103.622 17.4811C103.622 18.1226 103.622 18.7642 103.622 19.4057C101.081 19.4057 98.5406 19.4057 96 19.4057C96 15.7705 96 12.1352 96 8.5Z" fill="#101010"/>
<path fill-rule="evenodd" clip-rule="evenodd" d="M28.8544 8.17911C28.8544 9.03446 28.8544 9.88979 28.8544 10.7451C28.7335 10.7451 28.6125 10.7451 28.4915 10.7451C28.3475 10.4164 28.1056 10.3629 27.7656 10.5848C24.6805 13.3112 21.5955 16.0376 18.5104 18.764C18.2593 19.0645 18.3198 19.2783 18.6919 19.4055C18.6919 19.5124 18.6919 19.6194 18.6919 19.7263C17.724 19.7263 16.7562 19.7263 15.7883 19.7263C15.5115 19.48 15.1486 19.3196 14.6994 19.2451C16.2722 17.8552 17.845 16.4653 19.4178 15.0753C19.7618 14.9205 20.1248 14.867 20.5066 14.915C20.4524 14.5775 20.5129 14.2568 20.6881 13.9527C23.2287 11.9213 25.6484 9.78288 27.9471 7.5376C28.0984 7.94047 28.4008 8.15428 28.8544 8.17911Z" fill="#BFBEEA"/>
<path fill-rule="evenodd" clip-rule="evenodd" d="M28.4915 10.7451C28.5503 11.3954 28.4899 12.0369 28.31 12.6697C28.1891 12.5628 28.068 12.4558 27.9471 12.3489C25.3459 14.6477 22.7448 16.9464 20.1437 19.2451C19.6743 19.4023 19.1903 19.4558 18.6919 19.4055C18.3199 19.2783 18.2593 19.0645 18.5104 18.764C21.5955 16.0376 24.6805 13.3112 27.7656 10.5848C28.1056 10.3629 28.3476 10.4164 28.4915 10.7451Z" fill="#BDCAE6"/>
<path fill-rule="evenodd" clip-rule="evenodd" d="M56.0756 11.0662C57.5448 11.0323 58.9966 11.1393 60.431 11.3869C60.4074 12.0912 60.1653 12.7327 59.7051 13.3114C56.4781 12.2607 55.2078 13.223 55.8941 16.1982C56.6393 17.4144 57.7884 17.7886 59.3422 17.3209C59.6746 17.2008 59.9773 17.0405 60.2495 16.8397C60.7987 18.8144 59.8913 19.6697 57.5274 19.4058C55.4688 19.3796 54.0772 18.5242 53.3535 16.8397C52.583 14.2503 53.4903 12.3258 56.0756 11.0662Z" fill="#121212"/>
<path fill-rule="evenodd" clip-rule="evenodd" d="M77.1266 11.0659C81.7916 11.0769 83.5461 13.1084 82.3894 17.1603C80.55 19.5237 78.1908 20.0048 75.3119 18.6037C72.4021 15.3569 73.0072 12.8443 77.1266 11.0659Z" fill="#121212"/>
<path fill-rule="evenodd" clip-rule="evenodd" d="M87.2892 11.0662C92.1549 10.7142 94.1511 12.6387 93.2779 16.8398C92.1444 18.9234 90.269 19.7253 87.6522 19.2455C84.9304 18.123 83.9018 16.252 84.5671 13.6323C85.3032 12.6083 86.2105 11.753 87.2892 11.0662Z" fill="#101010"/>
<path fill-rule="evenodd" clip-rule="evenodd" d="M107.977 11.066C112.033 10.6949 113.969 12.2987 113.784 15.8773C111.728 15.8773 109.671 15.8773 107.614 15.8773C107.597 16.7728 108.081 17.3609 109.066 17.6414C110.398 17.8461 111.668 17.6858 112.877 17.1603C113.147 17.7828 113.086 18.3708 112.696 18.9244C106.968 20.3792 104.488 18.5082 105.255 13.3112C105.887 12.2702 106.795 11.5218 107.977 11.066Z" fill="#111111"/>
<path fill-rule="evenodd" clip-rule="evenodd" d="M118.503 11.066C120.727 10.6339 122.361 11.2754 123.403 12.9905C123.584 15.1262 123.644 17.2646 123.584 19.4056C122.979 19.4056 122.374 19.4056 121.769 19.4056C121.864 18.9316 121.744 18.5039 121.406 18.1226C119.397 19.8209 117.401 19.8209 115.418 18.1226C114.918 16.7119 115.341 15.5893 116.688 14.7547C118.245 14.4588 119.818 14.2984 121.406 14.2736C121.48 13.6672 121.238 13.1861 120.681 12.8302C119.441 12.5436 118.291 12.704 117.233 13.3113C116.862 12.8653 116.56 12.3841 116.325 11.8679C117.091 11.5969 117.817 11.3297 118.503 11.066Z" fill="#0C0C0C"/>
<path fill-rule="evenodd" clip-rule="evenodd" d="M126.488 11.0658C127.093 11.0658 127.697 11.0658 128.302 11.0658C128.375 12.9713 128.98 13.1317 130.117 11.547C130.787 11.1852 131.513 11.0248 132.295 11.0658C132.295 11.8143 132.295 12.5627 132.295 13.3111C131.169 13.2001 130.141 13.414 129.21 13.9526C129.029 15.7671 128.968 17.5847 129.028 19.4055C128.182 19.4055 127.334 19.4055 126.488 19.4055C126.488 16.6256 126.488 13.8457 126.488 11.0658Z" fill="#0E0E0E"/>
<path fill-rule="evenodd" clip-rule="evenodd" d="M134.473 11.0659C135.078 11.0659 135.682 11.0659 136.287 11.0659C136.347 12.4656 136.831 12.626 137.739 11.5471C139.607 10.7439 141.24 11.0112 142.639 12.3489C143.158 14.6646 143.339 17.0168 143.183 19.4055C142.337 19.4055 141.489 19.4055 140.643 19.4055C140.703 17.4781 140.642 15.5535 140.461 13.632C138.967 12.6402 137.757 12.854 136.832 14.2735C136.651 15.9808 136.59 17.6915 136.65 19.4055C135.924 19.4055 135.198 19.4055 134.473 19.4055C134.473 16.6257 134.473 13.8458 134.473 11.0659Z" fill="#0D0D0D"/>
<path fill-rule="evenodd" clip-rule="evenodd" d="M108.703 12.6699C110.282 12.3597 111.13 12.8943 111.244 14.2737C110.034 14.2737 108.824 14.2737 107.614 14.2737C107.545 13.485 107.908 12.9504 108.703 12.6699Z" fill="#EFEEEF"/>
<path fill-rule="evenodd" clip-rule="evenodd" d="M76.7637 12.9908C77.9197 12.8367 78.9483 13.0505 79.8488 13.6323C80.0908 14.7015 80.0908 15.7707 79.8488 16.8398C77.5473 18.0728 76.277 17.4847 76.0378 15.0757C76.0313 14.3026 76.2733 13.6076 76.7637 12.9908Z" fill="#F3F3F3"/>
<path fill-rule="evenodd" clip-rule="evenodd" d="M87.6522 12.9908C88.8082 12.8367 89.8368 13.0505 90.7373 13.6323C90.9793 14.7015 90.9793 15.7707 90.7373 16.8398C89.5275 17.6952 88.3175 17.6952 87.1078 16.8398C86.7426 15.4601 86.9241 14.1771 87.6522 12.9908Z" fill="#F0F0F0"/>
<path fill-rule="evenodd" clip-rule="evenodd" d="M28.4915 10.7451C28.6125 10.7451 28.7335 10.7451 28.8544 10.7451C28.8544 12.5627 28.8544 14.3803 28.8544 16.1979C28.5925 16.064 28.4111 15.8502 28.31 15.5564C26.7 16.8162 25.3087 18.2062 24.1361 19.7262C22.3214 19.7262 20.5066 19.7262 18.6919 19.7262C18.6919 19.6193 18.6919 19.5124 18.6919 19.4055C19.1903 19.4558 19.6743 19.4023 20.1437 19.2451C22.7448 16.9464 25.3459 14.6476 27.9471 12.3489C28.068 12.4558 28.189 12.5627 28.31 12.6696C28.4899 12.0369 28.5503 11.3954 28.4915 10.7451Z" fill="#BBD8E1"/>
<path fill-rule="evenodd" clip-rule="evenodd" d="M15.0624 13.6318C14.0558 14.5123 14.1768 15.1538 15.4253 15.5564C14.1741 17.4122 12.4803 18.8021 10.3441 19.7262C9.37618 19.7262 8.40834 19.7262 7.44046 19.7262C9.87055 17.5782 12.4112 15.5467 15.0624 13.6318Z" fill="#C39FF2"/>
<path fill-rule="evenodd" clip-rule="evenodd" d="M118.866 15.5566C119.713 15.5566 120.56 15.5566 121.406 15.5566C121.257 17.3374 120.168 18.0324 118.14 17.6415C117.571 16.7096 117.813 16.0146 118.866 15.5566Z" fill="#E2E2E2"/>
<path fill-rule="evenodd" clip-rule="evenodd" d="M28.8544 16.1982C28.9707 17.2882 28.8497 18.3574 28.4915 19.4057C27.0653 19.7049 25.6135 19.8118 24.1361 19.7265C25.3087 18.2064 26.7001 16.8164 28.31 15.5566C28.4111 15.8504 28.5925 16.0642 28.8544 16.1982Z" fill="#B8EADB"/>
<path fill-rule="evenodd" clip-rule="evenodd" d="M29.2174 21.33C20.6859 21.2239 12.2171 21.3308 3.81095 21.6508C3.52454 21.5601 3.28257 21.3997 3.08505 21.1697C11.8576 20.9035 20.5684 20.9569 29.2174 21.33Z" fill="#5A5758"/>
<path fill-rule="evenodd" clip-rule="evenodd" d="M3.81097 21.6509C12.2171 21.331 20.6859 21.224 29.2174 21.3302C32.1978 22.5936 35.2223 23.7697 38.2911 24.8585C29.885 25.1784 21.4162 25.2854 12.8847 25.1792C9.81753 24.0913 6.79296 22.9152 3.81097 21.6509Z" fill="#232021"/>
<path fill-rule="evenodd" clip-rule="evenodd" d="M145.361 28.0658C144.302 25.8723 145.088 24.4823 147.72 23.896C147.902 24.0029 148.083 24.1098 148.265 24.2168C147.692 24.4726 147.087 24.633 146.45 24.6979C145.829 25.0614 145.647 25.5425 145.905 26.1413C146.631 25.7136 147.357 25.7136 148.083 26.1413C148.87 28.2194 148.084 29.1282 145.724 28.8677C145.451 28.6525 145.33 28.3852 145.361 28.0658Z" fill="#444444"/>
<path fill-rule="evenodd" clip-rule="evenodd" d="M38.2911 24.8584C38.5775 24.9491 38.8196 25.1095 39.017 25.3395C30.2444 25.6057 21.5337 25.5523 12.8847 25.1792C21.4162 25.2853 29.8849 25.1784 38.2911 24.8584Z" fill="#8E8D8E"/>
<path fill-rule="evenodd" clip-rule="evenodd" d="M94.9111 25.1792C95.2599 25.7452 95.3812 26.3867 95.2741 27.1037C96.1209 27.1037 96.968 27.1037 97.8147 27.1037C98.2858 26.8057 98.2858 26.9127 97.8147 27.4245C96.968 27.4245 96.1209 27.4245 95.2741 27.4245C95.3322 27.9695 95.2719 28.5041 95.0926 29.0283C94.9115 27.7497 94.8509 26.4666 94.9111 25.1792Z" fill="#0A0A0A"/>
<path fill-rule="evenodd" clip-rule="evenodd" d="M103.985 25.4999C106.187 25.1101 106.792 25.1101 105.8 25.4999C105.679 30.2043 105.558 30.2043 105.437 25.4999C104.953 25.4999 104.469 25.4999 103.985 25.4999Z" fill="#090909"/>
<path fill-rule="evenodd" clip-rule="evenodd" d="M117.414 26.783C116.93 26.8899 116.93 26.9968 117.414 27.1037C117.414 27.6383 117.414 28.1729 117.414 28.7075C117.172 28.7075 117.051 28.8144 117.051 29.0283C116.576 27.7931 116.576 26.5101 117.051 25.1792C117.397 25.6749 117.517 26.2095 117.414 26.783Z" fill="#656565"/>
<path fill-rule="evenodd" clip-rule="evenodd" d="M121.769 27.4246C121.286 27.3177 121.286 27.2107 121.769 27.1038C122.495 27.1038 123.221 27.1038 123.947 27.1038C124.183 24.5539 124.425 24.5539 124.673 27.1038C124.552 27.7453 124.431 28.3869 124.31 29.0284C123.964 28.5327 123.844 27.9981 123.947 27.4246C123.221 27.4246 122.495 27.4246 121.769 27.4246Z" fill="#4A4A4A"/>
<path fill-rule="evenodd" clip-rule="evenodd" d="M175.486 25.1792C175.835 25.7452 175.956 26.3867 175.849 27.1037C176.696 27.1037 177.543 27.1037 178.389 27.1037C178.861 26.8057 178.861 26.9127 178.389 27.4245C177.543 27.4245 176.696 27.4245 175.849 27.4245C175.907 27.9695 175.847 28.5041 175.667 29.0283C175.486 27.7497 175.426 26.4666 175.486 25.1792Z" fill="#010101"/>
<path fill-rule="evenodd" clip-rule="evenodd" d="M185.648 27.7451C185.648 27.5313 185.648 27.3175 185.648 27.1036C186.253 27.1036 186.858 27.1036 187.463 27.1036C187.463 26.569 187.463 26.0345 187.463 25.4999C186.552 25.3566 185.826 25.5705 185.285 26.1414C185.043 26.1414 184.922 26.0345 184.922 25.8206C184.963 25.6226 185.084 25.4622 185.285 25.3395C186.124 25.1802 186.971 25.1267 187.826 25.1791C187.886 26.4666 187.826 27.7496 187.645 29.0282C187.465 28.504 187.405 27.9694 187.463 27.4244C186.813 27.3814 186.208 27.4883 185.648 27.7451Z" fill="#252525"/>
<path fill-rule="evenodd" clip-rule="evenodd" d="M57.1645 25.1793C58.1397 25.1266 59.1077 25.1801 60.0681 25.3396C60.2575 25.5197 60.3784 25.7335 60.431 25.9811C60.3087 26.8623 60.2481 27.7711 60.2495 28.7076C59.2627 29.0103 58.2344 29.1172 57.1645 29.0283C57.1645 27.7453 57.1645 26.4623 57.1645 25.1793Z" fill="#3B3B3B"/>
<path fill-rule="evenodd" clip-rule="evenodd" d="M57.8904 25.5001C58.6761 25.3769 59.2812 25.5907 59.7051 26.1416C59.2812 26.6925 58.6761 26.9063 57.8904 26.7831C57.8904 26.3554 57.8904 25.9277 57.8904 25.5001Z" fill="#E6E6E6"/>
<path fill-rule="evenodd" clip-rule="evenodd" d="M67.327 25.1791C67.976 25.0876 68.581 25.1945 69.1418 25.4999C67.1376 25.5315 66.4719 26.3869 67.1456 28.0659C67.8079 28.2593 68.4736 28.4731 69.1418 28.7074C66.8737 29.1074 65.9663 28.252 66.4197 26.1414C66.7989 25.8612 67.1013 25.5405 67.327 25.1791Z" fill="#4B4A4B"/>
<path fill-rule="evenodd" clip-rule="evenodd" d="M72.7713 28.7075C73.0134 27.9591 73.2551 27.2107 73.4972 26.4623C73.4972 26.1415 73.4972 25.8208 73.4972 25.5C73.8601 25.5 74.2231 25.5 74.586 25.5C74.586 26.5692 74.586 27.6384 74.586 28.7075C73.981 28.7075 73.3763 28.7075 72.7713 28.7075Z" fill="#DBDBDB"/>
<path fill-rule="evenodd" clip-rule="evenodd" d="M130.48 25.1791C131.336 25.1267 132.182 25.1802 133.021 25.3395C132.428 25.4978 131.823 25.5512 131.206 25.4999C131.323 26.695 131.202 27.8711 130.843 29.0282C130.483 27.7627 130.363 26.4796 130.48 25.1791Z" fill="#494949"/>
<path fill-rule="evenodd" clip-rule="evenodd" d="M150.805 28.7075C150.201 29.1722 149.899 29.8137 149.898 30.632C149.656 28.8144 149.656 26.9968 149.898 25.1792C150.034 25.4731 150.215 25.7404 150.442 25.9811C149.913 26.966 150.034 27.8748 150.805 28.7075Z" fill="#161616"/>
<path fill-rule="evenodd" clip-rule="evenodd" d="M185.648 27.1039C185.427 26.8181 185.306 26.4973 185.285 26.1416C185.826 25.5707 186.552 25.3569 187.463 25.5001C187.463 26.0347 187.463 26.5693 187.463 27.1039C186.858 27.1039 186.253 27.1039 185.648 27.1039Z" fill="#DEDEDF"/>
<path fill-rule="evenodd" clip-rule="evenodd" d="M90.9187 25.1792C91.7655 25.1792 92.6126 25.1792 93.4594 25.1792C93.5769 26.4797 93.4561 27.7628 93.0964 29.0283C92.7382 27.9799 92.6173 26.9108 92.7335 25.8207C92.3705 25.8207 92.0076 25.8207 91.6446 25.8207C91.4875 26.6757 91.306 27.5311 91.1002 28.3867C90.7964 28.8703 90.3728 29.0306 89.8299 28.8679C90.742 27.7848 91.1049 26.5552 90.9187 25.1792Z" fill="#5F5F5F"/>
<path fill-rule="evenodd" clip-rule="evenodd" d="M113.059 25.1792C113.574 25.4843 114.178 25.5912 114.873 25.5C114.873 26.6761 114.873 27.8521 114.873 29.0283C114.518 28.026 114.397 26.9568 114.51 25.8207C114.147 25.8207 113.785 25.8207 113.422 25.8207C113.357 26.692 113.175 27.5474 112.877 28.3867C111.484 29.2158 111.363 29.1089 112.514 28.066C112.58 27.0413 112.761 26.079 113.059 25.1792Z" fill="#777777"/>
<path fill-rule="evenodd" clip-rule="evenodd" d="M113.059 25.1792C113.784 25.1792 114.51 25.1792 115.236 25.1792C115.351 26.5269 115.23 27.8099 114.873 29.0283C114.873 27.8521 114.873 26.6761 114.873 25.5C114.178 25.5912 113.574 25.4843 113.059 25.1792Z" fill="#262526"/>
<path fill-rule="evenodd" clip-rule="evenodd" d="M184.922 25.8208C184.922 26.0346 185.043 26.1416 185.285 26.1416C185.306 26.4973 185.427 26.818 185.648 27.1038C185.648 27.3177 185.648 27.5315 185.648 27.7453C185.64 28.4832 185.277 28.8574 184.56 28.868C185.524 28.0063 185.524 27.1509 184.56 26.3019C184.585 26.0566 184.706 25.8962 184.922 25.8208Z" fill="#5E5E5E"/>
<path fill-rule="evenodd" clip-rule="evenodd" d="M110.155 25.4999C111.093 25.6757 111.456 26.2103 111.244 27.1036C110.276 27.1036 109.308 27.1036 108.34 27.1036C108.34 27.4244 108.34 27.7452 108.34 28.0659C107.931 27.3833 107.87 26.6349 108.159 25.8206C108.768 25.1621 109.433 25.0551 110.155 25.4999Z" fill="#262626"/>
<path fill-rule="evenodd" clip-rule="evenodd" d="M110.155 25.4999C110.421 25.8873 110.542 26.315 110.518 26.7829C109.754 26.8787 109.028 26.7718 108.34 26.4621C108.675 25.7385 109.28 25.4177 110.155 25.4999Z" fill="#DBDBDB"/>
<path fill-rule="evenodd" clip-rule="evenodd" d="M145.361 28.0661C145.119 26.997 145.603 26.3555 146.813 26.1416C147.872 26.6254 148.114 27.3204 147.539 28.2265C146.777 28.4439 146.051 28.3904 145.361 28.0661Z" fill="#EBEBEB"/>
<path fill-rule="evenodd" clip-rule="evenodd" d="M169.316 27.1037C170.229 27.6096 170.229 28.1976 169.316 28.8679C168.477 29.0272 167.631 29.0806 166.775 29.0283C166.775 27.7452 166.775 26.4622 166.775 25.1792C167.773 25.1067 168.741 25.2136 169.679 25.5C170.097 26.1085 169.976 26.6431 169.316 27.1037Z" fill="#2E2E2E"/>
<path fill-rule="evenodd" clip-rule="evenodd" d="M167.138 25.5C168.037 25.356 168.763 25.5698 169.316 26.1416C168.763 26.7133 168.037 26.9271 167.138 26.7831C167.138 26.3554 167.138 25.9277 167.138 25.5Z" fill="#DADADA"/>
<path fill-rule="evenodd" clip-rule="evenodd" d="M99.6295 25.1792C100.254 25.8714 100.556 26.7268 100.537 27.7452C102.638 24.4083 103.364 24.836 102.715 29.0283C102.594 28.066 102.472 27.1037 102.352 26.1415C100.051 30.1488 99.1435 29.8281 99.6295 25.1792Z" fill="#555555"/>
<path fill-rule="evenodd" clip-rule="evenodd" d="M155.887 28.7076C156.41 28.2844 156.652 27.7498 156.612 27.1039C155.863 27.1094 155.137 27.2163 154.435 27.4246C154.976 26.8537 155.701 26.6399 156.612 26.7831C156.674 26.359 156.553 25.9848 156.25 25.6605C155.63 25.5978 155.025 25.5978 154.435 25.6605C155.176 25.102 155.962 25.0485 156.794 25.5001C157.036 26.6762 157.036 27.8523 156.794 29.0284C156.55 28.787 156.248 28.6801 155.887 28.7076Z" fill="#2D2D2D"/>
<path fill-rule="evenodd" clip-rule="evenodd" d="M171.856 27.1039C172.244 26.8041 172.728 26.6972 173.308 26.7831C173.37 26.359 173.249 25.9849 172.945 25.6605C172.326 25.5978 171.721 25.5978 171.13 25.6605C172.088 24.9953 172.995 25.0488 173.853 25.8209C174.095 26.89 174.095 27.9592 173.853 29.0284C172.9 29.0381 171.932 28.9312 170.949 28.7076C170.558 27.8218 170.86 27.2872 171.856 27.1039Z" fill="#494849"/>
<path fill-rule="evenodd" clip-rule="evenodd" d="M180.204 25.1792C180.828 25.8714 181.131 26.7268 181.112 27.7452C183.213 24.4083 183.939 24.836 183.289 29.0283C183.168 28.066 183.047 27.1037 182.926 26.1415C180.626 30.1488 179.718 29.8281 180.204 25.1792Z" fill="#535353"/>
<path fill-rule="evenodd" clip-rule="evenodd" d="M57.8904 27.1038C58.507 27.0525 59.112 27.1059 59.7051 27.2642C60.1889 27.6919 60.1889 28.1196 59.7051 28.5472C59.112 28.7055 58.507 28.759 57.8904 28.7076C57.8904 28.173 57.8904 27.6384 57.8904 27.1038Z" fill="#E9E9EA"/>
<path fill-rule="evenodd" clip-rule="evenodd" d="M158.427 25.1792C159.259 25.0969 160.046 25.2038 160.786 25.4999C160.551 26.305 160.612 27.1069 160.968 27.9056C160.875 28.3309 160.633 28.6517 160.242 28.8678C159.487 29.1269 158.761 29.0734 158.064 28.7075C158.616 28.5857 159.221 28.5322 159.879 28.5471C160.638 28.2416 160.759 27.8139 160.242 27.2641C158.662 27.1297 158.542 26.9159 159.879 26.6226C160.224 26.3924 160.284 26.1251 160.06 25.8207C159.577 25.393 159.093 25.393 158.609 25.8207C158.44 25.63 158.38 25.4162 158.427 25.1792Z" fill="#444444"/>
<path fill-rule="evenodd" clip-rule="evenodd" d="M169.316 27.104C169.475 28.518 168.749 29.0526 167.138 28.7078C167.138 28.1732 167.138 27.6386 167.138 27.104C167.864 27.104 168.59 27.104 169.316 27.104Z" fill="#E7E7E7"/>
<path fill-rule="evenodd" clip-rule="evenodd" d="M53.8979 28.7075C53.294 29.1722 52.9913 29.8137 52.9906 30.632C52.7485 28.8144 52.7485 26.9968 52.9906 25.1792C52.9916 26.4516 53.294 27.6277 53.8979 28.7075Z" fill="#151515"/>
<path fill-rule="evenodd" clip-rule="evenodd" d="M84.0227 29.0283C84.0227 27.8521 84.0227 26.6761 84.0227 25.5C83.1759 25.5 82.3288 25.5 81.482 25.5C81.482 26.6761 81.482 27.8521 81.482 29.0283C81.1253 27.8099 81.004 26.5269 81.1191 25.1792C82.2079 25.1792 83.2968 25.1792 84.3856 25.1792C84.5007 26.5269 84.3795 27.8099 84.0227 29.0283Z" fill="#242424"/>
<path fill-rule="evenodd" clip-rule="evenodd" d="M84.0227 29.0283C83.6674 28.026 83.5461 26.9568 83.6597 25.8208C83.0547 25.8208 82.45 25.8208 81.845 25.8208C81.9586 26.9568 81.8374 28.026 81.4821 29.0283C81.4821 27.8522 81.4821 26.6761 81.4821 25.5C82.3288 25.5 83.1759 25.5 84.0227 25.5C84.0227 26.6761 84.0227 27.8522 84.0227 29.0283Z" fill="#A6A6A7"/>
<path fill-rule="evenodd" clip-rule="evenodd" d="M117.414 27.1038C118.031 27.0525 118.636 27.1059 119.229 27.2642C119.713 27.6919 119.713 28.1196 119.229 28.5472C118.636 28.7055 118.031 28.759 117.414 28.7076C117.414 28.173 117.414 27.6384 117.414 27.1038Z" fill="#E3E3E3"/>
<path fill-rule="evenodd" clip-rule="evenodd" d="M155.887 28.7078C154.798 28.8147 154.314 28.387 154.435 27.4248C155.137 27.2164 155.863 27.1095 156.612 27.104C156.652 27.7499 156.41 28.2845 155.887 28.7078Z" fill="#E1E1E2"/>
<path fill-rule="evenodd" clip-rule="evenodd" d="M171.856 27.104C172.34 27.104 172.824 27.104 173.308 27.104C173.407 27.8925 173.044 28.4271 172.219 28.7078C171.419 28.2966 171.298 27.762 171.856 27.104Z" fill="#ECECEC"/>
<path fill-rule="evenodd" clip-rule="evenodd" d="M44.8242 24.2168C48.1459 24.5321 48.1459 24.7994 44.8242 25.0187C43.2624 27.4932 44.1092 28.6693 47.3648 28.547C45.8383 29.3279 44.5679 29.0606 43.5539 27.7451C43.0682 26.2888 43.4918 25.1127 44.8242 24.2168Z" fill="#3D3D3D"/>
<path fill-rule="evenodd" clip-rule="evenodd" d="M73.1342 25.1792C73.037 25.6921 73.1582 26.1198 73.4972 26.4622C73.2551 27.2106 73.0134 27.9591 72.7713 28.7075C72.5292 28.7075 72.4083 28.6006 72.4083 28.3867C72.5531 27.2606 72.7952 26.1914 73.1342 25.1792Z" fill="#636263"/>
<path fill-rule="evenodd" clip-rule="evenodd" d="M77.4896 25.1792C79.5958 25.2786 80.3823 26.2409 79.8487 28.066C78.6938 29.3245 77.605 29.3245 76.5822 28.066C76.139 26.8529 76.4417 25.8906 77.4896 25.1792Z" fill="#414040"/>
<path fill-rule="evenodd" clip-rule="evenodd" d="M77.8525 25.5C79.2151 25.9258 79.6386 26.7812 79.1229 28.066C77.7651 28.8825 76.9786 28.5083 76.7637 26.9434C76.7844 26.2349 77.1473 25.7537 77.8525 25.5Z" fill="#ECECEC"/>
<path fill-rule="evenodd" clip-rule="evenodd" d="M117.414 26.783C119.65 26.3518 120.376 27.0468 119.592 28.8679C118.753 29.0272 117.906 29.0807 117.051 29.0283C117.051 28.8145 117.172 28.7076 117.414 28.7076C118.031 28.7589 118.636 28.7055 119.229 28.5472C119.713 28.1195 119.713 27.6918 119.229 27.2642C118.636 27.1059 118.031 27.0524 117.414 27.1038C116.93 26.9969 116.93 26.8899 117.414 26.783Z" fill="#232222"/>
<path fill-rule="evenodd" clip-rule="evenodd" d="M121.769 27.1037C121.286 27.2106 121.286 27.3176 121.769 27.4245C121.873 27.998 121.752 28.5326 121.406 29.0283C120.923 27.7452 120.923 26.4622 121.406 25.1792C121.757 25.7874 121.878 26.4289 121.769 27.1037Z" fill="#6D6D6D"/>
<path fill-rule="evenodd" clip-rule="evenodd" d="M126.851 25.1793C129.209 25.0766 129.995 26.0389 129.21 28.0661C128.138 29.3432 127.05 29.3432 125.943 28.0661C125.554 26.9115 125.856 25.9492 126.851 25.1793Z" fill="#4E4D4D"/>
<path fill-rule="evenodd" clip-rule="evenodd" d="M127.214 25.5C128.251 25.5965 128.735 26.131 128.665 27.1038C127.954 29.2346 127.228 29.2346 126.488 27.1038C126.465 26.4578 126.707 25.9232 127.214 25.5Z" fill="#F4F4F4"/>
<path fill-rule="evenodd" clip-rule="evenodd" d="M134.836 25.1792C136.942 25.2786 137.728 26.2409 137.195 28.066C136.242 29.2117 135.153 29.3186 133.928 28.3867C133.515 27.1156 133.818 26.0464 134.836 25.1792Z" fill="#4E4D4E"/>
<path fill-rule="evenodd" clip-rule="evenodd" d="M135.198 25.5C136.561 25.9258 136.985 26.7812 136.469 28.066C135.212 28.9268 134.546 28.6061 134.473 27.1038C134.554 26.4768 134.796 25.9422 135.198 25.5Z" fill="#F3F3F3"/>
<path fill-rule="evenodd" clip-rule="evenodd" d="M140.643 26.1417C141.591 24.8584 142.619 24.8584 143.728 26.1417C144.126 28.4651 143.098 29.2669 140.643 28.5474C140.166 27.7119 140.166 26.91 140.643 26.1417Z" fill="#444445"/>
<path fill-rule="evenodd" clip-rule="evenodd" d="M140.643 26.1417C142.754 25.2756 143.54 25.9171 143.002 28.0663C142.358 28.8824 141.692 28.8824 141.006 28.0663C140.698 27.4541 140.577 26.8126 140.643 26.1417Z" fill="#EBEBEB"/>
<path fill-rule="evenodd" clip-rule="evenodd" d="M53.8979 28.7076C55.586 28.4914 56.1304 27.6361 55.5312 26.1416C55.2034 25.7563 54.7802 25.4889 54.2609 25.3397C54.9385 25.1116 55.4829 25.272 55.8941 25.8209C56.1362 26.6762 56.1362 27.5315 55.8941 28.3869C55.2851 29.0455 54.6198 29.1524 53.8979 28.7076Z" fill="#323232"/>
<path fill-rule="evenodd" clip-rule="evenodd" d="M61.5198 25.1792C62.1503 25.9837 62.4526 26.9459 62.4272 28.066C64.8463 24.0756 65.6328 24.3963 64.7864 29.0283C64.4895 28.192 64.308 27.3367 64.242 26.4622C63.626 27.1676 63.0816 27.916 62.6087 28.7075C62.3093 28.9916 61.9463 29.0985 61.5198 29.0283C61.5198 27.7452 61.5198 26.4622 61.5198 25.1792Z" fill="#5C5C5C"/>
<path fill-rule="evenodd" clip-rule="evenodd" d="M150.805 28.7076C152.493 28.4914 153.038 27.6361 152.439 26.1416C152.111 25.7563 151.688 25.4889 151.168 25.3397C151.846 25.1116 152.39 25.272 152.802 25.8209C153.044 26.6762 153.044 27.5315 152.802 28.3869C152.192 29.0455 151.527 29.1524 150.805 28.7076Z" fill="#343434"/>
<path fill-rule="evenodd" clip-rule="evenodd" d="M48.8166 25.8209C50.4557 24.7935 51.3025 25.2212 51.3573 27.104C50.5105 27.104 49.6634 27.104 48.8166 27.104C48.7549 27.528 48.8758 27.9022 49.1796 28.2266C52.0832 28.6514 52.0832 28.8653 49.1796 28.8681C47.9169 27.9075 47.796 26.8918 48.8166 25.8209Z" fill="#3C3B3C"/>
<path fill-rule="evenodd" clip-rule="evenodd" d="M48.8166 25.8206C49.7984 25.2902 50.5243 25.5041 50.9943 26.4621C50.3062 26.7718 49.5803 26.8787 48.8166 26.7829C48.8166 26.4621 48.8166 26.1414 48.8166 25.8206Z" fill="#CECECE"/>
<path fill-rule="evenodd" clip-rule="evenodd" d="M86.9263 25.4998C87.8707 25.0288 88.6572 25.2426 89.2854 26.1414C89.5885 28.6626 88.4997 29.411 86.0189 28.3866C85.7768 27.5313 85.7768 26.676 86.0189 25.8206C86.2624 25.5793 86.5648 25.4723 86.9263 25.4998Z" fill="#403F40"/>
<path fill-rule="evenodd" clip-rule="evenodd" d="M86.9263 25.5C88.6144 25.7163 89.1588 26.5716 88.5595 28.066C87.0932 29.0325 86.3067 28.6582 86.2004 26.9434C86.2073 26.3555 86.449 25.8743 86.9263 25.5Z" fill="#EBEBEB"/>
<path fill-rule="evenodd" clip-rule="evenodd" d="M154.435 27.4243C154.314 28.3866 154.798 28.8142 155.887 28.7073C155.487 29.0596 155.003 29.1131 154.435 28.8677C153.963 28.3495 153.963 27.8684 154.435 27.4243Z" fill="#2E2E2E"/>
<path fill-rule="evenodd" clip-rule="evenodd" d="M163.146 25.4998C164.09 25.0288 164.876 25.2426 165.505 26.1414C165.808 28.6626 164.719 29.411 162.238 28.3866C161.996 27.5313 161.996 26.676 162.238 25.8206C162.482 25.5793 162.784 25.4723 163.146 25.4998Z" fill="#414041"/>
<path fill-rule="evenodd" clip-rule="evenodd" d="M163.146 25.5C164.834 25.7163 165.378 26.5716 164.779 28.066C163.313 29.0325 162.526 28.6582 162.42 26.9434C162.427 26.3555 162.668 25.8743 163.146 25.5Z" fill="#EAEAEA"/>
<path fill-rule="evenodd" clip-rule="evenodd" d="M73.1342 25.1792C73.7393 25.1792 74.3439 25.1792 74.949 25.1792C75.1511 27.3436 75.2723 28.6266 75.3119 29.0283C74.2231 29.0283 73.1342 29.0283 72.0454 29.0283C72.1024 29.4688 72.0417 29.8965 71.8639 30.3113C71.5224 29.5128 71.7038 28.8713 72.4083 28.3867C72.4083 28.6006 72.5292 28.7075 72.7713 28.7075C73.3763 28.7075 73.981 28.7075 74.586 28.7075C74.586 27.6383 74.586 26.5691 74.586 25.5C74.2231 25.5 73.8601 25.5 73.4972 25.5C73.4972 25.8207 73.4972 26.1415 73.4972 26.4622C73.1582 26.1198 73.0369 25.6921 73.1342 25.1792Z" fill="#1F1F1F"/>
<path fill-rule="evenodd" clip-rule="evenodd" d="M108.34 28.0659C109.203 28.5745 110.05 28.7884 110.881 28.7074C110.184 29.0734 109.458 29.1269 108.703 28.8678C108.43 28.6526 108.309 28.3854 108.34 28.0659Z" fill="#434343"/>
</g>
<defs>
<clipPath id="clip0_169_705">
<rect width="192" height="34" fill="white"/>
</clipPath>
</defs>
</svg>
