<svg width="474" height="308" viewBox="0 0 474 308" fill="none" xmlns="http://www.w3.org/2000/svg">
<g clip-path="url(#clip0_241_317)">
<path d="M242.081 307.348C256.337 307.348 267.895 296.692 267.895 283.546C267.895 270.401 256.337 259.745 242.081 259.745C227.825 259.745 216.268 270.401 216.268 283.546C216.268 296.692 227.825 307.348 242.081 307.348Z" fill="#B5FBD6"/>
<path d="M396.292 306.01C410.733 302.011 426.086 297.841 437.539 288.334C447.774 279.839 454.683 266.867 450.443 254.127C446.212 241.413 433.539 232.935 420.454 228.719C413.032 226.327 405.268 225.001 397.507 223.958C389.07 222.825 380.596 221.897 372.125 221.004C337.828 217.387 303.402 215.177 268.847 214.375C251.796 213.979 234.749 213.989 217.696 214.217C202.466 214.421 186.426 214.416 172.298 208.447C161.311 203.806 151.34 195.363 148.278 184.267C144.745 171.458 151.263 158.414 160.613 149.138C165.541 144.248 171.301 140.133 177.244 136.349C183.69 132.243 190.361 128.429 197.176 124.868C210.6 117.859 224.634 111.893 239.133 107.033C246.285 104.635 253.544 102.567 260.865 100.658C267.048 99.0465 273.249 97.4326 279.224 95.2368C290.775 90.9921 301.761 83.8019 304.698 72.0143C307.481 60.8425 302.788 48.7145 294.56 40.4152C285.042 30.8134 270.689 26.6043 256.929 25.9233C241.481 25.1587 226.389 28.7236 211.869 33.2478C196.383 38.0733 181.231 43.6217 165.417 47.5303C149.736 51.4023 133.751 54.142 117.609 55.7244C109.706 56.5003 101.565 57.3764 93.6155 56.7824C86.9531 56.2846 80.3247 54.4779 75.4147 50.1182C71.2045 46.38 68.6965 41.2424 69.5588 35.8207C69.7154 34.8359 71.3378 35.2546 71.1821 36.2333C70.1325 42.8331 74.998 48.9146 80.9936 52.0298C87.9229 55.6302 96.3549 55.6351 104.07 55.2233C120.797 54.2918 137.412 52.0772 153.741 48.6026C169.786 45.2236 185.258 40.3931 200.712 35.233C215.39 30.3322 230.396 25.549 246.077 24.4876C259.683 23.5665 273.995 25.3942 285.848 31.9504C296.266 37.7124 303.926 47.3215 306.367 58.3482C308.752 69.1232 305.449 79.9685 296.603 87.4877C287.444 95.273 274.885 98.6015 263.182 101.667C248.338 105.555 233.812 110.1 219.752 116.001C205.501 121.966 191.833 129.051 178.9 137.178C166.416 145.044 154.096 154.941 150.148 168.974C148.308 175.511 148.648 182.444 151.725 188.618C154.462 194.108 158.968 198.725 164.218 202.287C176.743 210.786 192.53 212.53 207.66 212.704C224.652 212.899 241.646 212.37 258.644 212.627C293.286 213.152 327.857 215.096 362.357 218.46C371.002 219.304 379.636 220.236 388.259 221.258C396.015 222.177 403.798 223.09 411.423 224.722C424.982 227.624 438.176 233.203 446.603 243.803C450.344 248.398 452.661 253.843 453.308 259.557C453.898 265.519 452.315 271.493 449.391 276.797C442.919 288.538 430.797 296.005 417.924 300.912C411.03 303.539 403.878 305.53 396.74 307.507C395.7 307.795 395.255 306.297 396.292 306.01L396.292 306.01Z" fill="#F2F2F2"/>
<path d="M70.6466 48.3791C78.0847 48.3791 84.1145 42.8194 84.1145 35.961C84.1145 29.1027 78.0847 23.543 70.6466 23.543C63.2085 23.543 57.1787 29.1027 57.1787 35.961C57.1787 42.8194 63.2085 48.3791 70.6466 48.3791Z" fill="#F2F2F2"/>
<path d="M164.08 71.9211C171.518 71.9211 177.548 66.3613 177.548 59.503C177.548 52.6447 171.518 47.085 164.08 47.085C156.642 47.085 150.612 52.6447 150.612 59.503C150.612 66.3613 156.642 71.9211 164.08 71.9211Z" fill="#F2F2F2"/>
<path d="M243.204 24.8361C250.642 24.8361 256.672 19.2764 256.672 12.4181C256.672 5.55976 250.642 0 243.204 0C235.766 0 229.736 5.55976 229.736 12.4181C229.736 19.2764 235.766 24.8361 243.204 24.8361Z" fill="#F2F2F2"/>
<path d="M292.586 77.6125C300.024 77.6125 306.054 72.0527 306.054 65.1944C306.054 58.3361 300.024 52.7764 292.586 52.7764C285.148 52.7764 279.118 58.3361 279.118 65.1944C279.118 72.0527 285.148 77.6125 292.586 77.6125Z" fill="#F2F2F2"/>
<path d="M225.808 138.668C233.246 138.668 239.276 133.108 239.276 126.25C239.276 119.392 233.246 113.832 225.808 113.832C218.37 113.832 212.34 119.392 212.34 126.25C212.34 133.108 218.37 138.668 225.808 138.668Z" fill="#F2F2F2"/>
<path d="M141.072 168.161C148.511 168.161 154.54 162.602 154.54 155.743C154.54 148.885 148.511 143.325 141.072 143.325C133.634 143.325 127.604 148.885 127.604 155.743C127.604 162.602 133.634 168.161 141.072 168.161Z" fill="#F2F2F2"/>
<path d="M230.859 214.212C238.297 214.212 244.326 208.652 244.326 201.794C244.326 194.936 238.297 189.376 230.859 189.376C223.42 189.376 217.391 194.936 217.391 201.794C217.391 208.652 223.42 214.212 230.859 214.212Z" fill="#F2F2F2"/>
<path d="M327.378 240.082C334.816 240.082 340.846 234.522 340.846 227.664C340.846 220.806 334.816 215.246 327.378 215.246C319.94 215.246 313.91 220.806 313.91 227.664C313.91 234.522 319.94 240.082 327.378 240.082Z" fill="#F2F2F2"/>
<path d="M440.172 234.391C447.61 234.391 453.64 228.831 453.64 221.973C453.64 215.114 447.61 209.555 440.172 209.555C432.734 209.555 426.704 215.114 426.704 221.973C426.704 228.831 432.734 234.391 440.172 234.391Z" fill="#F2F2F2"/>
<path d="M239.316 35.1864C198.973 35.4491 165.941 65.6778 165.368 102.873C165.363 103.217 165.36 105.631 165.36 108.79C165.361 113.42 167.356 117.861 170.907 121.136C174.458 124.41 179.274 126.25 184.296 126.25H184.296C186.786 126.25 189.251 125.797 191.55 124.918C193.85 124.039 195.939 122.75 197.699 121.126C199.458 119.502 200.853 117.574 201.804 115.453C202.755 113.332 203.244 111.058 203.242 108.763C203.24 106.614 203.239 105.128 203.239 105.036C203.237 99.2877 204.859 93.6379 207.944 88.6425C211.029 83.6472 215.471 79.4784 220.834 76.5462C226.196 73.614 232.294 72.0194 238.528 71.9193C244.761 71.8192 250.916 73.217 256.386 75.9753C261.856 78.7335 266.453 82.7572 269.725 87.6505C272.996 92.5437 274.83 98.1381 275.046 103.883C275.262 109.628 273.852 115.326 270.955 120.416C268.058 125.507 263.774 129.814 258.524 132.914L258.531 132.922C258.531 132.922 231.579 148.92 223.362 170.867L223.369 170.869C221.925 175.365 221.192 180.03 221.196 184.719C221.196 186.646 221.319 203.512 221.556 217.201C221.64 221.924 223.733 226.428 227.385 229.741C231.038 233.054 235.956 234.91 241.079 234.909H241.079C243.654 234.908 246.202 234.439 248.579 233.527C250.956 232.615 253.114 231.279 254.928 229.596C256.743 227.912 258.179 225.914 259.153 223.717C260.127 221.52 260.62 219.167 260.604 216.793C260.522 204.257 260.477 189.659 260.477 188.599C260.477 175.123 274.576 161.696 286.158 152.94C299.495 142.857 309.092 129.117 312.946 113.617C313.799 110.426 314.27 107.158 314.349 103.872C314.349 94.8101 312.404 85.8378 308.627 77.4719C304.849 69.1061 299.314 61.5121 292.339 55.1276C285.365 48.743 277.089 43.694 267.989 40.2716C258.889 36.8492 249.144 35.1209 239.316 35.1864Z" fill="#B5FBD6"/>
<path d="M473.332 308H0.668188C0.491314 307.999 0.321864 307.934 0.196976 307.819C0.0720885 307.703 0.00195312 307.547 0.00195312 307.384C0.00195312 307.221 0.0720885 307.064 0.196976 306.949C0.321864 306.833 0.491314 306.768 0.668188 306.768H473.332C473.509 306.768 473.679 306.832 473.804 306.948C473.93 307.064 474 307.22 474 307.384C474 307.547 473.93 307.704 473.804 307.819C473.679 307.935 473.509 308 473.332 308Z" fill="#3F3D56"/>
<path d="M352.662 141.253C361.96 141.253 369.497 134.303 369.497 125.731C369.497 117.158 361.96 110.208 352.662 110.208C343.364 110.208 335.827 117.158 335.827 125.731C335.827 134.303 343.364 141.253 352.662 141.253Z" fill="#2F2E41"/>
<path d="M321.553 301.205H314.674L311.4 276.737H321.555L321.553 301.205Z" fill="#A0616A"/>
<path d="M309.759 299.393H323.027V307.095H301.405C301.405 306.084 301.621 305.082 302.041 304.148C302.461 303.213 303.076 302.364 303.852 301.649C304.628 300.933 305.549 300.366 306.562 299.979C307.576 299.592 308.662 299.393 309.759 299.393Z" fill="#2F2E41"/>
<path d="M374.864 301.205H367.984L364.711 276.737H374.865L374.864 301.205Z" fill="#A0616A"/>
<path d="M363.07 299.393H376.338V307.095H354.716C354.716 306.084 354.932 305.082 355.352 304.148C355.772 303.213 356.387 302.364 357.163 301.649C357.938 300.933 358.859 300.366 359.873 299.979C360.886 299.592 361.973 299.393 363.07 299.393Z" fill="#2F2E41"/>
<path d="M350.103 141.344C357.715 141.344 363.886 135.655 363.886 128.636C363.886 121.617 357.715 115.928 350.103 115.928C342.491 115.928 336.32 121.617 336.32 128.636C336.32 135.655 342.491 141.344 350.103 141.344Z" fill="#A0616A"/>
<path d="M358.319 182.342L364.486 169.277C365.984 166.212 366.413 162.794 365.714 159.495C365.016 156.196 363.224 153.178 360.586 150.857C360.044 150.363 359.468 149.902 358.863 149.476C355.82 147.281 352.07 146.084 348.207 146.076C345.609 146.085 343.044 146.611 340.687 147.618C340.485 147.701 340.289 147.789 340.086 147.877C339.699 148.048 339.318 148.234 338.947 148.425C336.532 149.704 334.475 151.489 332.945 153.635C331.415 155.781 330.453 158.229 330.137 160.781L327.415 181.809C326.731 183.46 302.309 243.066 310.85 288.574C310.941 289.059 311.198 289.506 311.584 289.848C311.969 290.189 312.463 290.408 312.994 290.472L321.652 291.559C322.285 291.639 322.926 291.495 323.448 291.156C323.969 290.817 324.332 290.308 324.464 289.733L338.992 225.878C339.083 225.481 339.315 225.124 339.652 224.863C339.988 224.602 340.41 224.453 340.85 224.439C341.289 224.426 341.721 224.548 342.076 224.787C342.431 225.027 342.689 225.369 342.808 225.759L363.335 292.91C363.482 293.397 363.797 293.828 364.234 294.134C364.671 294.441 365.205 294.607 365.754 294.607C365.918 294.606 366.081 294.592 366.242 294.565L376.82 292.687C377.435 292.581 377.985 292.267 378.362 291.807C378.739 291.346 378.915 290.773 378.857 290.198C377.303 274.215 369.042 194.155 358.319 182.342Z" fill="#2F2E41"/>
<path d="M296.54 139.212C296.444 139.968 296.53 140.733 296.79 141.455C297.05 142.177 297.478 142.838 298.045 143.39C298.612 143.943 299.303 144.374 300.07 144.654C300.837 144.934 301.662 145.055 302.485 145.009L310.189 162.08L316.017 154.115L307.808 139.125C307.632 137.854 306.958 136.687 305.912 135.845C304.866 135.003 303.521 134.543 302.132 134.554C300.743 134.565 299.407 135.045 298.376 135.903C297.345 136.762 296.692 137.939 296.54 139.212L296.54 139.212Z" fill="#A0616A"/>
<path d="M349.339 199.531C350.158 199.44 350.946 199.186 351.647 198.784C352.348 198.383 352.945 197.845 353.395 197.208C353.846 196.571 354.14 195.85 354.256 195.097C354.373 194.344 354.308 193.577 354.068 192.849L370.277 181.963L360.519 178.594L346.622 189.448C345.323 189.901 344.249 190.778 343.604 191.912C342.96 193.046 342.789 194.359 343.124 195.602C343.458 196.845 344.276 197.931 345.422 198.655C346.567 199.379 347.961 199.691 349.339 199.531Z" fill="#A0616A"/>
<path d="M322.915 173.461C322.293 173.46 321.674 173.404 321.064 173.292C319.59 173.034 318.207 172.444 317.038 171.577C315.868 170.709 314.949 169.589 314.359 168.317L303.566 156.182C303.338 155.925 303.172 155.626 303.079 155.306C302.986 154.985 302.968 154.65 303.027 154.323C303.086 153.995 303.221 153.684 303.421 153.408C303.621 153.132 303.883 152.899 304.189 152.725L311.868 148.342C312.152 148.18 312.467 148.072 312.797 148.023C313.126 147.974 313.462 147.986 313.787 148.057C314.111 148.129 314.417 148.259 314.686 148.44C314.955 148.622 315.183 148.85 315.356 149.113L322.964 160.669L337.532 150.742C338.692 150.181 340.032 150.023 341.308 150.298C342.583 150.573 343.708 151.262 344.478 152.239C345.248 153.216 345.611 154.416 345.501 155.619C345.391 156.823 344.815 157.949 343.879 158.793L329.338 171.023C327.629 172.585 325.321 173.461 322.915 173.461Z" fill="#2F2E41"/>
<path d="M362.28 191.711C362.261 191.711 362.241 191.711 362.221 191.71C361.867 191.702 361.518 191.626 361.198 191.486C360.878 191.346 360.594 191.146 360.363 190.898L353.536 183.554C353.303 183.304 353.131 183.011 353.03 182.695C352.929 182.379 352.903 182.047 352.951 181.72C353 181.394 353.124 181.081 353.313 180.802C353.503 180.523 353.755 180.284 354.052 180.101L366.836 172.243L355.255 159.404C354.581 158.369 354.334 157.144 354.559 155.954C354.783 154.765 355.465 153.689 356.478 152.924C357.492 152.16 358.77 151.757 360.079 151.789C361.388 151.821 362.641 152.287 363.609 153.101L377.685 165.784C378.793 166.717 379.638 167.884 380.149 169.185C380.66 170.486 380.821 171.882 380.619 173.253C380.416 174.623 379.855 175.928 378.985 177.056C378.115 178.183 376.961 179.098 375.622 179.724L364.118 190.98C363.882 191.21 363.597 191.394 363.281 191.52C362.965 191.646 362.624 191.711 362.28 191.711Z" fill="#2F2E41"/>
<path d="M346.599 164.65C346.489 164.65 346.38 164.644 346.271 164.631C345.796 164.578 345.347 164.4 344.978 164.118C344.609 163.837 344.335 163.464 344.189 163.043L339.058 148.54C338.93 148.174 338.95 147.777 339.114 147.422C339.279 147.068 339.577 146.781 339.953 146.613L340.119 146.541C340.27 146.474 340.42 146.409 340.572 146.346C342.965 145.323 345.569 144.79 348.206 144.782C351.629 144.788 354.976 145.715 357.836 147.45C358.22 147.686 358.488 148.05 358.582 148.466C358.677 148.882 358.591 149.315 358.342 149.672L348.718 163.574C348.492 163.904 348.18 164.176 347.809 164.364C347.438 164.553 347.022 164.651 346.599 164.65Z" fill="#E6E6E6"/>
<path d="M365.935 118.801C368.977 118.801 371.443 116.527 371.443 113.722C371.443 110.917 368.977 108.643 365.935 108.643C362.892 108.643 360.426 110.917 360.426 113.722C360.426 116.527 362.892 118.801 365.935 118.801Z" fill="#2F2E41"/>
<path d="M347.05 108.139C343.181 108.139 339.47 109.556 336.733 112.079C333.997 114.602 332.46 118.024 332.46 121.592V127.283H340.052L343.683 121.592L344.773 127.283H367.813L361.64 121.592C361.64 118.024 360.103 114.602 357.367 112.079C354.631 109.556 350.92 108.139 347.05 108.139Z" fill="#2F2E41"/>
<path d="M368.766 110.242C369.375 108.486 370.636 106.984 372.328 106C374.019 105.016 376.033 104.614 378.014 104.863C381.525 105.404 384.3 108.006 385.954 110.912C387.608 113.818 388.372 117.071 389.484 120.189C390.595 123.306 392.172 126.441 394.979 128.459C397.786 130.477 402.093 131.025 404.85 128.949C404.535 131.112 403.49 133.13 401.863 134.716C400.237 136.302 398.11 137.377 395.785 137.787C393.46 138.198 391.053 137.925 388.906 137.005C386.759 136.086 384.979 134.567 383.819 132.664C382.364 130.278 381.989 127.481 381.558 124.773C381.126 122.065 380.566 119.263 378.829 117.043C377.092 114.823 373.842 113.373 371.083 114.384L368.766 110.242Z" fill="#2F2E41"/>
<path d="M189.643 117.991C184.621 117.991 179.805 116.151 176.254 112.876C172.703 109.602 170.708 105.161 170.707 100.53C170.707 97.3723 170.71 94.9576 170.715 94.6142C170.874 83.7967 173.829 73.1702 179.334 63.6162C170.29 75.032 165.317 88.7571 165.103 102.893C165.098 103.236 165.095 105.651 165.096 108.809C165.096 113.44 167.091 117.881 170.642 121.155C174.193 124.43 179.01 126.269 184.032 126.27C188.158 126.269 192.172 125.025 195.462 122.729C198.753 120.432 201.141 117.208 202.263 113.546C198.795 116.413 194.301 117.996 189.643 117.991Z" fill="#3F3D56"/>
<path d="M240.6 71.9779C246.406 72.2336 252.058 73.7847 257.071 76.498C262.083 79.2114 266.307 83.0059 269.378 87.5558C272.45 92.1057 274.278 97.2751 274.706 102.62C275.134 107.965 274.148 113.326 271.834 118.242C275.181 114.617 277.642 110.37 279.047 105.789C280.453 101.208 280.77 96.4014 279.979 91.697C279.187 86.9926 277.304 82.5009 274.459 78.5282C271.614 74.5554 267.874 71.1951 263.493 68.6761C259.111 66.1572 254.193 64.5389 249.072 63.9316C243.951 63.3244 238.748 63.7424 233.818 65.1572C228.888 66.572 224.347 68.9503 220.504 72.1299C216.662 75.3096 213.608 79.2159 211.551 83.5825C215.106 79.7263 219.574 76.6746 224.611 74.6626C229.647 72.6506 235.118 71.7321 240.6 71.9779Z" fill="#3F3D56"/>
<path d="M246.426 226.649C241.303 226.65 236.384 224.794 232.732 221.482C229.08 218.169 226.986 213.665 226.903 208.942C226.665 195.253 226.542 178.387 226.542 176.46C226.539 171.77 227.271 167.105 228.716 162.609L228.709 162.608C229.562 160.351 230.593 158.155 231.792 156.036C228.11 160.561 225.18 165.566 223.098 170.887L223.104 170.888C221.66 175.384 220.927 180.049 220.931 184.738C220.931 186.666 221.054 203.532 221.291 217.221C221.374 221.944 223.468 226.448 227.12 229.76C230.773 233.073 235.691 234.929 240.814 234.928C245.038 234.927 249.148 233.664 252.528 231.327C255.907 228.99 258.374 225.706 259.558 221.967C255.968 224.985 251.284 226.656 246.426 226.649Z" fill="#3F3D56"/>
<path d="M71.0105 301.441L77.8898 301.44L81.163 276.973L71.0088 276.973L71.0105 301.441Z" fill="#FFB8B8"/>
<path d="M91.1582 307.33L69.5362 307.331L69.5358 299.628L82.8039 299.628C85.0195 299.628 87.1444 300.439 88.7111 301.884C90.2779 303.328 91.1581 305.287 91.1582 307.33L91.1582 307.33Z" fill="#2F2E41"/>
<path d="M46.3191 301.441L53.1984 301.44L56.4716 276.973L46.3174 276.973L46.3191 301.441Z" fill="#FFB8B8"/>
<path d="M66.4668 307.33L44.8448 307.331L44.8444 299.628L58.1125 299.628C60.3281 299.628 62.453 300.439 64.0197 301.884C65.5864 303.328 66.4667 305.287 66.4668 307.33L66.4668 307.33Z" fill="#2F2E41"/>
<path d="M52.3308 293.916L45.6109 293.59C45.2644 293.573 44.9249 293.493 44.6122 293.354C44.2995 293.216 44.0197 293.021 43.7891 292.782C43.5585 292.543 43.3816 292.264 43.2687 291.962C43.1558 291.659 43.1091 291.339 43.1314 291.02L51.1631 209.026L88.1499 218.229L91.7134 217.333L80.5697 289.919C80.4747 290.465 80.1807 290.965 79.736 291.336C79.2913 291.707 78.7227 291.927 78.124 291.96L70.88 292.271C70.5178 292.289 70.1554 292.239 69.8156 292.121C69.4758 292.004 69.1661 291.823 68.906 291.59C68.6459 291.357 68.4412 291.076 68.3046 290.767C68.168 290.457 68.1027 290.124 68.1127 289.79L69.4252 246.225C69.4314 246.023 69.3555 245.827 69.2125 245.675C69.0695 245.522 68.8697 245.425 68.6526 245.401C68.4355 245.378 68.2168 245.43 68.0396 245.548C67.8623 245.666 67.7394 245.841 67.6951 246.038L55.037 291.992C54.9175 292.537 54.5966 293.027 54.129 293.379C53.6615 293.73 53.0762 293.921 52.4729 293.919C52.4259 293.919 52.3785 293.918 52.3308 293.916Z" fill="#2F2E41"/>
<path d="M72.2456 141.938C79.8576 141.938 86.0283 136.248 86.0283 129.23C86.0283 122.211 79.8576 116.521 72.2456 116.521C64.6336 116.521 58.4629 122.211 58.4629 129.23C58.4629 136.248 64.6336 141.938 72.2456 141.938Z" fill="#FFB8B8"/>
<path d="M49.2976 166.566L50.813 196.715L51.3609 207.683C51.3827 208.161 51.5585 208.622 51.8659 209.006C52.1732 209.391 52.598 209.683 53.0861 209.844L88.6279 221.715C88.915 221.814 89.2192 221.863 89.5255 221.86C89.8755 221.862 90.2224 221.798 90.5452 221.674C90.8681 221.549 91.1604 221.365 91.4047 221.134C91.649 220.903 91.8402 220.629 91.967 220.328C92.0937 220.027 92.1535 219.705 92.1426 219.383L90.6854 165.174C90.5897 160.727 88.8142 156.449 85.6648 153.08C82.5154 149.71 78.1897 147.459 73.4332 146.714C73.0894 146.666 72.7397 146.618 72.3899 146.574C69.4405 146.237 66.4467 146.499 63.6192 147.343C60.7916 148.187 58.1989 149.592 56.0236 151.46C53.7711 153.37 52.0012 155.713 50.8389 158.323C49.6767 160.934 49.1505 163.748 49.2976 166.566L49.2976 166.566Z" fill="#CCCCCC"/>
<path d="M105.606 215.7C104.766 215.459 103.998 215.041 103.364 214.478C102.73 213.915 102.247 213.223 101.954 212.458C101.662 211.693 101.567 210.875 101.678 210.07C101.789 209.265 102.103 208.495 102.594 207.821L90.541 193.044L100.942 192.45L110.793 206.574C111.847 207.326 112.581 208.396 112.865 209.597C113.15 210.798 112.967 212.053 112.348 213.141C111.729 214.23 110.714 215.083 109.482 215.551C108.249 216.019 106.877 216.071 105.606 215.7H105.606Z" fill="#FFB8B8"/>
<path d="M97.1323 205.147C96.813 205.028 96.5225 204.851 96.2778 204.627C96.033 204.404 95.8388 204.138 95.7063 203.844L77.5481 163.954C77.1918 163.173 77.0059 162.335 77.0011 161.488C76.9962 160.64 77.1725 159.801 77.5199 159.016C77.8672 158.232 78.3788 157.518 79.0254 156.916C79.672 156.314 80.4409 155.835 81.2882 155.507C82.1355 155.18 83.0446 155.009 83.9635 155.005C84.8825 155.001 85.7932 155.164 86.6437 155.485C87.4941 155.806 88.2677 156.278 88.9201 156.875C89.5726 157.472 90.0911 158.181 90.4461 158.963L108.604 198.853C108.873 199.445 108.876 200.11 108.613 200.704C108.35 201.297 107.842 201.77 107.201 202.019L99.1398 205.138C98.8224 205.262 98.4816 205.327 98.137 205.328C97.7924 205.33 97.4509 205.268 97.1322 205.147L97.1323 205.147Z" fill="#CCCCCC"/>
<path d="M67.8135 203.74L85.254 172.949C85.5903 172.357 86.1676 171.912 86.8593 171.712C87.551 171.511 88.3006 171.572 88.9436 171.881L114.258 184.072C114.901 184.382 115.383 184.914 115.6 185.552C115.817 186.19 115.751 186.881 115.416 187.474L97.9759 218.265C97.6396 218.857 97.0622 219.302 96.3705 219.502C95.6788 219.702 94.9292 219.641 94.2863 219.332L68.9714 207.142C68.3292 206.832 67.8466 206.299 67.6295 205.662C67.4124 205.024 67.4786 204.333 67.8135 203.74Z" fill="#3F3D56"/>
<path d="M79.51 189.673C79.1999 188.913 78.7016 188.231 78.0548 187.68C77.4081 187.13 76.6307 186.727 75.7848 186.502C74.9389 186.278 74.0478 186.239 73.1828 186.389C72.3177 186.539 71.5026 186.873 70.8024 187.365L54.0919 177.144L54.0635 186.752L69.9364 194.985C70.8126 195.911 72.0146 196.524 73.3314 196.714C74.6483 196.905 75.996 196.662 77.1381 196.029C78.2803 195.395 79.144 194.411 79.5777 193.248C80.0114 192.086 79.9874 190.82 79.51 189.673Z" fill="#FFB8B8"/>
<path d="M58.3826 191.833L44.7257 181.858C43.2483 181.401 41.9134 180.619 40.8355 179.582C39.7575 178.544 38.9689 177.28 38.5371 175.9C38.1054 174.519 38.0435 173.062 38.3567 171.654C38.67 170.247 39.349 168.93 40.3355 167.818L52.7356 152.834C53.5973 151.863 54.8092 151.21 56.1497 150.995C57.4902 150.78 58.8699 151.017 60.0364 151.663C61.2029 152.309 62.0785 153.32 62.5029 154.512C62.9274 155.704 62.8724 156.997 62.3481 158.155L52.5368 172.953L66.9553 179.259C67.2906 179.405 67.5883 179.616 67.8288 179.877C68.0693 180.137 68.2471 180.442 68.3504 180.77C68.4538 181.099 68.4803 181.444 68.4283 181.783C68.3762 182.122 68.2468 182.446 68.0486 182.736L62.2283 191.229C62.0316 191.515 61.7717 191.761 61.4656 191.949C61.1595 192.137 60.8139 192.264 60.4513 192.321C60.4369 192.323 60.4224 192.325 60.4079 192.327C60.0516 192.377 59.688 192.359 59.3397 192.274C58.9913 192.188 58.6656 192.038 58.3826 191.833Z" fill="#CCCCCC"/>
<path d="M61.8308 137.739C61.7717 137.58 61.7529 137.41 61.776 137.243C61.7991 137.076 61.8633 136.915 61.9639 136.775C62.0644 136.634 62.1986 136.516 62.3561 136.431C62.5136 136.345 62.6903 136.294 62.8725 136.281C63.2458 136.299 63.6112 136.388 63.9464 136.54C64.2817 136.693 64.5799 136.906 64.8232 137.168C65.322 137.698 65.9027 138.158 66.5466 138.533C67.2134 138.842 68.1176 138.798 68.4977 138.208C68.8546 137.653 68.6101 136.91 68.394 136.265C67.8441 134.626 67.5365 132.926 67.4793 131.21C67.4171 129.296 67.7101 127.298 68.8596 125.804C70.3433 123.877 72.9962 123.145 75.5069 123.198C78.0175 123.251 80.4874 123.966 82.9743 124.418C83.8328 124.574 84.842 124.653 85.4162 124.04C86.0268 123.387 85.8026 122.332 85.5429 121.451C84.8689 119.165 84.154 116.802 82.5882 114.956C80.8952 113.038 78.4768 111.783 75.8201 111.443C73.2695 111.151 70.6804 111.422 68.2655 112.233C64.3312 113.377 60.8692 115.601 58.3426 118.607C55.7381 121.805 54.6126 125.823 55.2124 129.784C55.7983 133.233 57.7807 136.35 60.7599 138.505L61.8308 137.739Z" fill="#2F2E41"/>
<path d="M236.394 301.541C232.727 300.069 229.481 297.831 226.913 295.003C224.345 292.176 222.525 288.837 221.596 285.25C220.667 281.663 220.655 277.926 221.561 274.334C222.466 270.742 224.265 267.393 226.815 264.552C223.858 266.542 221.395 269.089 219.588 272.024C217.781 274.959 216.672 278.215 216.334 281.576C215.996 284.937 216.437 288.325 217.628 291.517C218.819 294.708 220.732 297.629 223.241 300.087C225.75 302.544 228.798 304.482 232.181 305.77C235.564 307.059 239.205 307.669 242.864 307.561C246.522 307.453 250.114 306.628 253.401 305.142C256.687 303.656 259.593 301.542 261.926 298.942C258.287 301.394 254.016 302.924 249.536 303.38C245.056 303.836 240.525 303.202 236.394 301.541Z" fill="#3F3D56"/>
</g>
<defs>
<clipPath id="clip0_241_317">
<rect width="474" height="308" fill="white"/>
</clipPath>
</defs>
</svg>
